<svg width="118" height="34" viewBox="0 0 118 34" fill="none" xmlns="http://www.w3.org/2000/svg"><g clip-path="url(#clip0_839_8)" fill="#000"><path d="M13.232 11.925h3.863a1.31 1.31 0 011.312 1.308c0 .72-.59 1.308-1.312 1.308h-3.863a1.312 1.312 0 01-1.313-1.308c0-.723.59-1.308 1.313-1.308zm-.009 7.655h7.751c.685 0 1.244.549 1.244 1.231 0 .683-.559 1.243-1.244 1.243h-7.75a1.24 1.24 0 01-1.236-1.243 1.23 1.23 0 011.235-1.232z"/><path fill-rule="evenodd" clip-rule="evenodd" d="M34.103 28.903c0 2.828-2.292 5.085-5.102 5.085H5.115C2.29 33.988 0 31.731 0 28.903V5.098C0 2.284 2.29 0 5.115 0h23.886a5.105 5.105 0 015.102 5.098v23.805zM13.401 6.411c-3.765 0-6.818 3.043-6.82 6.798v7.458c0 3.755 3.055 6.795 6.82 6.795h7.341c3.768 0 6.813-3.04 6.813-6.795V15.85c0-.75-.603-1.36-1.356-1.36h-1.176a1.36 1.36 0 01-1.356-1.264l-.008-.016c0-3.755-3.053-6.798-6.82-6.798H13.4zm28.924 2.215l-1.565.001v16.788l1.155-.002 2.555-.001c3.738 0 4.884-.259 5.975-1.21.955-.808 1.473-2.154 1.473-3.67 0-2.13-1.31-3.78-3.028-3.987v-.049c1.91-.685 2.237-2.284 2.237-3.728 0-1.517-.546-2.662-1.582-3.418-1.01-.73-2.14-.728-4.046-.726h-.32l-2.854.002zm3.1 13.735c-.573 0-.955 0-1.282-.07v-4.479h1.118c1.637 0 2.947.636 2.947 2.24 0 1.673-1.31 2.309-2.783 2.309zm-.273-7.08h-1.01v-3.818c.246-.073.628-.122 1.31-.122 1.364 0 2.156.66 2.156 1.909 0 1.223-.846 2.03-2.456 2.03zm14.624 4.054c0 3.817 1.2 6.088 4.938 6.088 3.737 0 5.047-1.983 5.047-6.281 0-3.576-1.146-6.061-4.884-6.061-3.71 0-5.101 2.439-5.101 6.254zm4.965-3.464c1.473 0 1.719 1.365 1.719 3.401 0 2.344-.519 3.423-1.746 3.423-1.228 0-1.774-1.24-1.774-3.401 0-2.091.3-3.423 1.801-3.423zm16.315 8.113v-6.985c0-1.12.043-2.203.066-2.803.01-.229.016-.387.016-.449-.028-.223-.219-.332-.682-.332h-1.528c-.437 0-.491.283-.491.283l-.246 1.118c-.49-.982-1.228-1.673-2.592-1.673-3.437 0-4.501 2.458-4.501 6.338 0 3.44 1.037 5.942 4.174 5.942 1.146 0 1.719-.318 2.346-1.134h.055v.761c0 2.249-.764 2.385-2.237 2.385-.982 0-1.883-.136-2.538-.427-.109-.06-.49-.044-.6.29-.049.114-.174.535-.291.926-.08.267-.156.52-.2.652-.109.353-.109.68.164.843.873.49 2.428.734 3.628.734 1.474 0 3.274-.19 4.366-1.305 1.095-1.17 1.093-2.99 1.091-5.164zm-4.83-8.016c1.256 0 1.474 1.33 1.474 2.333v1.77c0 .645-.136 2.507-1.473 2.507-1.364 0-1.719-1.402-1.719-3.194 0-2.186.491-3.415 1.719-3.415zm16.507 8.016v-6.985c0-1.12.043-2.203.066-2.803.01-.229.016-.387.016-.449-.028-.223-.219-.332-.655-.332h-1.555c-.437 0-.491.283-.491.283l-.219 1.118c-.518-.982-1.255-1.673-2.619-1.673-3.437 0-4.501 2.458-4.501 6.338 0 3.44 1.036 5.942 4.201 5.942 1.119 0 1.719-.318 2.32-1.134h.054v.761c0 2.249-.764 2.385-2.237 2.385-.955 0-1.883-.136-2.51-.427-.137-.06-.519-.044-.628.29l-.106.356c-.12.397-.3.992-.358 1.222-.109.353-.109.68.137.843.873.49 2.428.734 3.656.734 1.445 0 3.273-.19 4.337-1.305 1.096-1.17 1.094-2.99 1.092-5.164zm-4.83-8.016c1.256 0 1.474 1.33 1.474 2.333v1.77c0 .645-.11 2.507-1.473 2.507-1.364 0-1.719-1.402-1.719-3.194 0-2.186.491-3.415 1.719-3.415zm12.305 6.727c-1.473 0-2.155-.948-2.264-2.488l5.402.025c.573 0 .654-.612.654-1.237 0-2.907-.682-5.863-4.528-5.863-4.011 0-5.157 3.293-5.157 6.273 0 3.701 1.965 6.007 5.43 6.007 1.391 0 2.646-.24 3.682-.745 0 0 .601-.237.437-.694-.054-.132-.162-.45-.274-.78-.113-.333-.23-.677-.299-.851-.109-.296-.518-.242-.737-.166l-.324.114c-1.029.363-1.151.405-2.022.405zm-.818-7.02c1.337 0 1.391 1.44 1.391 2.265h-2.946c.054-.917.272-2.265 1.555-2.265z"/><path d="M59.23 24.427c-.3-2.148-.355-2.148-1.664-2.148-.6 0-.655-.103-.655-.573V8.956a.35.35 0 00-.355-.34h-2.51c-.19 0-.327.152-.327.34v14.599c.027.894.873 1.865 1.773 1.865h2.674c.655 0 1.146-.419 1.064-.993zm52.638-11.347l.126.004c.491.005 1.61.323 1.528.927-.109.603-.382 2.186-.382 2.186s-.191.389-.546.283c-.327-.106-1.064-.316-1.473-.316-1.255 0-1.637.544-1.746 2.012-.027.245-.055.675-.055.987l.028 5.917a.35.35 0 01-.355.34h-2.783c-.191 0-.327-.152-.327-.34V13.437l2.892-.03.136 1.063h.082c1.134-1.448 2.314-1.409 2.875-1.39zm3.1-.459v1.322h.327V12.62h.41v-.315h-1.119v.315h.382zm2.619 1.322h.409v-1.637h-.464l-.354.808-.355-.808h-.436v1.637h.354v-1.085l.3.699h.273l.273-.7v1.086z"/></g><defs><clipPath id="clip0_839_8"><path fill="#fff" d="M0 0h118v34H0z"/></clipPath></defs></svg>