<svg width="12" height="12" viewBox="0 0 12 12" fill="none" xmlns="http://www.w3.org/2000/svg"><g clip-path="url(#clip0_601_7)"><path d="M3 5.4h1.2v1.2H3V5.4zm8.4-3v8.4c0 .66-.54 1.2-1.2 1.2H1.8a1.2 1.2 0 01-1.2-1.2l.006-8.4c0-.66.528-1.2 1.194-1.2h.6V0h1.2v1.2h4.8V0h1.2v1.2h.6c.66 0 1.2.54 1.2 1.2zM1.8 3.6h8.4V2.4H1.8v1.2zm8.4 7.2v-6H1.8v6h8.4zM7.8 6.6H9V5.4H7.8v1.2zm-2.4 0h1.2V5.4H5.4v1.2z" fill="#555"/></g><defs><clipPath id="clip0_601_7"><path fill="#fff" d="M0 0h12v12H0z"/></clipPath></defs></svg>