<svg width="144" height="34" viewBox="0 0 144 34" fill="none" xmlns="http://www.w3.org/2000/svg"><g clip-path="url(#clip0_839_12)" fill="#000"><path fill-rule="evenodd" clip-rule="evenodd" d="M16.933 34c9.351 0 16.932-7.611 16.932-17S26.285 0 16.932 0C7.582 0 0 7.611 0 17s7.58 17 16.933 17zm3.35-14.709c-.7 0-1.252.628-1.142 1.367.11.555.626.924 1.178.924h1.767l1.03-.148c-1.656 2.44-4.49 3.548-7.619 3.03-2.54-.406-4.712-2.143-5.632-4.545-2.098-5.47 1.877-10.717 7.068-10.717 2.687 0 5.08 1.589 6.441 3.51v.038c.369.517 1.068.665 1.583.295.479-.332.626-.998.331-1.515a9.894 9.894 0 00-9.055-4.583c-4.932.407-8.945 4.472-9.239 9.461-.331 5.802 4.233 10.496 9.939 10.496 2.981 0 5.668-1.294 7.472-3.437l-.22 1.22v1.108c0 .555.367 1.072.92 1.183.736.148 1.361-.444 1.361-1.146v-6.541h-6.184zm22.674 4.546c0 .592.368.998.884 1.22 1.288.517 2.54.776 3.975.74 2.135 0 3.681-.444 4.712-1.48.92-.923 1.399-2.364 1.399-4.323v-7.059c0-.85-.7-1.552-1.547-1.552-.846 0-1.546.702-1.546 1.552v.074c-.846-.924-1.84-1.626-3.533-1.626-2.503 0-4.86 1.81-4.86 5.1v.037c0 3.252 2.32 5.1 4.86 5.1 1.656 0 2.65-.665 3.57-1.774v.517c0 1.96-.994 2.994-3.129 2.994a6.988 6.988 0 01-3.018-.665 1.064 1.064 0 00-.515-.111c-.663 0-1.252.554-1.252 1.256zm7.914-7.39v.036c0 1.478-1.178 2.55-2.687 2.55s-2.65-1.035-2.65-2.55v-.037c0-1.515 1.141-2.55 2.65-2.55 1.51 0 2.687 1.072 2.687 2.55z"/><path d="M57.203 11.42c-.847 0-1.546.702-1.546 1.552v8.094c0 .85.699 1.552 1.546 1.552.846 0 1.546-.702 1.546-1.552v-2.92c0-2.18.846-3.4 2.43-3.77.662-.147 1.177-.628 1.177-1.44 0-.888-.552-1.516-1.51-1.516-.92 0-1.656.96-2.097 2.033v-.48c0-.85-.7-1.553-1.546-1.553z"/><path fill-rule="evenodd" clip-rule="evenodd" d="M62.025 19.292v.037c0 2.18 1.693 3.363 3.791 3.289 1.51 0 2.577-.554 3.313-1.404v.037c0 .665.589 1.293 1.472 1.293.847 0 1.51-.628 1.51-1.478v-4.99c0-1.478-.368-2.697-1.178-3.51-.773-.776-1.988-1.22-3.681-1.22-1.473 0-2.503.222-3.497.591a1.278 1.278 0 00-.847 1.22c0 .702.59 1.257 1.288 1.257.148 0 .258 0 .442-.074.59-.185 1.289-.296 2.135-.296 1.546 0 2.356.702 2.356 1.996v.184a8.006 8.006 0 00-2.687-.443c-2.614 0-4.417 1.109-4.417 3.51zm7.104-1.22v.555c0 1.145-.994 1.921-2.43 1.921-.993 0-1.693-.48-1.693-1.33v-.037c0-.998.81-1.515 2.135-1.515.773 0 1.473.148 1.988.406z"/><path d="M75.276 11.42c-.846 0-1.546.702-1.546 1.552h.037v8.094c0 .85.7 1.552 1.546 1.552.847 0 1.546-.702 1.546-1.552v-4.694c0-1.441.7-2.217 1.877-2.217 1.141 0 1.804.739 1.804 2.217v4.694c0 .85.7 1.552 1.546 1.552.847 0 1.546-.702 1.546-1.552v-4.694c0-1.441.7-2.217 1.877-2.217 1.141 0 1.804.739 1.804 2.217v4.694c0 .85.7 1.552 1.546 1.552.847 0 1.546-.702 1.546-1.552v-5.729c0-2.623-1.362-4.028-3.68-4.028-1.473 0-2.614.628-3.572 1.737-.588-1.109-1.656-1.737-3.092-1.737-1.582 0-2.54.85-3.239 1.774v-.11c0-.85-.7-1.553-1.546-1.553zm18.332 0c-.847 0-1.547.702-1.547 1.552h.037v8.094c0 .85.7 1.552 1.546 1.552.847 0 1.546-.702 1.546-1.552v-4.694c0-1.441.7-2.217 1.878-2.217 1.14 0 1.803.739 1.803 2.217v4.694c0 .85.7 1.552 1.546 1.552.847 0 1.546-.702 1.546-1.552v-4.694c0-1.441.7-2.217 1.878-2.217 1.141 0 1.803.739 1.803 2.217v4.694c0 .85.7 1.552 1.546 1.552.847 0 1.546-.702 1.546-1.552v-5.729c0-2.623-1.362-4.028-3.681-4.028-1.472 0-2.613.628-3.57 1.737-.589-1.109-1.657-1.737-3.092-1.737-1.583 0-2.54.85-3.24 1.774v-.11c0-.85-.699-1.553-1.546-1.553z"/><path fill-rule="evenodd" clip-rule="evenodd" d="M109.767 19.292v.037c0 2.18 1.693 3.363 3.791 3.289 1.51 0 2.54-.554 3.313-1.404v.037c0 .665.589 1.293 1.473 1.293.846 0 1.509-.628 1.509-1.478v-4.99c0-1.478-.368-2.697-1.178-3.51-.773-.776-1.988-1.22-3.681-1.22-1.472 0-2.503.222-3.497.591a1.278 1.278 0 00-.847 1.22c0 .702.589 1.257 1.289 1.257.147 0 .257 0 .442-.074.588-.185 1.288-.296 2.135-.296 1.546 0 2.355.702 2.355 1.996v.184a8.002 8.002 0 00-2.687-.443c-2.613 0-4.417 1.109-4.417 3.51zm7.104-1.22v.555c0 1.145-.957 1.921-2.429 1.921-.994 0-1.693-.48-1.693-1.33v-.037c0-.998.809-1.515 2.135-1.515.773 0 1.472.148 1.987.406z"/><path d="M123.019 11.42c-.847 0-1.546.702-1.546 1.552v8.094c0 .85.699 1.552 1.546 1.552.846 0 1.546-.702 1.546-1.552v-2.92c0-2.18.846-3.4 2.429-3.77.663-.147 1.178-.628 1.178-1.44 0-.888-.552-1.516-1.509-1.516-.92 0-1.657.96-2.098 2.033v-.48c0-.85-.7-1.553-1.546-1.553zm7.656-3.991c-.847 0-1.546.702-1.546 1.552v12.085c0 .85.699 1.552 1.546 1.552.847 0 1.546-.702 1.546-1.552V8.98c0-.85-.699-1.552-1.546-1.552zm3.018 16.815c0 .776.553 1.146.994 1.293.516.185.994.296 1.694.333 1.84 0 2.76-.85 3.681-3.067l3.828-9.203c.073-.147.147-.48.147-.739 0-.813-.663-1.441-1.472-1.441-.773 0-1.215.517-1.473 1.183l-2.282 6.356-2.356-6.393c-.258-.74-.699-1.183-1.472-1.183-.884 0-1.546.591-1.546 1.478 0 .185.073.48.147.702l3.718 8.685-.111.259c-.294.554-.552.665-1.104.665-.221 0-.405-.037-.663-.11a1.515 1.515 0 00-.515-.075c-.626 0-1.215.48-1.215 1.257z"/></g><defs><clipPath id="clip0_839_12"><path fill="#fff" d="M0 0h144v34H0z"/></clipPath></defs></svg>