<svg width="16" height="16" viewBox="0 0 16 16" fill="none" xmlns="http://www.w3.org/2000/svg"><path d="M12.666 4.793a1.027 1.027 0 110-2.053 1.027 1.027 0 010 2.053zm-4.45.684a2.739 2.739 0 110 5.478 2.739 2.739 0 010-5.478zm0-1.37a4.108 4.108 0 100 8.217 4.108 4.108 0 000-8.216z" fill="#FDF7F4"/><path d="M11.333 1.333a3.344 3.344 0 013.334 3.334v6.666a3.344 3.344 0 01-3.334 3.334H4.667a3.344 3.344 0 01-3.334-3.334V4.667a3.344 3.344 0 013.334-3.334h6.666zm0-1.333H4.667A4.68 4.68 0 000 4.667v6.666A4.68 4.68 0 004.667 16h6.666A4.68 4.68 0 0016 11.333V4.667A4.68 4.68 0 0011.333 0z" fill="#FDF7F4"/></svg>