<svg width="120" height="28" viewBox="0 0 120 28" fill="none" xmlns="http://www.w3.org/2000/svg"><path d="M.859.18h70v27h-70v-27z" fill="#00AAA1"/><path d="M22.759 24.18h-4.293L9.34 9.06h-.108c.054.81.099 1.682.135 2.618.054.918.09 1.845.108 2.781v9.72H6.37V4.901h4.266l9.099 15.012h.08a247.31 247.31 0 01-.107-2.484c-.036-.936-.063-1.845-.081-2.727v-9.8h3.132v19.277zm18.305-7.345c0 2.43-.63 4.311-1.89 5.643-1.26 1.314-2.97 1.971-5.13 1.971-1.332 0-2.52-.297-3.564-.89-1.044-.595-1.863-1.459-2.457-2.593-.594-1.134-.891-2.51-.891-4.13 0-2.43.62-4.294 1.863-5.59 1.26-1.314 2.97-1.97 5.13-1.97 1.35 0 2.547.296 3.59.89 1.045.576 1.864 1.431 2.458 2.565.594 1.116.89 2.484.89 4.104zm-10.45 0c0 1.548.27 2.745.81 3.591.559.846 1.45 1.27 2.674 1.27s2.106-.424 2.646-1.27c.558-.846.837-2.043.837-3.59 0-1.549-.28-2.737-.837-3.565-.54-.828-1.431-1.242-2.673-1.242-1.206 0-2.088.414-2.646 1.242-.54.828-.81 2.016-.81 3.564zm20.176 4.887c.415 0 .82-.036 1.216-.108.414-.09.792-.189 1.134-.297v2.538c-.36.162-.828.297-1.404.405a8.445 8.445 0 01-1.81.19c-.827 0-1.583-.136-2.267-.406-.684-.288-1.224-.774-1.62-1.458-.396-.684-.594-1.638-.594-2.862V12.11h-1.971v-1.485l2.16-1.188 1.08-3.105h2.133v3.213h4.158v2.565h-4.158v7.587c0 .684.18 1.197.54 1.54.36.323.828.485 1.404.485zM62.516 9.275c1.962 0 3.51.585 4.644 1.755 1.152 1.17 1.728 2.8 1.728 4.887v1.728h-9.666c.036 1.332.405 2.367 1.107 3.105.702.72 1.674 1.08 2.916 1.08.936 0 1.782-.09 2.538-.27.756-.198 1.53-.477 2.322-.837v2.727a9.963 9.963 0 01-2.241.756c-.774.162-1.701.243-2.781.243-1.422 0-2.691-.27-3.807-.81-1.098-.558-1.962-1.395-2.592-2.51-.612-1.117-.918-2.503-.918-4.159 0-2.502.62-4.41 1.863-5.724 1.242-1.314 2.87-1.97 4.887-1.97zm0 2.511c-.918 0-1.665.297-2.241.891-.558.576-.882 1.44-.972 2.592h6.29c-.017-1.008-.278-1.836-.782-2.484-.486-.666-1.251-.999-2.295-.999z" fill="#fff"/><path d="M78.095 13.042c1.575 0 2.765.226 3.57.68.816.453 1.224 1.24 1.224 2.363 0 .702-.176 1.292-.527 1.768-.352.476-.856.77-1.513.884v.085c.442.08.844.226 1.207.442.362.204.646.504.85.9.215.386.323.896.323 1.53 0 1.1-.391 1.956-1.173 2.568-.77.612-1.83.918-3.18.918H74.44V13.042h3.655zm.289 4.947c.861 0 1.45-.136 1.768-.408.329-.272.493-.675.493-1.207 0-.544-.198-.935-.595-1.173-.385-.238-.998-.357-1.836-.357h-1.598v3.145h1.768zm-1.768 1.75v3.622h1.972c.884 0 1.496-.17 1.836-.51.351-.34.527-.794.527-1.36 0-.522-.181-.94-.544-1.258-.352-.329-.992-.493-1.921-.493h-1.87zm17.137.817c0 1.53-.397 2.714-1.19 3.553-.794.827-1.87 1.24-3.23 1.24-.839 0-1.587-.186-2.244-.56-.657-.374-1.173-.918-1.547-1.632-.374-.714-.561-1.581-.561-2.601 0-1.53.39-2.703 1.173-3.52.793-.827 1.87-1.24 3.23-1.24.85 0 1.603.187 2.26.56.658.363 1.174.902 1.548 1.616.374.702.56 1.564.56 2.584zm-6.58 0c0 .974.17 1.728.51 2.26.352.533.913.8 1.684.8.77 0 1.326-.267 1.666-.8.351-.532.527-1.286.527-2.26 0-.975-.176-1.723-.527-2.244-.34-.522-.901-.782-1.683-.782-.76 0-1.315.26-1.666.782-.34.521-.51 1.27-.51 2.244zm17.022 0c0 1.53-.396 2.714-1.19 3.553-.793.827-1.87 1.24-3.23 1.24-.838 0-1.586-.186-2.244-.56-.657-.374-1.173-.918-1.547-1.632-.374-.714-.56-1.581-.56-2.601 0-1.53.39-2.703 1.172-3.52.794-.827 1.87-1.24 3.23-1.24.85 0 1.604.187 2.261.56.658.363 1.173.902 1.547 1.616.374.702.561 1.564.561 2.584zm-6.579 0c0 .974.17 1.728.51 2.26.352.533.913.8 1.683.8.771 0 1.326-.267 1.666-.8.352-.532.527-1.286.527-2.26 0-.975-.175-1.723-.527-2.244-.34-.522-.901-.782-1.683-.782-.76 0-1.314.26-1.666.782-.34.521-.51 1.27-.51 2.244zm10.919-2.159c0 .294-.012.606-.034.935l-.068.935h.051a14.499 14.499 0 011.088-1.394l2.72-2.907h2.431l-3.689 3.978 3.927 5.236h-2.499l-2.856-3.944-1.071.884v3.06h-2.125V12.26h2.125v6.137z" fill="#222"/><path d="M119.859 23.18a2 2 0 11-4-.001 2 2 0 014 0z" fill="#00AAA1"/></svg>