<svg width="194" height="30" viewBox="0 0 194 30" fill="none" xmlns="http://www.w3.org/2000/svg"><path d="M91.762 1.293l-.065.324c-1.487.323-2.263.84-2.263 2.651v21.987c.13 1.422.905 1.875 2.263 2.198h.065v.324h-10.54v-.324h.064c1.358-.323 2.134-.776 2.263-2.198V4.85L73.397 28.712h-.582L62.92 5.497v20.24c0 1.811.776 2.328 2.263 2.652h.065v.323h-6.08v-.323h.066c1.487-.324 2.263-.841 2.263-2.652V4.268c0-1.81-.776-2.328-2.263-2.651h-.065v-.324h8.924l7.695 18.042 7.696-18.042h8.277z" fill="#000"/><path fill-rule="evenodd" clip-rule="evenodd" d="M108.769 16.878H96.418c-.259 4.268 2.393 7.76 5.885 7.89 2.522.193 4.72-1.359 5.949-3.88l.323.129c-.711 4.72-3.492 8.277-8.342 8.277-5.496 0-8.6-4.591-8.73-10.347V17.46c.259-2.522 1.035-4.785 2.393-6.467.84-1.034 1.81-1.81 2.975-2.328.97-.517 2.392-.776 3.556-.776h.065c2.199 0 4.333.776 5.755 2.134 1.617 1.552 2.458 3.816 2.522 6.79v.065zm-8.342-7.76c-2.328 0-3.686 2.78-3.88 6.66v.065h7.049c.129-3.039-.388-5.044-1.358-6.014-.517-.452-1.099-.711-1.811-.711zm28.195 16.49c0 1.94.776 2.457 2.263 2.845l.065.324h-8.213v-3.169c-.97 2.328-2.974 3.75-5.561 3.75-4.397 0-7.307-4.009-7.307-9.958 0-3.363.97-6.208 2.78-8.342 1.746-2.07 4.139-3.169 6.79-3.169 1.294 0 2.393.259 3.298.841V5.238c0-.776-.194-1.293-.582-1.681-.517-.453-1.358-.647-2.651-.518h-.065v-.323L128.622 0v25.608zm-8.277.582c1.164 0 2.004-.517 2.392-1.487V10.476c-.452-.905-1.293-1.423-2.328-1.423-2.586 0-4.203 3.428-4.203 8.73 0 2.522.453 4.721 1.229 6.208.711 1.423 1.746 2.199 2.91 2.199z" fill="#000"/><path d="M135.477.194c1.875 0 3.298 1.423 3.298 3.298s-1.423 3.298-3.298 3.298c-1.876 0-3.298-1.423-3.298-3.298s1.422-3.298 3.298-3.298zm3.168 25.414c0 1.94.776 2.457 2.264 2.845l.064.324h-8.212V13.515c0-2.069-.453-2.716-2.264-2.845h-.064v-.323l8.212-2.393v17.654zm21.146 0c0 1.94.776 2.457 2.264 2.845v.324h-8.213v-3.234c-.97 2.328-3.104 3.816-5.497 3.816-2.845 0-4.656-1.294-5.367-3.816l-.129-.646a9.82 9.82 0 01-.194-1.94v-9.442c0-2.069-.453-2.716-2.264-2.845h-.064v-.323l8.212-2.393v14.873c0 2.199.97 3.428 2.781 3.428 1.099 0 2.005-.582 2.522-1.552V13.515c0-2.134-.388-2.78-1.875-2.91h-.065v-.323l7.889-2.328v17.654zM194 28.453v.324h-8.277v-14.68c0-2.328-.841-3.492-2.587-3.492-1.423 0-2.134 1.035-2.522 1.94.065.453.129.906.129 1.358v12.222c0 1.488.453 2.005 1.746 2.328h.065v.324h-7.695v-14.68c0-2.328-.906-3.492-2.587-3.492-1.358 0-2.069.97-2.393 1.746V26.19c0 1.487.453 2.005 1.746 2.328h.065v.323h-7.695v-15.39c0-2.07-.518-2.716-2.264-2.846h-.064v-.323l8.212-2.263v3.427c.841-2.199 2.781-3.492 5.238-3.492 2.781 0 4.721 1.358 5.368 3.815.84-2.328 2.974-3.815 5.561-3.815 3.492 0 5.626 2.199 5.626 5.95V25.93c0 1.423.647 2.134 2.263 2.522H194zm-179.45 1.1c8.019 0 14.55-6.532 14.55-14.615S22.569.323 14.55.323C6.531.323 0 6.79 0 14.938s6.531 14.615 14.55 14.615zm23.28-.841c4.01 0 7.243-6.143 7.243-13.774 0-7.566-3.298-13.774-7.243-13.774-4.01 0-7.243 6.143-7.243 13.774 0 7.63 3.234 13.774 7.243 13.774zm13.71-13.774c0 6.79-1.164 12.352-2.587 12.352-1.423 0-2.587-5.562-2.587-12.352S47.53 2.587 48.953 2.587c1.487 0 2.586 5.561 2.586 12.351z" fill="#000"/></svg>