<svg xmlns="http://www.w3.org/2000/svg"><symbol id="search-ic" viewBox="0 0 18 18"><path fill-rule="evenodd" clip-rule="evenodd" d="M3.567 8.242a4.825 4.825 0 119.65-.001 4.825 4.825 0 01-9.65 0zm4.825-6.326a6.325 6.325 0 00-6.325 6.326 6.325 6.325 0 0010.13 5.054l2.444 2.556a.75.75 0 101.084-1.037l-2.446-2.557A6.325 6.325 0 008.392 1.916z"/></symbol><symbol id="write-ic" viewBox="0 0 18 18"><path d="M14.756 2.821l.353.353c.486.487.412 1.35-.166 1.927L7.67 12.374l-2.357.862c-.296.109-.584-.032-.642-.314a.555.555 0 01.027-.305l.878-2.377 7.253-7.253c.578-.578 1.44-.652 1.927-.166zm-7.404.724a.598.598 0 010 1.195h-2.39a1.196 1.196 0 00-1.196 1.196v7.173a1.196 1.196 0 001.195 1.196h7.174a1.196 1.196 0 001.195-1.196v-2.39a.598.598 0 111.196 0v2.39a2.39 2.39 0 01-2.391 2.391H4.96a2.391 2.391 0 01-2.39-2.39V5.935a2.391 2.391 0 012.39-2.391h2.391z"/></symbol><symbol id="day-ic" viewBox="0 0 14 14"><path d="M7.5 12a.5.5 0 00-1 0v1a.5.5 0 001 0v-1zm-3.646-1.854a.502.502 0 010 .708l-.5.5a.502.502 0 01-.708-.708l.5-.5a.502.502 0 01.708 0zm6.292 0a.502.502 0 01.708 0l.499.5a.5.5 0 11-.707.708l-.5-.5a.502.502 0 010-.708zM2.971 7a4.028 4.028 0 118.057 0A4.028 4.028 0 012.97 7zM7 4.172a2.829 2.829 0 100 5.657 2.829 2.829 0 000-5.657zM1 6.5a.5.5 0 000 1h1a.5.5 0 000-1H1zm11 0a.5.5 0 000 1h1a.5.5 0 000-1h-1zM2.646 2.646a.502.502 0 01.708 0l.5.5a.502.502 0 01-.708.708l-.5-.5a.502.502 0 010-.708zm8 0a.5.5 0 01.707.708l-.499.5a.502.502 0 01-.708-.708l.5-.5zM7 .5a.5.5 0 01.5.5v1a.5.5 0 01-1 0V1A.5.5 0 017 .5z"/></symbol><symbol id="night-ic" viewBox="0 0 14 14"><path d="M9.584 3.705a4.26 4.26 0 01.508 5.995 4.26 4.26 0 01-5.995.508 3.6 3.6 0 01-.386-.375 6.378 6.378 0 003.943-2.19 6.378 6.378 0 001.495-4.256c.152.093.297.202.435.318zm.686-.813a5.303 5.303 0 00-2.495-1.165 5.305 5.305 0 01-.934 5.23 5.305 5.305 0 01-4.999 1.8c.306.85.83 1.64 1.57 2.264a5.32 5.32 0 007.493-.635 5.32 5.32 0 00-.635-7.494z"/></symbol></svg>