<svg xmlns="http://www.w3.org/2000/svg"><symbol id="search-ic" viewBox="0 0 18 18"><path fill-rule="evenodd" clip-rule="evenodd" d="M3.567 8.242a4.825 4.825 0 119.65-.001 4.825 4.825 0 01-9.65 0zm4.825-6.326a6.325 6.325 0 00-6.325 6.326 6.325 6.325 0 0010.13 5.054l2.444 2.556a.75.75 0 101.084-1.037l-2.446-2.557A6.325 6.325 0 008.392 1.916z"/></symbol><symbol id="write-ic" viewBox="0 0 18 18"><path d="M14.756 2.821l.353.353c.486.487.412 1.35-.166 1.927L7.67 12.374l-2.357.862c-.296.109-.584-.032-.642-.314a.555.555 0 01.027-.305l.878-2.377 7.253-7.253c.578-.578 1.44-.652 1.927-.166zm-7.404.724a.598.598 0 010 1.195h-2.39a1.196 1.196 0 00-1.196 1.196v7.173a1.196 1.196 0 001.195 1.196h7.174a1.196 1.196 0 001.195-1.196v-2.39a.598.598 0 111.196 0v2.39a2.39 2.39 0 01-2.391 2.391H4.96a2.391 2.391 0 01-2.39-2.39V5.935a2.391 2.391 0 012.39-2.391h2.391z"/></symbol></svg>