<svg xmlns="http://www.w3.org/2000/svg"><symbol id="logo" viewBox="0 0 120 28"><path d="M.859.18h70v27h-70v-27z" fill="#00AAA1"/><path d="M22.759 24.18h-4.293L9.34 9.06h-.108c.054.81.099 1.682.135 2.618.054.918.09 1.845.108 2.781v9.72H6.37V4.901h4.266l9.099 15.012h.08a247.31 247.31 0 01-.107-2.484c-.036-.936-.063-1.845-.081-2.727v-9.8h3.132v19.277zm18.305-7.345c0 2.43-.63 4.311-1.89 5.643-1.26 1.314-2.97 1.971-5.13 1.971-1.332 0-2.52-.297-3.564-.89-1.044-.595-1.863-1.459-2.457-2.593-.594-1.134-.891-2.51-.891-4.13 0-2.43.62-4.294 1.863-5.59 1.26-1.314 2.97-1.97 5.13-1.97 1.35 0 2.547.296 3.59.89 1.045.576 1.864 1.431 2.458 2.565.594 1.116.89 2.484.89 4.104zm-10.45 0c0 1.548.27 2.745.81 3.591.559.846 1.45 1.27 2.674 1.27s2.106-.424 2.646-1.27c.558-.846.837-2.043.837-3.59 0-1.549-.28-2.737-.837-3.565-.54-.828-1.431-1.242-2.673-1.242-1.206 0-2.088.414-2.646 1.242-.54.828-.81 2.016-.81 3.564zm20.176 4.887c.415 0 .82-.036 1.216-.108.414-.09.792-.189 1.134-.297v2.538c-.36.162-.828.297-1.404.405a8.445 8.445 0 01-1.81.19c-.827 0-1.583-.136-2.267-.406-.684-.288-1.224-.774-1.62-1.458-.396-.684-.594-1.638-.594-2.862V12.11h-1.971v-1.485l2.16-1.188 1.08-3.105h2.133v3.213h4.158v2.565h-4.158v7.587c0 .684.18 1.197.54 1.54.36.323.828.485 1.404.485zM62.516 9.275c1.962 0 3.51.585 4.644 1.755 1.152 1.17 1.728 2.8 1.728 4.887v1.728h-9.666c.036 1.332.405 2.367 1.107 3.105.702.72 1.674 1.08 2.916 1.08.936 0 1.782-.09 2.538-.27.756-.198 1.53-.477 2.322-.837v2.727a9.963 9.963 0 01-2.241.756c-.774.162-1.701.243-2.781.243-1.422 0-2.691-.27-3.807-.81-1.098-.558-1.962-1.395-2.592-2.51-.612-1.117-.918-2.503-.918-4.159 0-2.502.62-4.41 1.863-5.724 1.242-1.314 2.87-1.97 4.887-1.97zm0 2.511c-.918 0-1.665.297-2.241.891-.558.576-.882 1.44-.972 2.592h6.29c-.017-1.008-.278-1.836-.782-2.484-.486-.666-1.251-.999-2.295-.999z" fill="var(--color-white)"/><path d="M78.095 13.042c1.575 0 2.765.226 3.57.68.816.453 1.224 1.24 1.224 2.363 0 .702-.176 1.292-.527 1.768-.352.476-.856.77-1.513.884v.085c.442.08.844.226 1.207.442.362.204.646.504.85.9.215.386.323.896.323 1.53 0 1.1-.391 1.956-1.173 2.568-.77.612-1.83.918-3.18.918H74.44V13.042h3.655zm.289 4.947c.861 0 1.45-.136 1.768-.408.329-.272.493-.675.493-1.207 0-.544-.198-.935-.595-1.173-.385-.238-.998-.357-1.836-.357h-1.598v3.145h1.768zm-1.768 1.75v3.622h1.972c.884 0 1.496-.17 1.836-.51.351-.34.527-.794.527-1.36 0-.522-.181-.94-.544-1.258-.352-.329-.992-.493-1.921-.493h-1.87zm17.137.817c0 1.53-.397 2.714-1.19 3.553-.794.827-1.87 1.24-3.23 1.24-.839 0-1.587-.186-2.244-.56-.657-.374-1.173-.918-1.547-1.632-.374-.714-.561-1.581-.561-2.601 0-1.53.39-2.703 1.173-3.52.793-.827 1.87-1.24 3.23-1.24.85 0 1.603.187 2.26.56.658.363 1.174.902 1.548 1.616.374.702.56 1.564.56 2.584zm-6.58 0c0 .974.17 1.728.51 2.26.352.533.913.8 1.684.8.77 0 1.326-.267 1.666-.8.351-.532.527-1.286.527-2.26 0-.975-.176-1.723-.527-2.244-.34-.522-.901-.782-1.683-.782-.76 0-1.315.26-1.666.782-.34.521-.51 1.27-.51 2.244zm17.022 0c0 1.53-.396 2.714-1.19 3.553-.793.827-1.87 1.24-3.23 1.24-.838 0-1.586-.186-2.244-.56-.657-.374-1.173-.918-1.547-1.632-.374-.714-.56-1.581-.56-2.601 0-1.53.39-2.703 1.172-3.52.794-.827 1.87-1.24 3.23-1.24.85 0 1.604.187 2.261.56.658.363 1.173.902 1.547 1.616.374.702.561 1.564.561 2.584zm-6.579 0c0 .974.17 1.728.51 2.26.352.533.913.8 1.683.8.771 0 1.326-.267 1.666-.8.352-.532.527-1.286.527-2.26 0-.975-.175-1.723-.527-2.244-.34-.522-.901-.782-1.683-.782-.76 0-1.314.26-1.666.782-.34.521-.51 1.27-.51 2.244zm10.919-2.159c0 .294-.012.606-.034.935l-.068.935h.051a14.499 14.499 0 011.088-1.394l2.72-2.907h2.431l-3.689 3.978 3.927 5.236h-2.499l-2.856-3.944-1.071.884v3.06h-2.125V12.26h2.125v6.137z" fill="var(--color-min-shaft)"/><path d="M119.859 23.18a2 2 0 11-4-.001 2 2 0 014 0z" fill="#00AAA1"/></symbol><symbol id="search-ic" viewBox="0 0 18 18"><path fill-rule="evenodd" clip-rule="evenodd" d="M3.567 8.242a4.825 4.825 0 119.65-.001 4.825 4.825 0 01-9.65 0zm4.825-6.326a6.325 6.325 0 00-6.325 6.326 6.325 6.325 0 0010.13 5.054l2.444 2.556a.75.75 0 101.084-1.037l-2.446-2.557A6.325 6.325 0 008.392 1.916z"/></symbol><symbol id="write-ic" viewBox="0 0 18 18"><path d="M14.756 2.821l.353.353c.486.487.412 1.35-.166 1.927L7.67 12.374l-2.357.862c-.296.109-.584-.032-.642-.314a.555.555 0 01.027-.305l.878-2.377 7.253-7.253c.578-.578 1.44-.652 1.927-.166zm-7.404.724a.598.598 0 010 1.195h-2.39a1.196 1.196 0 00-1.196 1.196v7.173a1.196 1.196 0 001.195 1.196h7.174a1.196 1.196 0 001.195-1.196v-2.39a.598.598 0 111.196 0v2.39a2.39 2.39 0 01-2.391 2.391H4.96a2.391 2.391 0 01-2.39-2.39V5.935a2.391 2.391 0 012.39-2.391h2.391z"/></symbol><symbol id="day-ic" viewBox="0 0 14 14"><path d="M7.5 12a.5.5 0 00-1 0v1a.5.5 0 001 0v-1zm-3.646-1.854a.502.502 0 010 .708l-.5.5a.502.502 0 01-.708-.708l.5-.5a.502.502 0 01.708 0zm6.292 0a.502.502 0 01.708 0l.499.5a.5.5 0 11-.707.708l-.5-.5a.502.502 0 010-.708zM2.971 7a4.028 4.028 0 118.057 0A4.028 4.028 0 012.97 7zM7 4.172a2.829 2.829 0 100 5.657 2.829 2.829 0 000-5.657zM1 6.5a.5.5 0 000 1h1a.5.5 0 000-1H1zm11 0a.5.5 0 000 1h1a.5.5 0 000-1h-1zM2.646 2.646a.502.502 0 01.708 0l.5.5a.502.502 0 01-.708.708l-.5-.5a.502.502 0 010-.708zm8 0a.5.5 0 01.707.708l-.499.5a.502.502 0 01-.708-.708l.5-.5zM7 .5a.5.5 0 01.5.5v1a.5.5 0 01-1 0V1A.5.5 0 017 .5z"/></symbol><symbol id="night-ic" viewBox="0 0 14 14"><path d="M9.584 3.705a4.26 4.26 0 01.508 5.995 4.26 4.26 0 01-5.995.508 3.6 3.6 0 01-.386-.375 6.378 6.378 0 003.943-2.19 6.378 6.378 0 001.495-4.256c.152.093.297.202.435.318zm.686-.813a5.303 5.303 0 00-2.495-1.165 5.305 5.305 0 01-.934 5.23 5.305 5.305 0 01-4.999 1.8c.306.85.83 1.64 1.57 2.264a5.32 5.32 0 007.493-.635 5.32 5.32 0 00-.635-7.494z"/></symbol><symbol id="facebook-ic" viewBox="0 0 6 10"><path d="M1.776 10h2.116V5.437H5.66l.267-1.775H3.892V2.526c0-.512.166-.862 1.018-.862H6V.069A17.97 17.97 0 004.419 0C2.845 0 1.776.831 1.776 2.35v1.313H0v1.775h1.776V10z"/></symbol><symbol id="pinterest-ic" viewBox="0 0 14 14"><path d="M6.976.303a7.038 7.038 0 00-4.453 1.625A6.979 6.979 0 00.866 10.67a7.016 7.016 0 003.551 3.132 6.597 6.597 0 010-2l.828-3.5a2.517 2.517 0 01-.19-1c0-.97.566-1.7 1.269-1.7a.886.886 0 01.858.626.877.877 0 01.03.374c0 .6-.381 1.5-.582 2.33a.997.997 0 00.573 1.188c.148.063.31.09.47.077 1.245 0 2.208-1.315 2.208-3.205a2.756 2.756 0 00-.837-2.07 2.776 2.776 0 00-2.098-.78 3.05 3.05 0 00-2.238.844 3.03 3.03 0 00-.933 2.196c-.005.572.17 1.13.502 1.595a.22.22 0 01.05.2c-.055.22-.176.7-.196.795-.02.095-.105.155-.235.095-.878-.41-1.425-1.685-1.425-2.715 0-2.204 1.61-4.234 4.64-4.234 2.434 0 4.33 1.73 4.33 4.044 0 2.41-1.505 4.35-3.647 4.35a1.892 1.892 0 01-1.61-.8l-.437 1.665a7.764 7.764 0 01-.873 1.835c.682.201 1.39.299 2.102.29 1.863 0 3.65-.737 4.967-2.05A6.987 6.987 0 0014 7.302c0-1.856-.74-3.636-2.057-4.95A7.036 7.036 0 006.976.303z"/></symbol><symbol id="instagram-ic" viewBox="0 0 10 10"><path d="M9.968 2.952a3.615 3.615 0 00-.233-1.229A2.555 2.555 0 008.273.263 3.674 3.674 0 007.059.03C6.525.007 6.356 0 5 0 3.643 0 3.47 0 2.94.03a3.674 3.674 0 00-1.213.233 2.559 2.559 0 00-1.462 1.46A3.628 3.628 0 00.03 2.934C.007 3.468 0 3.637 0 4.991s0 1.527.031 2.057c.008.415.087.824.233 1.212a2.555 2.555 0 001.462 1.46c.388.15.798.235 1.214.249.535.024.704.031 2.06.031s1.53 0 2.06-.031a3.665 3.665 0 001.214-.232 2.563 2.563 0 001.462-1.46c.146-.388.225-.797.233-1.212.024-.534.031-.703.031-2.057-.001-1.354-.001-1.526-.032-2.056zm-4.972 4.6A2.564 2.564 0 012.43 4.987a2.57 2.57 0 014.38-1.811 2.56 2.56 0 01-1.815 4.375zm2.67-4.624a.599.599 0 01-.23-1.15.6.6 0 01.828.553c0 .33-.268.597-.599.597z"/></symbol><symbol id="twitter-ic" viewBox="0 0 11 9"><path d="M11 1.065a4.49 4.49 0 01-1.296.358c.466-.281.824-.726.992-1.257a4.501 4.501 0 01-1.433.552A2.247 2.247 0 007.616 0a2.265 2.265 0 00-2.257 2.272c0 .178.02.351.058.518A6.393 6.393 0 01.766.416 2.274 2.274 0 00.46 1.558c0 .788.399 1.484 1.004 1.891a2.236 2.236 0 01-1.022-.284v.029c0 1.1.778 2.019 1.81 2.228-.332.09-.68.104-1.019.038a2.261 2.261 0 002.108 1.578A4.509 4.509 0 010 7.98 6.356 6.356 0 003.46 9c4.15 0 6.42-3.462 6.42-6.465 0-.098-.002-.196-.006-.293A4.6 4.6 0 0011 1.065"/></symbol><symbol id="pagination-arrow-left" viewBox="0 0 11 8"><path fill-rule="evenodd" clip-rule="evenodd" d="M4.078 7.853L.896 4.67a.5.5 0 010-.708L4.078.782a.5.5 0 11.708.707L2.457 3.817h8.793v1H2.457l2.329 2.328a.5.5 0 11-.708.708z"/></symbol><symbol id="pagination-arrow-right" viewBox="0 0 11 8"><path fill-rule="evenodd" clip-rule="evenodd" d="M7.422 7.853l3.182-3.182a.5.5 0 000-.708L7.422.782a.5.5 0 10-.708.707l2.329 2.328H.25v1h8.793L6.714 7.145a.5.5 0 10.708.708z"/></symbol></svg>