<svg xmlns="http://www.w3.org/2000/svg"><symbol id="search-ic" viewBox="0 0 18 18"><path fill-rule="evenodd" clip-rule="evenodd" d="M3.567 8.242a4.825 4.825 0 119.65-.001 4.825 4.825 0 01-9.65 0zm4.825-6.326a6.325 6.325 0 00-6.325 6.326 6.325 6.325 0 0010.13 5.054l2.444 2.556a.75.75 0 101.084-1.037l-2.446-2.557A6.325 6.325 0 008.392 1.916z"/></symbol><symbol id="write-ic" viewBox="0 0 18 18"><path d="M14.756 2.821l.353.353c.486.487.412 1.35-.166 1.927L7.67 12.374l-2.357.862c-.296.109-.584-.032-.642-.314a.555.555 0 01.027-.305l.878-2.377 7.253-7.253c.578-.578 1.44-.652 1.927-.166zm-7.404.724a.598.598 0 010 1.195h-2.39a1.196 1.196 0 00-1.196 1.196v7.173a1.196 1.196 0 001.195 1.196h7.174a1.196 1.196 0 001.195-1.196v-2.39a.598.598 0 111.196 0v2.39a2.39 2.39 0 01-2.391 2.391H4.96a2.391 2.391 0 01-2.39-2.39V5.935a2.391 2.391 0 012.39-2.391h2.391z"/></symbol><symbol id="day-ic" viewBox="0 0 14 14"><path d="M7.5 12a.5.5 0 00-1 0v1a.5.5 0 001 0v-1zm-3.646-1.854a.502.502 0 010 .708l-.5.5a.502.502 0 01-.708-.708l.5-.5a.502.502 0 01.708 0zm6.292 0a.502.502 0 01.708 0l.499.5a.5.5 0 11-.707.708l-.5-.5a.502.502 0 010-.708zM2.971 7a4.028 4.028 0 118.057 0A4.028 4.028 0 012.97 7zM7 4.172a2.829 2.829 0 100 5.657 2.829 2.829 0 000-5.657zM1 6.5a.5.5 0 000 1h1a.5.5 0 000-1H1zm11 0a.5.5 0 000 1h1a.5.5 0 000-1h-1zM2.646 2.646a.502.502 0 01.708 0l.5.5a.502.502 0 01-.708.708l-.5-.5a.502.502 0 010-.708zm8 0a.5.5 0 01.707.708l-.499.5a.502.502 0 01-.708-.708l.5-.5zM7 .5a.5.5 0 01.5.5v1a.5.5 0 01-1 0V1A.5.5 0 017 .5z"/></symbol><symbol id="night-ic" viewBox="0 0 14 14"><path d="M9.584 3.705a4.26 4.26 0 01.508 5.995 4.26 4.26 0 01-5.995.508 3.6 3.6 0 01-.386-.375 6.378 6.378 0 003.943-2.19 6.378 6.378 0 001.495-4.256c.152.093.297.202.435.318zm.686-.813a5.303 5.303 0 00-2.495-1.165 5.305 5.305 0 01-.934 5.23 5.305 5.305 0 01-4.999 1.8c.306.85.83 1.64 1.57 2.264a5.32 5.32 0 007.493-.635 5.32 5.32 0 00-.635-7.494z"/></symbol><symbol id="facebook-ic" viewBox="0 0 6 10"><path d="M1.776 10h2.116V5.437H5.66l.267-1.775H3.892V2.526c0-.512.166-.862 1.018-.862H6V.069A17.97 17.97 0 004.419 0C2.845 0 1.776.831 1.776 2.35v1.313H0v1.775h1.776V10z"/></symbol><symbol id="pinterest-ic" viewBox="0 0 14 14"><path d="M6.976.303a7.038 7.038 0 00-4.453 1.625A6.979 6.979 0 00.866 10.67a7.016 7.016 0 003.551 3.132 6.597 6.597 0 010-2l.828-3.5a2.517 2.517 0 01-.19-1c0-.97.566-1.7 1.269-1.7a.886.886 0 01.858.626.877.877 0 01.03.374c0 .6-.381 1.5-.582 2.33a.997.997 0 00.573 1.188c.148.063.31.09.47.077 1.245 0 2.208-1.315 2.208-3.205a2.756 2.756 0 00-.837-2.07 2.776 2.776 0 00-2.098-.78 3.05 3.05 0 00-2.238.844 3.03 3.03 0 00-.933 2.196c-.005.572.17 1.13.502 1.595a.22.22 0 01.05.2c-.055.22-.176.7-.196.795-.02.095-.105.155-.235.095-.878-.41-1.425-1.685-1.425-2.715 0-2.204 1.61-4.234 4.64-4.234 2.434 0 4.33 1.73 4.33 4.044 0 2.41-1.505 4.35-3.647 4.35a1.892 1.892 0 01-1.61-.8l-.437 1.665a7.764 7.764 0 01-.873 1.835c.682.201 1.39.299 2.102.29 1.863 0 3.65-.737 4.967-2.05A6.987 6.987 0 0014 7.302c0-1.856-.74-3.636-2.057-4.95A7.036 7.036 0 006.976.303z"/></symbol><symbol id="instagram-ic" viewBox="0 0 10 10"><path d="M9.968 2.952a3.615 3.615 0 00-.233-1.229A2.555 2.555 0 008.273.263 3.674 3.674 0 007.059.03C6.525.007 6.356 0 5 0 3.643 0 3.47 0 2.94.03a3.674 3.674 0 00-1.213.233 2.559 2.559 0 00-1.462 1.46A3.628 3.628 0 00.03 2.934C.007 3.468 0 3.637 0 4.991s0 1.527.031 2.057c.008.415.087.824.233 1.212a2.555 2.555 0 001.462 1.46c.388.15.798.235 1.214.249.535.024.704.031 2.06.031s1.53 0 2.06-.031a3.665 3.665 0 001.214-.232 2.563 2.563 0 001.462-1.46c.146-.388.225-.797.233-1.212.024-.534.031-.703.031-2.057-.001-1.354-.001-1.526-.032-2.056zm-4.972 4.6A2.564 2.564 0 012.43 4.987a2.57 2.57 0 014.38-1.811 2.56 2.56 0 01-1.815 4.375zm2.67-4.624a.599.599 0 01-.23-1.15.6.6 0 01.828.553c0 .33-.268.597-.599.597z"/></symbol><symbol id="twitter-ic" viewBox="0 0 11 9"><path d="M11 1.065a4.49 4.49 0 01-1.296.358c.466-.281.824-.726.992-1.257a4.501 4.501 0 01-1.433.552A2.247 2.247 0 007.616 0a2.265 2.265 0 00-2.257 2.272c0 .178.02.351.058.518A6.393 6.393 0 01.766.416 2.274 2.274 0 00.46 1.558c0 .788.399 1.484 1.004 1.891a2.236 2.236 0 01-1.022-.284v.029c0 1.1.778 2.019 1.81 2.228-.332.09-.68.104-1.019.038a2.261 2.261 0 002.108 1.578A4.509 4.509 0 010 7.98 6.356 6.356 0 003.46 9c4.15 0 6.42-3.462 6.42-6.465 0-.098-.002-.196-.006-.293A4.6 4.6 0 0011 1.065"/></symbol><symbol id="pagination-arrow-left" viewBox="0 0 11 8"><path fill-rule="evenodd" clip-rule="evenodd" d="M4.078 7.853L.896 4.67a.5.5 0 010-.708L4.078.782a.5.5 0 11.708.707L2.457 3.817h8.793v1H2.457l2.329 2.328a.5.5 0 11-.708.708z"/></symbol><symbol id="pagination-arrow-right" viewBox="0 0 11 8"><path fill-rule="evenodd" clip-rule="evenodd" d="M7.422 7.853l3.182-3.182a.5.5 0 000-.708L7.422.782a.5.5 0 10-.708.707l2.329 2.328H.25v1h8.793L6.714 7.145a.5.5 0 10.708.708z"/></symbol></svg>