<svg xmlns="http://www.w3.org/2000/svg"><symbol id="logo" viewBox="0 0 120 28"><path d="M.859.18h70v27h-70v-27z" fill="#00AAA1"/><path d="M22.759 24.18h-4.293L9.34 9.06h-.108c.054.81.099 1.682.135 2.618.054.918.09 1.845.108 2.781v9.72H6.37V4.901h4.266l9.099 15.012h.08a247.31 247.31 0 01-.107-2.484c-.036-.936-.063-1.845-.081-2.727v-9.8h3.132v19.277zm18.305-7.345c0 2.43-.63 4.311-1.89 5.643-1.26 1.314-2.97 1.971-5.13 1.971-1.332 0-2.52-.297-3.564-.89-1.044-.595-1.863-1.459-2.457-2.593-.594-1.134-.891-2.51-.891-4.13 0-2.43.62-4.294 1.863-5.59 1.26-1.314 2.97-1.97 5.13-1.97 1.35 0 2.547.296 3.59.89 1.045.576 1.864 1.431 2.458 2.565.594 1.116.89 2.484.89 4.104zm-10.45 0c0 1.548.27 2.745.81 3.591.559.846 1.45 1.27 2.674 1.27s2.106-.424 2.646-1.27c.558-.846.837-2.043.837-3.59 0-1.549-.28-2.737-.837-3.565-.54-.828-1.431-1.242-2.673-1.242-1.206 0-2.088.414-2.646 1.242-.54.828-.81 2.016-.81 3.564zm20.176 4.887c.415 0 .82-.036 1.216-.108.414-.09.792-.189 1.134-.297v2.538c-.36.162-.828.297-1.404.405a8.445 8.445 0 01-1.81.19c-.827 0-1.583-.136-2.267-.406-.684-.288-1.224-.774-1.62-1.458-.396-.684-.594-1.638-.594-2.862V12.11h-1.971v-1.485l2.16-1.188 1.08-3.105h2.133v3.213h4.158v2.565h-4.158v7.587c0 .684.18 1.197.54 1.54.36.323.828.485 1.404.485zM62.516 9.275c1.962 0 3.51.585 4.644 1.755 1.152 1.17 1.728 2.8 1.728 4.887v1.728h-9.666c.036 1.332.405 2.367 1.107 3.105.702.72 1.674 1.08 2.916 1.08.936 0 1.782-.09 2.538-.27.756-.198 1.53-.477 2.322-.837v2.727a9.963 9.963 0 01-2.241.756c-.774.162-1.701.243-2.781.243-1.422 0-2.691-.27-3.807-.81-1.098-.558-1.962-1.395-2.592-2.51-.612-1.117-.918-2.503-.918-4.159 0-2.502.62-4.41 1.863-5.724 1.242-1.314 2.87-1.97 4.887-1.97zm0 2.511c-.918 0-1.665.297-2.241.891-.558.576-.882 1.44-.972 2.592h6.29c-.017-1.008-.278-1.836-.782-2.484-.486-.666-1.251-.999-2.295-.999z" fill="var(--color-white)"/><path d="M78.095 13.042c1.575 0 2.765.226 3.57.68.816.453 1.224 1.24 1.224 2.363 0 .702-.176 1.292-.527 1.768-.352.476-.856.77-1.513.884v.085c.442.08.844.226 1.207.442.362.204.646.504.85.9.215.386.323.896.323 1.53 0 1.1-.391 1.956-1.173 2.568-.77.612-1.83.918-3.18.918H74.44V13.042h3.655zm.289 4.947c.861 0 1.45-.136 1.768-.408.329-.272.493-.675.493-1.207 0-.544-.198-.935-.595-1.173-.385-.238-.998-.357-1.836-.357h-1.598v3.145h1.768zm-1.768 1.75v3.622h1.972c.884 0 1.496-.17 1.836-.51.351-.34.527-.794.527-1.36 0-.522-.181-.94-.544-1.258-.352-.329-.992-.493-1.921-.493h-1.87zm17.137.817c0 1.53-.397 2.714-1.19 3.553-.794.827-1.87 1.24-3.23 1.24-.839 0-1.587-.186-2.244-.56-.657-.374-1.173-.918-1.547-1.632-.374-.714-.561-1.581-.561-2.601 0-1.53.39-2.703 1.173-3.52.793-.827 1.87-1.24 3.23-1.24.85 0 1.603.187 2.26.56.658.363 1.174.902 1.548 1.616.374.702.56 1.564.56 2.584zm-6.58 0c0 .974.17 1.728.51 2.26.352.533.913.8 1.684.8.77 0 1.326-.267 1.666-.8.351-.532.527-1.286.527-2.26 0-.975-.176-1.723-.527-2.244-.34-.522-.901-.782-1.683-.782-.76 0-1.315.26-1.666.782-.34.521-.51 1.27-.51 2.244zm17.022 0c0 1.53-.396 2.714-1.19 3.553-.793.827-1.87 1.24-3.23 1.24-.838 0-1.586-.186-2.244-.56-.657-.374-1.173-.918-1.547-1.632-.374-.714-.56-1.581-.56-2.601 0-1.53.39-2.703 1.172-3.52.794-.827 1.87-1.24 3.23-1.24.85 0 1.604.187 2.261.56.658.363 1.173.902 1.547 1.616.374.702.561 1.564.561 2.584zm-6.579 0c0 .974.17 1.728.51 2.26.352.533.913.8 1.683.8.771 0 1.326-.267 1.666-.8.352-.532.527-1.286.527-2.26 0-.975-.175-1.723-.527-2.244-.34-.522-.901-.782-1.683-.782-.76 0-1.314.26-1.666.782-.34.521-.51 1.27-.51 2.244zm10.919-2.159c0 .294-.012.606-.034.935l-.068.935h.051a14.499 14.499 0 011.088-1.394l2.72-2.907h2.431l-3.689 3.978 3.927 5.236h-2.499l-2.856-3.944-1.071.884v3.06h-2.125V12.26h2.125v6.137z" fill="var(--color-min-shaft)"/><path d="M119.859 23.18a2 2 0 11-4-.001 2 2 0 014 0z" fill="#00AAA1"/></symbol><symbol id="search-ic" viewBox="0 0 18 18"><path fill-rule="evenodd" clip-rule="evenodd" d="M3.567 8.242a4.825 4.825 0 119.65-.001 4.825 4.825 0 01-9.65 0zm4.825-6.326a6.325 6.325 0 00-6.325 6.326 6.325 6.325 0 0010.13 5.054l2.444 2.556a.75.75 0 101.084-1.037l-2.446-2.557A6.325 6.325 0 008.392 1.916z"/></symbol><symbol id="write-ic" viewBox="0 0 17 17"><path d="M16.11.42l.465.46c.643.637.546 1.765-.219 2.52l-9.614 9.512-3.116 1.127c-.39.142-.772-.042-.85-.41a.718.718 0 01.036-.4l1.162-3.107L13.562.636c.764-.755 1.905-.852 2.547-.216zm-9.788.946a.798.798 0 01.559.229.781.781 0 01.171.851.781.781 0 01-.428.424.798.798 0 01-.302.059H3.16c-.42 0-.821.165-1.118.458-.296.293-.463.69-.463 1.105v9.381c0 .415.167.812.463 1.106a1.59 1.59 0 001.118.458h9.483c.419 0 .821-.165 1.117-.458.297-.294.463-.691.463-1.106v-3.127a.78.78 0 01.232-.553.795.795 0 011.117 0 .777.777 0 01.232.553v3.127a3.11 3.11 0 01-.926 2.211 3.178 3.178 0 01-2.235.916H3.16c-.838 0-1.642-.33-2.235-.916A3.11 3.11 0 010 13.874V4.491c0-.829.333-1.624.926-2.21a3.179 3.179 0 012.235-.916h3.16z"/></symbol><symbol id="day-ic" viewBox="0 0 14 14"><path d="M7.5 12a.5.5 0 00-1 0v1a.5.5 0 001 0v-1zm-3.646-1.854a.502.502 0 010 .708l-.5.5a.502.502 0 01-.708-.708l.5-.5a.502.502 0 01.708 0zm6.292 0a.502.502 0 01.708 0l.499.5a.5.5 0 11-.707.708l-.5-.5a.502.502 0 010-.708zM2.971 7a4.028 4.028 0 118.057 0A4.028 4.028 0 012.97 7zM7 4.172a2.829 2.829 0 100 5.657 2.829 2.829 0 000-5.657zM1 6.5a.5.5 0 000 1h1a.5.5 0 000-1H1zm11 0a.5.5 0 000 1h1a.5.5 0 000-1h-1zM2.646 2.646a.502.502 0 01.708 0l.5.5a.502.502 0 01-.708.708l-.5-.5a.502.502 0 010-.708zm8 0a.5.5 0 01.707.708l-.499.5a.502.502 0 01-.708-.708l.5-.5zM7 .5a.5.5 0 01.5.5v1a.5.5 0 01-1 0V1A.5.5 0 017 .5z"/></symbol><symbol id="night-ic" viewBox="0 0 14 14"><path d="M9.584 3.705a4.26 4.26 0 01.508 5.995 4.26 4.26 0 01-5.995.508 3.6 3.6 0 01-.386-.375 6.378 6.378 0 003.943-2.19 6.378 6.378 0 001.495-4.256c.152.093.297.202.435.318zm.686-.813a5.303 5.303 0 00-2.495-1.165 5.305 5.305 0 01-.934 5.23 5.305 5.305 0 01-4.999 1.8c.306.85.83 1.64 1.57 2.264a5.32 5.32 0 007.493-.635 5.32 5.32 0 00-.635-7.494z"/></symbol><symbol id="facebook-ic" viewBox="0 0 6 10"><path d="M1.776 10h2.116V5.437H5.66l.267-1.775H3.892V2.526c0-.512.166-.862 1.018-.862H6V.069A17.97 17.97 0 004.419 0C2.845 0 1.776.831 1.776 2.35v1.313H0v1.775h1.776V10z"/></symbol><symbol id="pinterest-ic" viewBox="0 0 14 14"><path d="M6.976.303a7.038 7.038 0 00-4.453 1.625A6.979 6.979 0 00.866 10.67a7.016 7.016 0 003.551 3.132 6.597 6.597 0 010-2l.828-3.5a2.517 2.517 0 01-.19-1c0-.97.566-1.7 1.269-1.7a.886.886 0 01.858.626.877.877 0 01.03.374c0 .6-.381 1.5-.582 2.33a.997.997 0 00.573 1.188c.148.063.31.09.47.077 1.245 0 2.208-1.315 2.208-3.205a2.756 2.756 0 00-.837-2.07 2.776 2.776 0 00-2.098-.78 3.05 3.05 0 00-2.238.844 3.03 3.03 0 00-.933 2.196c-.005.572.17 1.13.502 1.595a.22.22 0 01.05.2c-.055.22-.176.7-.196.795-.02.095-.105.155-.235.095-.878-.41-1.425-1.685-1.425-2.715 0-2.204 1.61-4.234 4.64-4.234 2.434 0 4.33 1.73 4.33 4.044 0 2.41-1.505 4.35-3.647 4.35a1.892 1.892 0 01-1.61-.8l-.437 1.665a7.764 7.764 0 01-.873 1.835c.682.201 1.39.299 2.102.29 1.863 0 3.65-.737 4.967-2.05A6.987 6.987 0 0014 7.302c0-1.856-.74-3.636-2.057-4.95A7.036 7.036 0 006.976.303z"/></symbol><symbol id="instagram-ic" viewBox="0 0 10 10"><path d="M9.968 2.952a3.615 3.615 0 00-.233-1.229A2.555 2.555 0 008.273.263 3.674 3.674 0 007.059.03C6.525.007 6.356 0 5 0 3.643 0 3.47 0 2.94.03a3.674 3.674 0 00-1.213.233 2.559 2.559 0 00-1.462 1.46A3.628 3.628 0 00.03 2.934C.007 3.468 0 3.637 0 4.991s0 1.527.031 2.057c.008.415.087.824.233 1.212a2.555 2.555 0 001.462 1.46c.388.15.798.235 1.214.249.535.024.704.031 2.06.031s1.53 0 2.06-.031a3.665 3.665 0 001.214-.232 2.563 2.563 0 001.462-1.46c.146-.388.225-.797.233-1.212.024-.534.031-.703.031-2.057-.001-1.354-.001-1.526-.032-2.056zm-4.972 4.6A2.564 2.564 0 012.43 4.987a2.57 2.57 0 014.38-1.811 2.56 2.56 0 01-1.815 4.375zm2.67-4.624a.599.599 0 01-.23-1.15.6.6 0 01.828.553c0 .33-.268.597-.599.597z"/></symbol><symbol id="twitter-ic" viewBox="0 0 11 9"><path d="M11 1.065a4.49 4.49 0 01-1.296.358c.466-.281.824-.726.992-1.257a4.501 4.501 0 01-1.433.552A2.247 2.247 0 007.616 0a2.265 2.265 0 00-2.257 2.272c0 .178.02.351.058.518A6.393 6.393 0 01.766.416 2.274 2.274 0 00.46 1.558c0 .788.399 1.484 1.004 1.891a2.236 2.236 0 01-1.022-.284v.029c0 1.1.778 2.019 1.81 2.228-.332.09-.68.104-1.019.038a2.261 2.261 0 002.108 1.578A4.509 4.509 0 010 7.98 6.356 6.356 0 003.46 9c4.15 0 6.42-3.462 6.42-6.465 0-.098-.002-.196-.006-.293A4.6 4.6 0 0011 1.065"/></symbol><symbol id="pagination-arrow-left" viewBox="0 0 11 8"><path fill-rule="evenodd" clip-rule="evenodd" d="M4.078 7.853L.896 4.67a.5.5 0 010-.708L4.078.782a.5.5 0 11.708.707L2.457 3.817h8.793v1H2.457l2.329 2.328a.5.5 0 11-.708.708z"/></symbol><symbol id="pagination-arrow-right" viewBox="0 0 11 8"><path fill-rule="evenodd" clip-rule="evenodd" d="M7.422 7.853l3.182-3.182a.5.5 0 000-.708L7.422.782a.5.5 0 10-.708.707l2.329 2.328H.25v1h8.793L6.714 7.145a.5.5 0 10.708.708z"/></symbol><symbol id="grammarly-logo" viewBox="0 0 144 34"><path fill-rule="evenodd" clip-rule="evenodd" d="M16.933 34c9.351 0 16.932-7.611 16.932-17S26.285 0 16.932 0C7.582 0 0 7.611 0 17s7.58 17 16.933 17zm3.35-14.709c-.7 0-1.252.628-1.142 1.367.11.555.626.924 1.178.924h1.767l1.03-.148c-1.656 2.44-4.49 3.548-7.619 3.03-2.54-.406-4.712-2.143-5.632-4.545-2.098-5.47 1.877-10.717 7.068-10.717 2.687 0 5.08 1.589 6.441 3.51v.038c.369.517 1.068.665 1.583.295.479-.332.626-.998.331-1.515a9.894 9.894 0 00-9.055-4.583c-4.932.407-8.945 4.472-9.239 9.461-.331 5.802 4.233 10.496 9.939 10.496 2.981 0 5.668-1.294 7.472-3.437l-.22 1.22v1.108c0 .555.367 1.072.92 1.183.736.148 1.361-.444 1.361-1.146v-6.541h-6.184zm22.674 4.546c0 .592.368.998.884 1.22 1.288.517 2.54.776 3.975.74 2.135 0 3.681-.444 4.712-1.48.92-.923 1.399-2.364 1.399-4.323v-7.059c0-.85-.7-1.552-1.547-1.552-.846 0-1.546.702-1.546 1.552v.074c-.846-.924-1.84-1.626-3.533-1.626-2.503 0-4.86 1.81-4.86 5.1v.037c0 3.252 2.32 5.1 4.86 5.1 1.656 0 2.65-.665 3.57-1.774v.517c0 1.96-.994 2.994-3.129 2.994a6.988 6.988 0 01-3.018-.665 1.064 1.064 0 00-.515-.111c-.663 0-1.252.554-1.252 1.256zm7.914-7.39v.036c0 1.478-1.178 2.55-2.687 2.55s-2.65-1.035-2.65-2.55v-.037c0-1.515 1.141-2.55 2.65-2.55 1.51 0 2.687 1.072 2.687 2.55z"/><path d="M57.203 11.42c-.847 0-1.546.702-1.546 1.552v8.094c0 .85.699 1.552 1.546 1.552.846 0 1.546-.702 1.546-1.552v-2.92c0-2.18.846-3.4 2.43-3.77.662-.147 1.177-.628 1.177-1.44 0-.888-.552-1.516-1.51-1.516-.92 0-1.656.96-2.097 2.033v-.48c0-.85-.7-1.553-1.546-1.553z"/><path fill-rule="evenodd" clip-rule="evenodd" d="M62.025 19.292v.037c0 2.18 1.693 3.363 3.791 3.289 1.51 0 2.577-.554 3.313-1.404v.037c0 .665.589 1.293 1.472 1.293.847 0 1.51-.628 1.51-1.478v-4.99c0-1.478-.368-2.697-1.178-3.51-.773-.776-1.988-1.22-3.681-1.22-1.473 0-2.503.222-3.497.591a1.278 1.278 0 00-.847 1.22c0 .702.59 1.257 1.288 1.257.148 0 .258 0 .442-.074.59-.185 1.289-.296 2.135-.296 1.546 0 2.356.702 2.356 1.996v.184a8.006 8.006 0 00-2.687-.443c-2.614 0-4.417 1.109-4.417 3.51zm7.104-1.22v.555c0 1.145-.994 1.921-2.43 1.921-.993 0-1.693-.48-1.693-1.33v-.037c0-.998.81-1.515 2.135-1.515.773 0 1.473.148 1.988.406z"/><path d="M75.276 11.42c-.846 0-1.546.702-1.546 1.552h.037v8.094c0 .85.7 1.552 1.546 1.552.847 0 1.546-.702 1.546-1.552v-4.694c0-1.441.7-2.217 1.877-2.217 1.141 0 1.804.739 1.804 2.217v4.694c0 .85.7 1.552 1.546 1.552.847 0 1.546-.702 1.546-1.552v-4.694c0-1.441.7-2.217 1.877-2.217 1.141 0 1.804.739 1.804 2.217v4.694c0 .85.7 1.552 1.546 1.552.847 0 1.546-.702 1.546-1.552v-5.729c0-2.623-1.362-4.028-3.68-4.028-1.473 0-2.614.628-3.572 1.737-.588-1.109-1.656-1.737-3.092-1.737-1.582 0-2.54.85-3.239 1.774v-.11c0-.85-.7-1.553-1.546-1.553zm18.332 0c-.847 0-1.547.702-1.547 1.552h.037v8.094c0 .85.7 1.552 1.546 1.552.847 0 1.546-.702 1.546-1.552v-4.694c0-1.441.7-2.217 1.878-2.217 1.14 0 1.803.739 1.803 2.217v4.694c0 .85.7 1.552 1.546 1.552.847 0 1.546-.702 1.546-1.552v-4.694c0-1.441.7-2.217 1.878-2.217 1.141 0 1.803.739 1.803 2.217v4.694c0 .85.7 1.552 1.546 1.552.847 0 1.546-.702 1.546-1.552v-5.729c0-2.623-1.362-4.028-3.681-4.028-1.472 0-2.613.628-3.57 1.737-.589-1.109-1.657-1.737-3.092-1.737-1.583 0-2.54.85-3.24 1.774v-.11c0-.85-.699-1.553-1.546-1.553z"/><path fill-rule="evenodd" clip-rule="evenodd" d="M109.767 19.292v.037c0 2.18 1.693 3.363 3.791 3.289 1.51 0 2.54-.554 3.313-1.404v.037c0 .665.589 1.293 1.473 1.293.846 0 1.509-.628 1.509-1.478v-4.99c0-1.478-.368-2.697-1.178-3.51-.773-.776-1.988-1.22-3.681-1.22-1.472 0-2.503.222-3.497.591a1.278 1.278 0 00-.847 1.22c0 .702.589 1.257 1.289 1.257.147 0 .257 0 .442-.074.588-.185 1.288-.296 2.135-.296 1.546 0 2.355.702 2.355 1.996v.184a8.002 8.002 0 00-2.687-.443c-2.613 0-4.417 1.109-4.417 3.51zm7.104-1.22v.555c0 1.145-.957 1.921-2.429 1.921-.994 0-1.693-.48-1.693-1.33v-.037c0-.998.809-1.515 2.135-1.515.773 0 1.472.148 1.987.406z"/><path d="M123.019 11.42c-.847 0-1.546.702-1.546 1.552v8.094c0 .85.699 1.552 1.546 1.552.846 0 1.546-.702 1.546-1.552v-2.92c0-2.18.846-3.4 2.429-3.77.663-.147 1.178-.628 1.178-1.44 0-.888-.552-1.516-1.509-1.516-.92 0-1.657.96-2.098 2.033v-.48c0-.85-.7-1.553-1.546-1.553zm7.656-3.991c-.847 0-1.546.702-1.546 1.552v12.085c0 .85.699 1.552 1.546 1.552.847 0 1.546-.702 1.546-1.552V8.98c0-.85-.699-1.552-1.546-1.552zm3.018 16.815c0 .776.553 1.146.994 1.293.516.185.994.296 1.694.333 1.84 0 2.76-.85 3.681-3.067l3.828-9.203c.073-.147.147-.48.147-.739 0-.813-.663-1.441-1.472-1.441-.773 0-1.215.517-1.473 1.183l-2.282 6.356-2.356-6.393c-.258-.74-.699-1.183-1.472-1.183-.884 0-1.546.591-1.546 1.478 0 .185.073.48.147.702l3.718 8.685-.111.259c-.294.554-.552.665-1.104.665-.221 0-.405-.037-.663-.11a1.515 1.515 0 00-.515-.075c-.626 0-1.215.48-1.215 1.257z"/></symbol><symbol id="unsplash-logo" viewBox="0 0 150 34"><path d="M28.674 12.628v15.89H0v-15.89h9.022v7.929H19.62v-7.93h9.055zm21.49 8.124c0 2.709-1.772 4.275-4.232 4.275-2.395 0-4.2-1.599-4.2-4.275V7.962H37.73V20.72c0 5.025 3.609 8.222 8.235 8.222 4.658 0 8.234-3.197 8.234-8.222V7.962h-4.002v12.79h-.033zm14.337-6.884c-1.542 0-3.248.652-4.134 2.153V14.26h-3.74v14.26H60.5v-8.223c0-1.665.984-2.97 2.69-2.97 1.87 0 2.658 1.24 2.658 2.84v8.32h3.87v-8.974c-.032-3.132-1.672-5.644-5.216-5.644zm14.206 6.003l-2.132-.424c-.82-.163-1.313-.587-1.313-1.272 0-.816.722-1.403 1.74-1.403 1.443 0 2 .717 2.132 1.598h3.346c-.032-1.957-1.575-4.502-5.413-4.502-3.084 0-5.348 2.12-5.348 4.666 0 1.99 1.247 3.654 4.003 4.241l1.968.425c1.116.228 1.542.75 1.542 1.403 0 .75-.689 1.403-1.968 1.403-1.542 0-2.395-.881-2.592-1.893h-3.445c.197 2.121 1.739 4.83 6.07 4.83 3.74 0 5.643-2.383 5.643-4.7.032-2.087-1.411-3.784-4.233-4.372zm20.735 1.469c0 4.307-2.723 7.505-6.758 7.505-1.969 0-3.445-.784-4.134-1.73V34h-3.871V14.26h3.74v1.761c.656-1.11 2.23-2.088 4.396-2.088 4.2 0 6.627 3.198 6.627 7.407zm-3.805.032c0-2.512-1.575-3.98-3.544-3.98-1.968 0-3.576 1.468-3.576 3.98 0 2.513 1.608 4.014 3.576 4.014 1.969 0 3.543-1.468 3.543-4.014zm26.049-7.113v14.26h-3.871v-1.763c-.656 1.142-2.165 2.088-4.134 2.088-4.035 0-6.758-3.197-6.758-7.504 0-4.242 2.427-7.407 6.594-7.407 2.165 0 3.707.979 4.396 2.088V14.26h3.773zm-3.805 7.113c0-2.512-1.608-3.98-3.577-3.98-1.968 0-3.543 1.468-3.543 3.98 0 2.546 1.575 4.014 3.543 4.014 1.969 0 3.577-1.501 3.577-4.014zm-16.634 7.114h3.871V7.962h-3.871v20.524zm43.438-14.618c-1.378 0-2.953.456-3.871 1.566V7.962h-3.872v20.524h3.872v-8.354c.098-1.566 1.05-2.773 2.69-2.773 1.87 0 2.657 1.24 2.657 2.839v8.32h3.872v-8.973c-.033-3.165-1.706-5.677-5.348-5.677zm-13.779 6.003l-2.133-.424c-.82-.163-1.312-.587-1.312-1.272 0-.816.721-1.403 1.738-1.403 1.444 0 2.002.717 2.133 1.598h3.346c-.032-1.957-1.574-4.502-5.413-4.502-3.084 0-5.348 2.12-5.348 4.666 0 1.99 1.247 3.654 4.003 4.241l1.968.425c1.116.228 1.542.75 1.542 1.403 0 .75-.689 1.403-1.968 1.403-1.542 0-2.395-.881-2.592-1.893h-3.445c.197 2.121 1.739 4.83 6.07 4.83 3.74 0 5.643-2.383 5.643-4.7.033-2.087-1.411-3.784-4.232-4.372zM19.652 0H9.022v7.962H19.62V0h.033z"/></symbol><symbol id="wordpress-logo" viewBox="0 0 170 40"><path d="M29.39 14.583c.614 1.098 1.36 2.504 1.36 4.525 0 1.405-.526 3.03-1.272 5.315l-1.622 5.49-5.92-17.702c1.009-.088 1.886-.176 1.886-.176.92-.131.789-1.405-.088-1.361 0 0-2.675.22-4.385.22-1.622 0-4.34-.22-4.34-.22-.877-.044-.965 1.318-.088 1.361 0 0 .833.132 1.71.176l2.543 7.028-3.64 10.806-5.963-17.834c1.009-.088 1.886-.176 1.886-.176.92-.131.79-1.405-.088-1.361 0 0-2.675.22-4.385.22H5.932c2.938-4.437 7.98-7.38 13.724-7.38 4.297 0 8.156 1.625 11.094 4.304h-.22c-1.622 0-2.762 1.406-2.762 2.9 0 1.238.653 2.295 1.398 3.501v.001c.075.12.15.24.224.363zM12.51 34.746c-5.482-2.68-9.253-8.302-9.253-14.804 0-2.372.483-4.656 1.403-6.72l7.85 21.524z"/><path d="M19.963 21.392l-4.955 14.32c1.491.439 3.026.659 4.648.659 1.93 0 3.727-.352 5.437-.923a.979.979 0 00-.066-.11c-.021-.033-.044-.066-.065-.11l-4.999-13.836zm14.25-7.644c0-.615-.043-1.186-.131-1.713 1.271 2.372 2.017 5.052 1.973 7.907 0 6.062-3.288 11.377-8.156 14.232l5.087-14.54c.92-2.328 1.227-4.216 1.227-5.886z"/><path fill-rule="evenodd" clip-rule="evenodd" d="M19.656.746C9.09.746.496 9.356.496 19.942c0 10.586 8.593 19.196 19.16 19.196 10.568 0 19.162-8.61 19.162-19.196C38.818 9.356 30.224.746 19.656.746zm0 37.513c-10.085 0-18.284-8.214-18.284-18.317s8.2-18.317 18.284-18.317c10.085 0 18.285 8.214 18.285 18.317s-8.2 18.317-18.285 18.317z"/><path d="M57.19 23.28l2.543-7.599c.745-2.196.394-2.811-1.974-2.811v-.747h6.972v.747c-2.324 0-2.894.57-3.815 3.25l-4.209 12.695h-.482l-3.771-11.64-3.859 11.64h-.482l-4.122-12.65c-.877-2.724-1.49-3.251-3.639-3.251v-.747h8.243v.747c-2.192 0-2.762.527-2.017 2.811l2.5 7.6 3.727-11.158h.701L57.19 23.28z"/><path fill-rule="evenodd" clip-rule="evenodd" d="M98.406 15.856h-6.665v.703c2.061 0 2.412.44 2.412 3.075v4.744c0 2.636-.35 3.119-2.412 3.119-1.578-.22-2.674-1.098-4.165-2.724l-1.71-1.844c2.28-.396 3.508-1.845 3.508-3.514 0-2.065-1.754-3.602-4.999-3.602h-6.533v.702c2.06 0 2.411.44 2.411 3.075v4.744c0 2.636-.35 3.119-2.411 3.119v.703h7.366v-.703c-2.06 0-2.412-.483-2.412-3.119v-1.317h.614l4.122 5.183h10.786c5.306 0 7.63-2.811 7.63-6.194.044-3.338-2.236-6.15-7.542-6.15zM82.84 17h1.535c1.666 0 2.412 1.142 2.412 2.503 0 1.318-.746 2.46-2.412 2.46H82.84V17zm15.654 10.103h-.263c-1.316 0-1.535-.352-1.535-2.065V17h1.798c3.858 0 4.56 2.81 4.56 5.007 0 2.24-.702 5.096-4.56 5.096zm-28.677 1.625c-4.077 0-7.41-3.031-7.41-6.677 0-3.646 3.333-6.677 7.41-6.677 4.078 0 7.41 3.031 7.41 6.677 0 3.646-3.332 6.677-7.41 6.677zm0-12.212c-3.42 0-4.603 3.075-4.603 5.49 0 2.46 1.183 5.492 4.603 5.492 3.464 0 4.648-3.031 4.648-5.491 0-2.372-1.184-5.49-4.648-5.49zm45.339 10.981v.747h-8.507v-.747c2.5 0 2.938-.615 2.938-4.348v-5.93c0-3.734-.438-4.305-2.938-4.305v-.747h7.674c3.814 0 5.919 1.977 5.919 4.612 0 2.548-2.105 4.569-5.919 4.569h-2.105v1.8c0 3.734.482 4.35 2.938 4.35zm-.789-14.012h-2.105v6.457h2.105c2.06 0 3.025-1.45 3.025-3.207s-.965-3.25-3.025-3.25zm31.394 11.245l-.176.659c-.35 1.23-.745 1.669-3.376 1.669h-.526c-1.929 0-2.28-.44-2.28-3.075v-1.67c2.894 0 3.113.264 3.113 2.197h.702v-5.579h-.702c0 1.933-.219 2.197-3.113 2.197v-4.173h2.061c2.631 0 3.025.439 3.376 1.669l.175.703h.614l-.263-3.515h-10.918v.703c2.061 0 2.412.44 2.412 3.075v4.744c0 2.416-.263 3.031-1.929 3.119-1.579-.22-2.631-1.098-4.078-2.68l-1.71-1.844c2.28-.396 3.507-1.845 3.507-3.514 0-2.065-1.753-3.602-4.998-3.602h-6.533v.702c2.06 0 2.411.44 2.411 3.075v4.744c0 2.636-.351 3.119-2.411 3.119v.703h7.366v-.703c-2.061 0-2.412-.483-2.412-3.119v-1.317h.614l4.122 5.183h15.303l.219-3.514h-.57v.044zm-19.644-2.768V17h1.535c1.666 0 2.411 1.142 2.411 2.503 0 1.318-.745 2.46-2.411 2.46h-1.535z"/><path d="M153.303 28.728c-1.491 0-2.763-.791-3.333-1.274-.175.175-.526.747-.614 1.274h-.701v-5.14h.745c.307 2.46 2.017 3.91 4.21 3.91 1.183 0 2.148-.66 2.148-1.801 0-.967-.833-1.713-2.368-2.416l-2.104-1.01c-1.491-.703-2.587-1.933-2.587-3.559 0-1.8 1.666-3.294 3.99-3.294 1.227 0 2.28.44 2.894.966.175-.131.35-.57.482-1.01h.702v4.393h-.79c-.263-1.757-1.227-3.207-3.201-3.207-1.052 0-2.017.615-2.017 1.538 0 .966.79 1.493 2.544 2.284l2.06 1.01c1.798.835 2.5 2.24 2.5 3.338 0 2.372-2.061 3.998-4.56 3.998zm11.444 0c-1.491 0-2.762-.791-3.332-1.274-.176.175-.527.747-.614 1.274h-.702v-5.14h.746c.306 2.46 2.016 3.91 4.209 3.91 1.184 0 2.148-.66 2.148-1.801 0-.967-.833-1.713-2.367-2.416l-2.105-1.01c-1.491-.703-2.587-1.933-2.587-3.559 0-1.8 1.666-3.294 3.99-3.294 1.228 0 2.28.44 2.894.966.175-.131.351-.57.482-1.01h.702v4.393h-.789c-.263-1.757-1.228-3.207-3.201-3.207-1.053 0-2.017.615-2.017 1.538 0 .966.789 1.493 2.543 2.284l2.061 1.01c1.797.835 2.499 2.24 2.499 3.338-.044 2.372-2.061 3.998-4.56 3.998z"/></symbol><symbol id="medium-logo" viewBox="0 0 194 30"><path d="M91.762 1.293l-.065.324c-1.487.323-2.263.84-2.263 2.651v21.987c.13 1.422.905 1.875 2.263 2.198h.065v.324h-10.54v-.324h.064c1.358-.323 2.134-.776 2.263-2.198V4.85L73.397 28.712h-.582L62.92 5.497v20.24c0 1.811.776 2.328 2.263 2.652h.065v.323h-6.08v-.323h.066c1.487-.324 2.263-.841 2.263-2.652V4.268c0-1.81-.776-2.328-2.263-2.651h-.065v-.324h8.924l7.695 18.042 7.696-18.042h8.277z"/><path fill-rule="evenodd" clip-rule="evenodd" d="M108.769 16.878H96.418c-.259 4.268 2.393 7.76 5.885 7.89 2.522.193 4.72-1.359 5.949-3.88l.323.129c-.711 4.72-3.492 8.277-8.342 8.277-5.496 0-8.6-4.591-8.73-10.347V17.46c.259-2.522 1.035-4.785 2.393-6.467.84-1.034 1.81-1.81 2.975-2.328.97-.517 2.392-.776 3.556-.776h.065c2.199 0 4.333.776 5.755 2.134 1.617 1.552 2.458 3.816 2.522 6.79v.065zm-8.342-7.76c-2.328 0-3.686 2.78-3.88 6.66v.065h7.049c.129-3.039-.388-5.044-1.358-6.014-.517-.452-1.099-.711-1.811-.711zm28.195 16.49c0 1.94.776 2.457 2.263 2.845l.065.324h-8.213v-3.169c-.97 2.328-2.974 3.75-5.561 3.75-4.397 0-7.307-4.009-7.307-9.958 0-3.363.97-6.208 2.78-8.342 1.746-2.07 4.139-3.169 6.79-3.169 1.294 0 2.393.259 3.298.841V5.238c0-.776-.194-1.293-.582-1.681-.517-.453-1.358-.647-2.651-.518h-.065v-.323L128.622 0v25.608zm-8.277.582c1.164 0 2.004-.517 2.392-1.487V10.476c-.452-.905-1.293-1.423-2.328-1.423-2.586 0-4.203 3.428-4.203 8.73 0 2.522.453 4.721 1.229 6.208.711 1.423 1.746 2.199 2.91 2.199z"/><path d="M135.477.194c1.875 0 3.298 1.423 3.298 3.298s-1.423 3.298-3.298 3.298c-1.876 0-3.298-1.423-3.298-3.298s1.422-3.298 3.298-3.298zm3.168 25.414c0 1.94.776 2.457 2.264 2.845l.064.324h-8.212V13.515c0-2.069-.453-2.716-2.264-2.845h-.064v-.323l8.212-2.393v17.654zm21.146 0c0 1.94.776 2.457 2.264 2.845v.324h-8.213v-3.234c-.97 2.328-3.104 3.816-5.497 3.816-2.845 0-4.656-1.294-5.367-3.816l-.129-.646a9.82 9.82 0 01-.194-1.94v-9.442c0-2.069-.453-2.716-2.264-2.845h-.064v-.323l8.212-2.393v14.873c0 2.199.97 3.428 2.781 3.428 1.099 0 2.005-.582 2.522-1.552V13.515c0-2.134-.388-2.78-1.875-2.91h-.065v-.323l7.889-2.328v17.654zM194 28.453v.324h-8.277v-14.68c0-2.328-.841-3.492-2.587-3.492-1.423 0-2.134 1.035-2.522 1.94.065.453.129.906.129 1.358v12.222c0 1.488.453 2.005 1.746 2.328h.065v.324h-7.695v-14.68c0-2.328-.906-3.492-2.587-3.492-1.358 0-2.069.97-2.393 1.746V26.19c0 1.487.453 2.005 1.746 2.328h.065v.323h-7.695v-15.39c0-2.07-.518-2.716-2.264-2.846h-.064v-.323l8.212-2.263v3.427c.841-2.199 2.781-3.492 5.238-3.492 2.781 0 4.721 1.358 5.368 3.815.84-2.328 2.974-3.815 5.561-3.815 3.492 0 5.626 2.199 5.626 5.95V25.93c0 1.423.647 2.134 2.263 2.522H194zm-179.45 1.1c8.019 0 14.55-6.532 14.55-14.615S22.569.323 14.55.323C6.531.323 0 6.79 0 14.938s6.531 14.615 14.55 14.615zm23.28-.841c4.01 0 7.243-6.143 7.243-13.774 0-7.566-3.298-13.774-7.243-13.774-4.01 0-7.243 6.143-7.243 13.774 0 7.63 3.234 13.774 7.243 13.774zm13.71-13.774c0 6.79-1.164 12.352-2.587 12.352-1.423 0-2.587-5.562-2.587-12.352S47.53 2.587 48.953 2.587c1.487 0 2.586 5.561 2.586 12.351z"/></symbol><symbol id="blogger-logo" viewBox="0 0 118 34"><path d="M13.232 11.925h3.863a1.31 1.31 0 011.312 1.308c0 .72-.59 1.308-1.312 1.308h-3.863a1.312 1.312 0 01-1.313-1.308c0-.723.59-1.308 1.313-1.308zm-.009 7.655h7.751c.685 0 1.244.549 1.244 1.231 0 .683-.559 1.243-1.244 1.243h-7.75a1.24 1.24 0 01-1.236-1.243 1.23 1.23 0 011.235-1.232z"/><path fill-rule="evenodd" clip-rule="evenodd" d="M34.103 28.903c0 2.828-2.292 5.085-5.102 5.085H5.115C2.29 33.988 0 31.731 0 28.903V5.098C0 2.284 2.29 0 5.115 0h23.886a5.105 5.105 0 015.102 5.098v23.805zM13.401 6.411c-3.765 0-6.818 3.043-6.82 6.798v7.458c0 3.755 3.055 6.795 6.82 6.795h7.341c3.768 0 6.813-3.04 6.813-6.795V15.85c0-.75-.603-1.36-1.356-1.36h-1.176a1.36 1.36 0 01-1.356-1.264l-.008-.016c0-3.755-3.053-6.798-6.82-6.798H13.4zm28.924 2.215l-1.565.001v16.788l1.155-.002 2.555-.001c3.738 0 4.884-.259 5.975-1.21.955-.808 1.473-2.154 1.473-3.67 0-2.13-1.31-3.78-3.028-3.987v-.049c1.91-.685 2.237-2.284 2.237-3.728 0-1.517-.546-2.662-1.582-3.418-1.01-.73-2.14-.728-4.046-.726h-.32l-2.854.002zm3.1 13.735c-.573 0-.955 0-1.282-.07v-4.479h1.118c1.637 0 2.947.636 2.947 2.24 0 1.673-1.31 2.309-2.783 2.309zm-.273-7.08h-1.01v-3.818c.246-.073.628-.122 1.31-.122 1.364 0 2.156.66 2.156 1.909 0 1.223-.846 2.03-2.456 2.03zm14.624 4.054c0 3.817 1.2 6.088 4.938 6.088 3.737 0 5.047-1.983 5.047-6.281 0-3.576-1.146-6.061-4.884-6.061-3.71 0-5.101 2.439-5.101 6.254zm4.965-3.464c1.473 0 1.719 1.365 1.719 3.401 0 2.344-.519 3.423-1.746 3.423-1.228 0-1.774-1.24-1.774-3.401 0-2.091.3-3.423 1.801-3.423zm16.315 8.113v-6.985c0-1.12.043-2.203.066-2.803.01-.229.016-.387.016-.449-.028-.223-.219-.332-.682-.332h-1.528c-.437 0-.491.283-.491.283l-.246 1.118c-.49-.982-1.228-1.673-2.592-1.673-3.437 0-4.501 2.458-4.501 6.338 0 3.44 1.037 5.942 4.174 5.942 1.146 0 1.719-.318 2.346-1.134h.055v.761c0 2.249-.764 2.385-2.237 2.385-.982 0-1.883-.136-2.538-.427-.109-.06-.49-.044-.6.29-.049.114-.174.535-.291.926-.08.267-.156.52-.2.652-.109.353-.109.68.164.843.873.49 2.428.734 3.628.734 1.474 0 3.274-.19 4.366-1.305 1.095-1.17 1.093-2.99 1.091-5.164zm-4.83-8.016c1.256 0 1.474 1.33 1.474 2.333v1.77c0 .645-.136 2.507-1.473 2.507-1.364 0-1.719-1.402-1.719-3.194 0-2.186.491-3.415 1.719-3.415zm16.507 8.016v-6.985c0-1.12.043-2.203.066-2.803.01-.229.016-.387.016-.449-.028-.223-.219-.332-.655-.332h-1.555c-.437 0-.491.283-.491.283l-.219 1.118c-.518-.982-1.255-1.673-2.619-1.673-3.437 0-4.501 2.458-4.501 6.338 0 3.44 1.036 5.942 4.201 5.942 1.119 0 1.719-.318 2.32-1.134h.054v.761c0 2.249-.764 2.385-2.237 2.385-.955 0-1.883-.136-2.51-.427-.137-.06-.519-.044-.628.29l-.106.356c-.12.397-.3.992-.358 1.222-.109.353-.109.68.137.843.873.49 2.428.734 3.656.734 1.445 0 3.273-.19 4.337-1.305 1.096-1.17 1.094-2.99 1.092-5.164zm-4.83-8.016c1.256 0 1.474 1.33 1.474 2.333v1.77c0 .645-.11 2.507-1.473 2.507-1.364 0-1.719-1.402-1.719-3.194 0-2.186.491-3.415 1.719-3.415zm12.305 6.727c-1.473 0-2.155-.948-2.264-2.488l5.402.025c.573 0 .654-.612.654-1.237 0-2.907-.682-5.863-4.528-5.863-4.011 0-5.157 3.293-5.157 6.273 0 3.701 1.965 6.007 5.43 6.007 1.391 0 2.646-.24 3.682-.745 0 0 .601-.237.437-.694-.054-.132-.162-.45-.274-.78-.113-.333-.23-.677-.299-.851-.109-.296-.518-.242-.737-.166l-.324.114c-1.029.363-1.151.405-2.022.405zm-.818-7.02c1.337 0 1.391 1.44 1.391 2.265h-2.946c.054-.917.272-2.265 1.555-2.265z"/><path d="M59.23 24.427c-.3-2.148-.355-2.148-1.664-2.148-.6 0-.655-.103-.655-.573V8.956a.35.35 0 00-.355-.34h-2.51c-.19 0-.327.152-.327.34v14.599c.027.894.873 1.865 1.773 1.865h2.674c.655 0 1.146-.419 1.064-.993zm52.638-11.347l.126.004c.491.005 1.61.323 1.528.927-.109.603-.382 2.186-.382 2.186s-.191.389-.546.283c-.327-.106-1.064-.316-1.473-.316-1.255 0-1.637.544-1.746 2.012-.027.245-.055.675-.055.987l.028 5.917a.35.35 0 01-.355.34h-2.783c-.191 0-.327-.152-.327-.34V13.437l2.892-.03.136 1.063h.082c1.134-1.448 2.314-1.409 2.875-1.39zm3.1-.459v1.322h.327V12.62h.41v-.315h-1.119v.315h.382zm2.619 1.322h.409v-1.637h-.464l-.354.808-.355-.808h-.436v1.637h.354v-1.085l.3.699h.273l.273-.7v1.086z"/></symbol></svg>