<svg width="150" height="34" viewBox="0 0 150 34" fill="none" xmlns="http://www.w3.org/2000/svg"><g clip-path="url(#clip0_839_17)"><path d="M28.674 12.628v15.89H0v-15.89h9.022v7.929H19.62v-7.93h9.055zm21.49 8.124c0 2.709-1.772 4.275-4.232 4.275-2.395 0-4.2-1.599-4.2-4.275V7.962H37.73V20.72c0 5.025 3.609 8.222 8.235 8.222 4.658 0 8.234-3.197 8.234-8.222V7.962h-4.002v12.79h-.033zm14.337-6.884c-1.542 0-3.248.652-4.134 2.153V14.26h-3.74v14.26H60.5v-8.223c0-1.665.984-2.97 2.69-2.97 1.87 0 2.658 1.24 2.658 2.84v8.32h3.87v-8.974c-.032-3.132-1.672-5.644-5.216-5.644zm14.206 6.003l-2.132-.424c-.82-.163-1.313-.587-1.313-1.272 0-.816.722-1.403 1.74-1.403 1.443 0 2 .717 2.132 1.598h3.346c-.032-1.957-1.575-4.502-5.413-4.502-3.084 0-5.348 2.12-5.348 4.666 0 1.99 1.247 3.654 4.003 4.241l1.968.425c1.116.228 1.542.75 1.542 1.403 0 .75-.689 1.403-1.968 1.403-1.542 0-2.395-.881-2.592-1.893h-3.445c.197 2.121 1.739 4.83 6.07 4.83 3.74 0 5.643-2.383 5.643-4.7.032-2.087-1.411-3.784-4.233-4.372zm20.735 1.469c0 4.307-2.723 7.505-6.758 7.505-1.969 0-3.445-.784-4.134-1.73V34h-3.871V14.26h3.74v1.761c.656-1.11 2.23-2.088 4.396-2.088 4.2 0 6.627 3.198 6.627 7.407zm-3.805.032c0-2.512-1.575-3.98-3.544-3.98-1.968 0-3.576 1.468-3.576 3.98 0 2.513 1.608 4.014 3.576 4.014 1.969 0 3.543-1.468 3.543-4.014zm26.049-7.113v14.26h-3.871v-1.763c-.656 1.142-2.165 2.088-4.134 2.088-4.035 0-6.758-3.197-6.758-7.504 0-4.242 2.427-7.407 6.594-7.407 2.165 0 3.707.979 4.396 2.088V14.26h3.773zm-3.805 7.113c0-2.512-1.608-3.98-3.577-3.98-1.968 0-3.543 1.468-3.543 3.98 0 2.546 1.575 4.014 3.543 4.014 1.969 0 3.577-1.501 3.577-4.014zm-16.634 7.114h3.871V7.962h-3.871v20.524zm43.438-14.618c-1.378 0-2.953.456-3.871 1.566V7.962h-3.872v20.524h3.872v-8.354c.098-1.566 1.05-2.773 2.69-2.773 1.87 0 2.657 1.24 2.657 2.839v8.32h3.872v-8.973c-.033-3.165-1.706-5.677-5.348-5.677zm-13.779 6.003l-2.133-.424c-.82-.163-1.312-.587-1.312-1.272 0-.816.721-1.403 1.738-1.403 1.444 0 2.002.717 2.133 1.598h3.346c-.032-1.957-1.574-4.502-5.413-4.502-3.084 0-5.348 2.12-5.348 4.666 0 1.99 1.247 3.654 4.003 4.241l1.968.425c1.116.228 1.542.75 1.542 1.403 0 .75-.689 1.403-1.968 1.403-1.542 0-2.395-.881-2.592-1.893h-3.445c.197 2.121 1.739 4.83 6.07 4.83 3.74 0 5.643-2.383 5.643-4.7.033-2.087-1.411-3.784-4.232-4.372zM19.652 0H9.022v7.962H19.62V0h.033z" fill="#000"/></g><defs><clipPath id="clip0_839_17"><path fill="#fff" d="M0 0h150v34H0z"/></clipPath></defs></svg>