<svg width="170" height="40" viewBox="0 0 170 40" fill="none" xmlns="http://www.w3.org/2000/svg"><g clip-path="url(#clip0_839_29)" fill="#000"><path d="M29.39 14.583c.614 1.098 1.36 2.504 1.36 4.525 0 1.405-.526 3.03-1.272 5.315l-1.622 5.49-5.92-17.702c1.009-.088 1.886-.176 1.886-.176.92-.131.789-1.405-.088-1.361 0 0-2.675.22-4.385.22-1.622 0-4.34-.22-4.34-.22-.877-.044-.965 1.318-.088 1.361 0 0 .833.132 1.71.176l2.543 7.028-3.64 10.806-5.963-17.834c1.009-.088 1.886-.176 1.886-.176.92-.131.79-1.405-.088-1.361 0 0-2.675.22-4.385.22H5.932c2.938-4.437 7.98-7.38 13.724-7.38 4.297 0 8.156 1.625 11.094 4.304h-.22c-1.622 0-2.762 1.406-2.762 2.9 0 1.238.653 2.295 1.398 3.501v.001c.075.12.15.24.224.363zM12.51 34.746c-5.482-2.68-9.253-8.302-9.253-14.804 0-2.372.483-4.656 1.403-6.72l7.85 21.524z"/><path d="M19.963 21.392l-4.955 14.32c1.491.439 3.026.659 4.648.659 1.93 0 3.727-.352 5.437-.923a.979.979 0 00-.066-.11c-.021-.033-.044-.066-.065-.11l-4.999-13.836zm14.25-7.644c0-.615-.043-1.186-.131-1.713 1.271 2.372 2.017 5.052 1.973 7.907 0 6.062-3.288 11.377-8.156 14.232l5.087-14.54c.92-2.328 1.227-4.216 1.227-5.886z"/><path fill-rule="evenodd" clip-rule="evenodd" d="M19.656.746C9.09.746.496 9.356.496 19.942c0 10.586 8.593 19.196 19.16 19.196 10.568 0 19.162-8.61 19.162-19.196C38.818 9.356 30.224.746 19.656.746zm0 37.513c-10.085 0-18.284-8.214-18.284-18.317s8.2-18.317 18.284-18.317c10.085 0 18.285 8.214 18.285 18.317s-8.2 18.317-18.285 18.317z"/><path d="M57.19 23.28l2.543-7.599c.745-2.196.394-2.811-1.974-2.811v-.747h6.972v.747c-2.324 0-2.894.57-3.815 3.25l-4.209 12.695h-.482l-3.771-11.64-3.859 11.64h-.482l-4.122-12.65c-.877-2.724-1.49-3.251-3.639-3.251v-.747h8.243v.747c-2.192 0-2.762.527-2.017 2.811l2.5 7.6 3.727-11.158h.701L57.19 23.28z"/><path fill-rule="evenodd" clip-rule="evenodd" d="M98.406 15.856h-6.665v.703c2.061 0 2.412.44 2.412 3.075v4.744c0 2.636-.35 3.119-2.412 3.119-1.578-.22-2.674-1.098-4.165-2.724l-1.71-1.844c2.28-.396 3.508-1.845 3.508-3.514 0-2.065-1.754-3.602-4.999-3.602h-6.533v.702c2.06 0 2.411.44 2.411 3.075v4.744c0 2.636-.35 3.119-2.411 3.119v.703h7.366v-.703c-2.06 0-2.412-.483-2.412-3.119v-1.317h.614l4.122 5.183h10.786c5.306 0 7.63-2.811 7.63-6.194.044-3.338-2.236-6.15-7.542-6.15zM82.84 17h1.535c1.666 0 2.412 1.142 2.412 2.503 0 1.318-.746 2.46-2.412 2.46H82.84V17zm15.654 10.103h-.263c-1.316 0-1.535-.352-1.535-2.065V17h1.798c3.858 0 4.56 2.81 4.56 5.007 0 2.24-.702 5.096-4.56 5.096zm-28.677 1.625c-4.077 0-7.41-3.031-7.41-6.677 0-3.646 3.333-6.677 7.41-6.677 4.078 0 7.41 3.031 7.41 6.677 0 3.646-3.332 6.677-7.41 6.677zm0-12.212c-3.42 0-4.603 3.075-4.603 5.49 0 2.46 1.183 5.492 4.603 5.492 3.464 0 4.648-3.031 4.648-5.491 0-2.372-1.184-5.49-4.648-5.49zm45.339 10.981v.747h-8.507v-.747c2.5 0 2.938-.615 2.938-4.348v-5.93c0-3.734-.438-4.305-2.938-4.305v-.747h7.674c3.814 0 5.919 1.977 5.919 4.612 0 2.548-2.105 4.569-5.919 4.569h-2.105v1.8c0 3.734.482 4.35 2.938 4.35zm-.789-14.012h-2.105v6.457h2.105c2.06 0 3.025-1.45 3.025-3.207s-.965-3.25-3.025-3.25zm31.394 11.245l-.176.659c-.35 1.23-.745 1.669-3.376 1.669h-.526c-1.929 0-2.28-.44-2.28-3.075v-1.67c2.894 0 3.113.264 3.113 2.197h.702v-5.579h-.702c0 1.933-.219 2.197-3.113 2.197v-4.173h2.061c2.631 0 3.025.439 3.376 1.669l.175.703h.614l-.263-3.515h-10.918v.703c2.061 0 2.412.44 2.412 3.075v4.744c0 2.416-.263 3.031-1.929 3.119-1.579-.22-2.631-1.098-4.078-2.68l-1.71-1.844c2.28-.396 3.507-1.845 3.507-3.514 0-2.065-1.753-3.602-4.998-3.602h-6.533v.702c2.06 0 2.411.44 2.411 3.075v4.744c0 2.636-.351 3.119-2.411 3.119v.703h7.366v-.703c-2.061 0-2.412-.483-2.412-3.119v-1.317h.614l4.122 5.183h15.303l.219-3.514h-.57v.044zm-19.644-2.768V17h1.535c1.666 0 2.411 1.142 2.411 2.503 0 1.318-.745 2.46-2.411 2.46h-1.535z"/><path d="M153.303 28.728c-1.491 0-2.763-.791-3.333-1.274-.175.175-.526.747-.614 1.274h-.701v-5.14h.745c.307 2.46 2.017 3.91 4.21 3.91 1.183 0 2.148-.66 2.148-1.801 0-.967-.833-1.713-2.368-2.416l-2.104-1.01c-1.491-.703-2.587-1.933-2.587-3.559 0-1.8 1.666-3.294 3.99-3.294 1.227 0 2.28.44 2.894.966.175-.131.35-.57.482-1.01h.702v4.393h-.79c-.263-1.757-1.227-3.207-3.201-3.207-1.052 0-2.017.615-2.017 1.538 0 .966.79 1.493 2.544 2.284l2.06 1.01c1.798.835 2.5 2.24 2.5 3.338 0 2.372-2.061 3.998-4.56 3.998zm11.444 0c-1.491 0-2.762-.791-3.332-1.274-.176.175-.527.747-.614 1.274h-.702v-5.14h.746c.306 2.46 2.016 3.91 4.209 3.91 1.184 0 2.148-.66 2.148-1.801 0-.967-.833-1.713-2.367-2.416l-2.105-1.01c-1.491-.703-2.587-1.933-2.587-3.559 0-1.8 1.666-3.294 3.99-3.294 1.228 0 2.28.44 2.894.966.175-.131.351-.57.482-1.01h.702v4.393h-.789c-.263-1.757-1.228-3.207-3.201-3.207-1.053 0-2.017.615-2.017 1.538 0 .966.789 1.493 2.543 2.284l2.061 1.01c1.797.835 2.499 2.24 2.499 3.338-.044 2.372-2.061 3.998-4.56 3.998z"/></g><defs><clipPath id="clip0_839_29"><path fill="#fff" d="M0 0h170v40H0z"/></clipPath></defs></svg>