<svg width="118" height="34" viewBox="0 0 118 34" fill="none" xmlns="http://www.w3.org/2000/svg">
<g clip-path="url(#clip0_839_8)">
<path d="M13.2315 11.9254H17.0947C17.8177 11.9254 18.407 12.51 18.407 13.2332C18.407 13.9538 17.8177 14.5411 17.0947 14.5411H13.2315C12.5085 14.5411 11.9192 13.9538 11.9192 13.2332C11.9192 12.51 12.5085 11.9254 13.2315 11.9254Z" fill="black"/>
<path d="M13.2233 19.5795H20.9743C21.6591 19.5795 22.2184 20.1287 22.2184 20.8112C22.2184 21.4937 21.6591 22.0538 20.9743 22.0538H13.2233C12.5386 22.0538 11.9875 21.4937 11.9875 20.8112C11.9875 20.1287 12.5386 19.5795 13.2233 19.5795Z" fill="black"/>
<path fill-rule="evenodd" clip-rule="evenodd" d="M34.103 28.9034C34.103 31.7313 31.8113 33.9881 29.0012 33.9881H5.11545C2.28899 33.9881 0 31.7313 0 28.9034V5.09821C0 2.284 2.29036 0 5.11545 0H29.0012C31.8113 0 34.103 2.28291 34.103 5.09821V28.9034ZM13.4007 6.41113C9.63571 6.41113 6.58281 9.45374 6.58008 13.2087V20.6671C6.58008 24.4221 9.63571 27.462 13.4007 27.462H20.7424C24.5101 27.462 27.5548 24.4221 27.5548 20.6671V15.8489C27.5548 15.0985 26.9519 14.4894 26.1989 14.4894H25.023C24.3027 14.4894 23.7162 13.9293 23.6671 13.2251L23.6589 13.2087C23.6589 9.45374 20.606 6.41113 16.8383 6.41113H13.4007Z" fill="black"/>
<path fill-rule="evenodd" clip-rule="evenodd" d="M42.325 8.62604C41.6972 8.6266 41.1526 8.62709 40.7598 8.62709V25.4145C41.0668 25.4145 41.4532 25.414 41.9153 25.4135C42.603 25.4127 43.4585 25.4118 44.4702 25.4118C48.2079 25.4118 49.3537 25.1534 50.445 24.2018C51.3999 23.3942 51.9183 22.0483 51.9183 20.5311C51.9183 18.4021 50.6087 16.7516 48.8899 16.5449V16.496C50.7997 15.8108 51.1271 14.212 51.1271 12.7682C51.1271 11.251 50.5814 10.1062 49.5447 9.35035C48.5359 8.6208 47.4045 8.62204 45.4994 8.62414C45.3951 8.62425 45.2885 8.62437 45.1795 8.62437C44.1887 8.62437 43.1796 8.62527 42.325 8.62604ZM45.425 22.361C44.8521 22.361 44.4702 22.361 44.1428 22.2903V17.812H45.2614C46.8983 17.812 48.2079 18.4483 48.2079 20.0525C48.2079 21.7247 46.8983 22.361 45.425 22.361ZM45.1522 15.2806H44.1428V11.4631C44.3883 11.3896 44.7703 11.3407 45.4523 11.3407C46.8165 11.3407 47.6077 12.0014 47.6077 13.2495C47.6077 14.473 46.7619 15.2806 45.1522 15.2806Z" fill="black"/>
<path fill-rule="evenodd" clip-rule="evenodd" d="M59.7756 19.3347C59.7756 23.1522 60.976 25.4226 64.7137 25.4226C68.4514 25.4226 69.761 23.4404 69.761 19.1416C69.761 15.5661 68.6151 13.0809 64.8774 13.0809C61.167 13.0809 59.7756 15.5199 59.7756 19.3347ZM64.741 15.8706C66.2143 15.8706 66.4598 17.2356 66.4598 19.2721C66.4598 21.616 65.9414 22.6954 64.7137 22.6954C63.486 22.6954 62.9404 21.4555 62.9404 19.2939C62.9404 17.203 63.2405 15.8706 64.741 15.8706Z" fill="black"/>
<path fill-rule="evenodd" clip-rule="evenodd" d="M81.0561 23.9836C81.056 23.884 81.0559 23.7836 81.0559 23.6824V16.999C81.0559 15.8795 81.0988 14.7955 81.1224 14.1964C81.1315 13.9675 81.1377 13.8094 81.1377 13.747C81.1105 13.5241 80.9195 13.4153 80.4557 13.4153H78.9279C78.4913 13.4153 78.4368 13.6981 78.4368 13.6981L78.1912 14.8156C77.7002 13.8341 76.9635 13.1434 75.5994 13.1434C72.1618 13.1434 71.0978 15.6014 71.0978 19.4815C71.0978 22.9211 72.1345 25.4226 75.272 25.4226C76.4179 25.4226 76.9908 25.1045 77.6183 24.2888H77.6729V25.0501C77.6729 27.2988 76.909 27.4347 75.4357 27.4347C74.4536 27.4347 73.5532 27.2988 72.8985 27.0078C72.7893 26.948 72.4074 26.9643 72.2982 27.2988C72.2495 27.412 72.1236 27.8331 72.0066 28.2244C71.9269 28.4909 71.8514 28.7436 71.8072 28.8758C71.698 29.2293 71.698 29.5556 71.9708 29.7187C72.8439 30.2081 74.399 30.4529 75.5994 30.4529C77.0727 30.4529 78.8733 30.2625 79.9646 29.1477C81.0603 27.9777 81.0584 26.1589 81.0561 23.9836ZM76.2269 15.9685C77.4819 15.9685 77.7002 17.2981 77.7002 18.3014V20.0715C77.7002 20.716 77.5637 22.5785 76.2269 22.5785C74.8628 22.5785 74.5081 21.1755 74.5081 19.3836C74.5081 17.1975 74.9992 15.9685 76.2269 15.9685Z" fill="black"/>
<path fill-rule="evenodd" clip-rule="evenodd" d="M92.733 23.9836C92.7329 23.884 92.7328 23.7836 92.7328 23.6824V16.999C92.7328 15.8795 92.7756 14.7955 92.7993 14.1964C92.8084 13.9675 92.8146 13.8094 92.8146 13.747C92.7873 13.5241 92.5964 13.4153 92.1598 13.4153H90.6047C90.1682 13.4153 90.1137 13.6981 90.1137 13.6981L89.8954 14.8156C89.377 13.8341 88.6404 13.1434 87.2763 13.1434C83.8387 13.1434 82.7747 15.6014 82.7747 19.4815C82.7747 22.9211 83.8114 25.4226 86.9762 25.4226C88.0948 25.4226 88.695 25.1045 89.2952 24.2888H89.3498V25.0501C89.3498 27.2988 88.5858 27.4347 87.1126 27.4347C86.1577 27.4347 85.2301 27.2988 84.6026 27.0078C84.4662 26.948 84.0842 26.9643 83.9751 27.2988C83.959 27.355 83.9191 27.4871 83.8688 27.6537C83.7486 28.0514 83.569 28.6459 83.5113 28.8758C83.4022 29.2293 83.4022 29.5556 83.6477 29.7187C84.5208 30.2081 86.0759 30.4529 87.3036 30.4529C88.7495 30.4529 90.5775 30.2625 91.6415 29.1477C92.7371 27.9777 92.7352 26.1589 92.733 23.9836ZM87.9038 15.9685C89.1588 15.9685 89.377 17.2981 89.377 18.3014V20.0715C89.377 20.716 89.2679 22.5785 87.9038 22.5785C86.5397 22.5785 86.185 21.1755 86.185 19.3836C86.185 17.1975 86.6761 15.9685 87.9038 15.9685Z" fill="black"/>
<path fill-rule="evenodd" clip-rule="evenodd" d="M100.208 22.6954C98.7349 22.6954 98.0528 21.7465 97.9437 20.2075L103.346 20.232C103.919 20.232 104 19.6202 104 18.9948C104 16.0881 103.318 13.1325 99.4715 13.1325C95.461 13.1325 94.3152 16.4253 94.3152 19.4054C94.3152 23.106 96.2795 25.4118 99.7444 25.4118C101.136 25.4118 102.391 25.1725 103.427 24.6667C103.427 24.6667 104.028 24.4302 103.864 23.9734C103.81 23.841 103.702 23.5229 103.59 23.1939C103.477 22.8604 103.36 22.5158 103.291 22.3419C103.182 22.0456 102.773 22.1 102.554 22.1761C102.437 22.2172 102.329 22.2552 102.23 22.2901C101.201 22.6525 101.079 22.6954 100.208 22.6954ZM99.3897 15.6749C100.727 15.6749 100.781 17.1159 100.781 17.9398H97.8346C97.8892 17.0235 98.1074 15.6749 99.3897 15.6749Z" fill="black"/>
<path d="M59.23 24.4275C58.9299 22.2794 58.8753 22.2794 57.5657 22.2794C56.9655 22.2794 56.911 22.1761 56.911 21.7057V8.95609C56.911 8.76848 56.7473 8.61621 56.5563 8.61621H54.0463C53.8553 8.61621 53.7189 8.76848 53.7189 8.95609V23.5546C53.7462 24.4492 54.5919 25.4199 55.4923 25.4199H58.1659C58.8207 25.4199 59.3118 25.0012 59.23 24.4275Z" fill="black"/>
<path d="M111.868 13.0802C111.914 13.0818 111.957 13.0832 111.994 13.0836C112.485 13.089 113.604 13.4072 113.522 14.0108C113.413 14.6144 113.14 16.1969 113.14 16.1969C113.14 16.1969 112.949 16.5857 112.594 16.4797C112.267 16.3736 111.53 16.1643 111.121 16.1643C109.866 16.1643 109.484 16.7081 109.375 18.1764C109.348 18.4211 109.32 18.8507 109.32 19.1634L109.348 25.08C109.348 25.2676 109.184 25.4199 108.993 25.4199H106.21C106.019 25.4199 105.883 25.2676 105.883 25.08V13.4371L108.775 13.4072L108.911 14.4703H108.993C110.127 13.0216 111.307 13.0613 111.868 13.0802Z" fill="black"/>
<path d="M114.968 12.6214V13.9428H115.295V12.6214H115.705V12.306H114.586V12.6214H114.968Z" fill="black"/>
<path d="M117.587 13.9428H117.996V12.306H117.532L117.178 13.1135L116.823 12.306H116.387V13.9428H116.741V12.8579L117.041 13.5567H117.314L117.587 12.8579V13.9428Z" fill="black"/>
</g>
<defs>
<clipPath id="clip0_839_8">
<rect width="118" height="34" fill="white"/>
</clipPath>
</defs>
</svg>
