<svg width="12" height="12" viewBox="0 0 12 12" fill="none" xmlns="http://www.w3.org/2000/svg">
<g clip-path="url(#clip0_601_7)">
<path d="M2.99998 5.4H4.19998V6.6H2.99998V5.4ZM11.4 2.4V10.8C11.4 11.46 10.86 12 10.2 12H1.79998C1.48172 12 1.17649 11.8736 0.951447 11.6485C0.726404 11.4235 0.599976 11.1183 0.599976 10.8L0.605976 2.4C0.605976 1.74 1.13398 1.2 1.79998 1.2H2.39998V0H3.59998V1.2H8.39998V0H9.59997V1.2H10.2C10.86 1.2 11.4 1.74 11.4 2.4ZM1.79998 3.6H10.2V2.4H1.79998V3.6ZM10.2 10.8V4.8H1.79998V10.8H10.2ZM7.79998 6.6H8.99998V5.4H7.79998V6.6ZM5.39998 6.6H6.59998V5.4H5.39998V6.6Z" fill="#555555"/>
</g>
<defs>
<clipPath id="clip0_601_7">
<rect width="12" height="12" fill="white"/>
</clipPath>
</defs>
</svg>
