<svg width="12" height="12" viewBox="0 0 12 12" fill="none" xmlns="http://www.w3.org/2000/svg">
<g clip-path="url(#clip0_601_15)">
<path d="M5.40002 3H6.60002V5.7516L8.22422 7.3758L7.37582 8.2242L5.40002 6.2484V3Z" />
<path fill-rule="evenodd" clip-rule="evenodd" d="M0 6C0 2.6916 2.6916 0 6 0C9.3084 0 12 2.6916 12 6C12 9.3084 9.3084 12 6 12C2.6916 12 0 9.3084 0 6ZM1.2 6C1.2 8.6466 3.3534 10.8 6 10.8C8.6466 10.8 10.8 8.6466 10.8 6C10.8 3.3534 8.6466 1.2 6 1.2C3.3534 1.2 1.2 3.3534 1.2 6Z" />
</g>
<defs>
<clipPath id="clip0_601_15">
<rect width="12" height="12" fill="white"/>
</clipPath>
</defs>
</svg>
