<svg width="144" height="34" viewBox="0 0 144 34" fill="none" xmlns="http://www.w3.org/2000/svg">
<g clip-path="url(#clip0_839_12)">
<path fill-rule="evenodd" clip-rule="evenodd" d="M16.9325 34C26.2841 34 33.865 26.3888 33.865 17C33.865 7.61116 26.2841 0 16.9325 0C7.58095 0 0 7.61116 0 17C0 26.3888 7.58095 34 16.9325 34ZM20.2824 19.291C19.583 19.291 19.0308 19.9192 19.1413 20.6584C19.2517 21.2127 19.767 21.5823 20.3192 21.5823H22.086L23.1167 21.4344C21.4603 23.8736 18.6259 24.9823 15.4971 24.4649C12.9572 24.0584 10.7854 22.3214 9.86518 19.9192C7.76702 14.4497 11.7425 9.20183 16.9327 9.20183C19.6198 9.20183 22.0124 10.791 23.3744 12.7127V12.7497C23.7425 13.2671 24.4419 13.4149 24.9572 13.0453C25.4357 12.7127 25.583 12.0475 25.2885 11.5301C23.4112 8.57357 20.0247 6.68879 16.2333 6.94749C11.3008 7.35401 7.28849 11.4192 6.99401 16.4084C6.66272 22.2105 11.2271 26.904 16.9327 26.904C19.9143 26.904 22.6014 25.6105 24.4051 23.4671L24.1842 24.6866V25.7953C24.1842 26.3497 24.5523 26.8671 25.1044 26.9779C25.8406 27.1257 26.4664 26.5344 26.4664 25.8323V19.291H20.2824Z" fill="black"/>
<path fill-rule="evenodd" clip-rule="evenodd" d="M42.9572 23.8374C42.9572 24.4287 43.3253 24.8352 43.8407 25.057C45.129 25.5744 46.3805 25.8331 47.8161 25.7961C49.9511 25.7961 51.4971 25.3526 52.5278 24.3178C53.448 23.3939 53.9266 21.9526 53.9266 19.9939V12.9352C53.9266 12.0852 53.2272 11.3831 52.3805 11.3831C51.5339 11.3831 50.8345 12.0852 50.8345 12.9352V13.0091C49.9879 12.0852 48.994 11.3831 47.3008 11.3831C44.7977 11.3831 42.4419 13.1939 42.4419 16.4831V16.52C42.4419 19.7722 44.7609 21.62 47.3008 21.62C48.9572 21.62 49.9511 20.9548 50.8713 19.8461V20.3635C50.8713 22.3222 49.8775 23.357 47.7425 23.357C46.5646 23.357 45.6075 23.0983 44.7241 22.6918C44.5769 22.6178 44.4296 22.5809 44.2088 22.5809C43.5462 22.5809 42.9572 23.1352 42.9572 23.8374ZM50.8713 16.4461V16.4831C50.8713 17.9613 49.6934 19.0331 48.1842 19.0331C46.675 19.0331 45.5339 17.9983 45.5339 16.4831V16.4461C45.5339 14.9309 46.675 13.8961 48.1842 13.8961C49.6934 13.8961 50.8713 14.9678 50.8713 16.4461Z" fill="black"/>
<path d="M57.2026 11.42C56.356 11.42 55.6566 12.1222 55.6566 12.9722V21.0657C55.6566 21.9157 56.356 22.6178 57.2026 22.6178C58.0493 22.6178 58.7486 21.9157 58.7486 21.0657V18.1461C58.7486 15.9657 59.5953 14.7461 61.1781 14.3765C61.8407 14.2287 62.356 13.7483 62.356 12.9352C62.356 12.0483 61.8039 11.42 60.8468 11.42C59.9266 11.42 59.1904 12.3809 58.7486 13.4526V12.9722C58.7486 12.1222 58.0493 11.42 57.2026 11.42Z" fill="black"/>
<path fill-rule="evenodd" clip-rule="evenodd" d="M62.0247 19.2918V19.3287C62.0247 21.5091 63.718 22.6918 65.8161 22.6178C67.3253 22.6178 68.3928 22.0635 69.129 21.2135V21.2505C69.129 21.9157 69.718 22.5439 70.6014 22.5439C71.448 22.5439 72.1106 21.9157 72.1106 21.0657V16.0765C72.1106 14.5983 71.7425 13.3787 70.9327 12.5657C70.1597 11.7896 68.945 11.3461 67.2517 11.3461C65.7793 11.3461 64.7486 11.5678 63.7548 11.9374C63.2394 12.1222 62.9081 12.6026 62.9081 13.157C62.9081 13.8591 63.4971 14.4135 64.1965 14.4135C64.3437 14.4135 64.4542 14.4135 64.6382 14.3396C65.2272 14.1548 65.9266 14.0439 66.7732 14.0439C68.3192 14.0439 69.129 14.7461 69.129 16.0396V16.2244C68.356 15.9657 67.5462 15.7809 66.4419 15.7809C63.8284 15.7809 62.0247 16.8896 62.0247 19.2918ZM69.129 18.0722V18.6265C69.129 19.7722 68.1351 20.5483 66.6996 20.5483C65.7057 20.5483 65.0063 20.0678 65.0063 19.2178V19.1809C65.0063 18.1831 65.8161 17.6657 67.1413 17.6657C67.9143 17.6657 68.6137 17.8135 69.129 18.0722Z" fill="black"/>
<path d="M75.2762 11.42C74.4296 11.42 73.7302 12.1222 73.7302 12.9722H73.767V21.0657C73.767 21.9157 74.4664 22.6178 75.3131 22.6178C76.1597 22.6178 76.8591 21.9157 76.8591 21.0657V16.3722C76.8591 14.9309 77.5585 14.1548 78.7364 14.1548C79.8775 14.1548 80.5401 14.8939 80.5401 16.3722V21.0657C80.5401 21.9157 81.2394 22.6178 82.0861 22.6178C82.9327 22.6178 83.6321 21.9157 83.6321 21.0657V16.3722C83.6321 14.9309 84.3315 14.1548 85.5094 14.1548C86.6505 14.1548 87.3131 14.8939 87.3131 16.3722V21.0657C87.3131 21.9157 88.0124 22.6178 88.8591 22.6178C89.7057 22.6178 90.4051 21.9157 90.4051 21.0657V15.3374C90.4051 12.7135 89.0431 11.3091 86.7241 11.3091C85.2517 11.3091 84.1106 11.9374 83.1535 13.0461C82.5646 11.9374 81.4971 11.3091 80.0615 11.3091C78.4787 11.3091 77.5216 12.1591 76.8223 13.0831V12.9722C76.8223 12.1222 76.1229 11.42 75.2762 11.42Z" fill="black"/>
<path d="M93.6075 11.42C92.7609 11.42 92.0615 12.1222 92.0615 12.9722H92.0983V21.0657C92.0983 21.9157 92.7977 22.6178 93.6443 22.6178C94.491 22.6178 95.1904 21.9157 95.1904 21.0657V16.3722C95.1904 14.9309 95.8897 14.1548 97.0677 14.1548C98.2088 14.1548 98.8713 14.8939 98.8713 16.3722V21.0657C98.8713 21.9157 99.5707 22.6178 100.417 22.6178C101.264 22.6178 101.963 21.9157 101.963 21.0657V16.3722C101.963 14.9309 102.663 14.1548 103.841 14.1548C104.982 14.1548 105.644 14.8939 105.644 16.3722V21.0657C105.644 21.9157 106.344 22.6178 107.19 22.6178C108.037 22.6178 108.736 21.9157 108.736 21.0657V15.3374C108.736 12.7135 107.374 11.3091 105.055 11.3091C103.583 11.3091 102.442 11.9374 101.485 13.0461C100.896 11.9374 99.8284 11.3091 98.3928 11.3091C96.81 11.3091 95.8529 12.1591 95.1535 13.0831V12.9722C95.1535 12.1222 94.4542 11.42 93.6075 11.42Z" fill="black"/>
<path fill-rule="evenodd" clip-rule="evenodd" d="M109.767 19.2918V19.3287C109.767 21.5091 111.46 22.6918 113.558 22.6178C115.068 22.6178 116.098 22.0635 116.871 21.2135V21.2505C116.871 21.9157 117.46 22.5439 118.344 22.5439C119.19 22.5439 119.853 21.9157 119.853 21.0657V16.0765C119.853 14.5983 119.485 13.3787 118.675 12.5657C117.902 11.7896 116.687 11.3461 114.994 11.3461C113.522 11.3461 112.491 11.5678 111.497 11.9374C110.982 12.1222 110.65 12.6026 110.65 13.157C110.65 13.8591 111.239 14.4135 111.939 14.4135C112.086 14.4135 112.196 14.4135 112.381 14.3396C112.969 14.1548 113.669 14.0439 114.516 14.0439C116.062 14.0439 116.871 14.7461 116.871 16.0396V16.2244C116.098 15.9657 115.289 15.7809 114.184 15.7809C111.571 15.7809 109.767 16.8896 109.767 19.2918ZM116.871 18.0722V18.6265C116.871 19.7722 115.914 20.5483 114.442 20.5483C113.448 20.5483 112.749 20.0678 112.749 19.2178V19.1809C112.749 18.1831 113.558 17.6657 114.884 17.6657C115.657 17.6657 116.356 17.8135 116.871 18.0722Z" fill="black"/>
<path d="M123.019 11.42C122.172 11.42 121.473 12.1222 121.473 12.9722V21.0657C121.473 21.9157 122.172 22.6178 123.019 22.6178C123.865 22.6178 124.565 21.9157 124.565 21.0657V18.1461C124.565 15.9657 125.411 14.7461 126.994 14.3765C127.657 14.2287 128.172 13.7483 128.172 12.9352C128.172 12.0483 127.62 11.42 126.663 11.42C125.743 11.42 125.006 12.3809 124.565 13.4526V12.9722C124.565 12.1222 123.865 11.42 123.019 11.42Z" fill="black"/>
<path d="M130.675 7.42871C129.828 7.42871 129.129 8.13088 129.129 8.98088V21.0657C129.129 21.9157 129.828 22.6178 130.675 22.6178C131.522 22.6178 132.221 21.9157 132.221 21.0657V8.98088C132.221 8.13088 131.522 7.42871 130.675 7.42871Z" fill="black"/>
<path d="M133.693 24.2439C133.693 25.02 134.246 25.3896 134.687 25.5374C135.203 25.7222 135.681 25.8331 136.381 25.87C138.221 25.87 139.141 25.02 140.062 22.8026L143.89 13.6004C143.963 13.4526 144.037 13.12 144.037 12.8613C144.037 12.0483 143.374 11.42 142.565 11.42C141.792 11.42 141.35 11.9374 141.092 12.6026L138.81 18.9591L136.454 12.5657C136.196 11.8265 135.755 11.3831 134.982 11.3831C134.098 11.3831 133.436 11.9744 133.436 12.8613C133.436 13.0461 133.509 13.3418 133.583 13.5635L137.301 22.2483L137.19 22.507C136.896 23.0613 136.638 23.1722 136.086 23.1722C135.865 23.1722 135.681 23.1352 135.423 23.0613C135.313 23.0244 135.166 22.9874 134.908 22.9874C134.282 22.9874 133.693 23.4678 133.693 24.2439Z" fill="black"/>
</g>
<defs>
<clipPath id="clip0_839_12">
<rect width="144" height="34" fill="white"/>
</clipPath>
</defs>
</svg>
