<svg width="16" height="16" viewBox="0 0 16 16" fill="none" xmlns="http://www.w3.org/2000/svg">
<path d="M12.6664 4.79282C12.4633 4.79282 12.2647 4.73259 12.0959 4.61974C11.927 4.50689 11.7953 4.3465 11.7176 4.15885C11.6399 3.97119 11.6195 3.7647 11.6592 3.56548C11.6988 3.36627 11.7966 3.18328 11.9402 3.03965C12.0839 2.89603 12.2668 2.79822 12.4661 2.75859C12.6653 2.71897 12.8718 2.7393 13.0594 2.81703C13.2471 2.89476 13.4075 3.02639 13.5203 3.19528C13.6332 3.36416 13.6934 3.56272 13.6934 3.76584C13.6937 3.90078 13.6673 4.03446 13.6158 4.15919C13.5643 4.28392 13.4887 4.39725 13.3932 4.49267C13.2978 4.58809 13.1845 4.66373 13.0598 4.71523C12.935 4.76674 12.8014 4.79311 12.6664 4.79282Z" fill="#FDF7F4"/>
<path d="M8.2162 5.47699C8.75787 5.47699 9.28738 5.63762 9.73776 5.93855C10.1881 6.23949 10.5392 6.66722 10.7465 7.16766C10.9538 7.66809 11.008 8.21876 10.9023 8.75002C10.7966 9.28129 10.5358 9.76928 10.1528 10.1523C9.76976 10.5353 9.28177 10.7962 8.7505 10.9018C8.21924 11.0075 7.66857 10.9533 7.16814 10.746C6.6677 10.5387 6.23997 10.1877 5.93903 9.73728C5.6381 9.2869 5.47747 8.75739 5.47747 8.21572C5.47825 7.48961 5.76704 6.79345 6.28049 6.28001C6.79393 5.76656 7.49009 5.47777 8.2162 5.47699ZM8.2162 4.10781C7.40374 4.10781 6.60951 4.34873 5.93397 4.80012C5.25843 5.2515 4.7319 5.89307 4.42099 6.64369C4.11007 7.39432 4.02872 8.22028 4.18722 9.01714C4.34573 9.814 4.73697 10.546 5.31147 11.1205C5.88597 11.695 6.61793 12.0862 7.41479 12.2447C8.21165 12.4032 9.03761 12.3219 9.78823 12.0109C10.5389 11.7 11.1804 11.1735 11.6318 10.498C12.0832 9.82242 12.3241 9.02819 12.3241 8.21572C12.3241 7.12624 11.8913 6.08137 11.1209 5.31099C10.3506 4.54061 9.30569 4.10781 8.2162 4.10781Z" fill="#FDF7F4"/>
<path d="M11.3332 1.33321C12.2165 1.33585 13.0629 1.68791 13.6875 2.31251C14.3121 2.9371 14.6641 3.78348 14.6668 4.66679V11.3332C14.6641 12.2165 14.3121 13.0629 13.6875 13.6875C13.0629 14.3121 12.2165 14.6641 11.3332 14.6668H4.66679C3.78348 14.6641 2.9371 14.3121 2.31251 13.6875C1.68791 13.0629 1.33585 12.2165 1.33321 11.3332V4.66679C1.33585 3.78348 1.68791 2.9371 2.31251 2.31251C2.9371 1.68791 3.78348 1.33585 4.66679 1.33321H11.3332ZM11.3332 0H4.66679C2.1 0 0 2.1 0 4.66679V11.3332C0 13.9 2.1 16 4.66679 16H11.3332C13.9 16 16 13.9 16 11.3332V4.66679C16 2.1 13.9 0 11.3332 0Z" fill="#FDF7F4"/>
</svg>
