<svg width="120" height="28" viewBox="0 0 120 28" fill="none" xmlns="http://www.w3.org/2000/svg">
<path d="M0.858765 0.179688H70.8588V27.1797H0.858765V0.179688Z" fill="#00AAA1"/>
<path d="M22.7588 24.1794H18.4658L9.33975 9.05937H9.23175C9.28575 9.86937 9.33075 10.7424 9.36675 11.6784C9.42075 12.5964 9.45675 13.5234 9.47475 14.4594V24.1794H6.36975V4.90137H10.6358L19.7348 19.9134H19.8158C19.7798 19.1934 19.7438 18.3654 19.7078 17.4294C19.6718 16.4934 19.6448 15.5844 19.6268 14.7024V4.90137H22.7588V24.1794Z" fill="white"/>
<path d="M41.0639 16.8354C41.0639 19.2654 40.4339 21.1464 39.1739 22.4784C37.9139 23.7924 36.2039 24.4494 34.0439 24.4494C32.7119 24.4494 31.5239 24.1524 30.4799 23.5584C29.4359 22.9644 28.6169 22.1004 28.0229 20.9664C27.4289 19.8324 27.1319 18.4554 27.1319 16.8354C27.1319 14.4054 27.7529 12.5424 28.9949 11.2464C30.2549 9.93237 31.9649 9.27537 34.1249 9.27537C35.4749 9.27537 36.6719 9.57237 37.7159 10.1664C38.7599 10.7424 39.5789 11.5974 40.1729 12.7314C40.7669 13.8474 41.0639 15.2154 41.0639 16.8354ZM30.6149 16.8354C30.6149 18.3834 30.8849 19.5804 31.4249 20.4264C31.9829 21.2724 32.8739 21.6954 34.0979 21.6954C35.3219 21.6954 36.2039 21.2724 36.7439 20.4264C37.3019 19.5804 37.5809 18.3834 37.5809 16.8354C37.5809 15.2874 37.3019 14.0994 36.7439 13.2714C36.2039 12.4434 35.3129 12.0294 34.0709 12.0294C32.8649 12.0294 31.9829 12.4434 31.4249 13.2714C30.8849 14.0994 30.6149 15.2874 30.6149 16.8354Z" fill="white"/>
<path d="M50.7909 21.7224C51.2049 21.7224 51.6099 21.6864 52.0059 21.6144C52.4199 21.5244 52.7979 21.4254 53.1399 21.3174V23.8554C52.7799 24.0174 52.3119 24.1524 51.7359 24.2604C51.1599 24.3864 50.5569 24.4494 49.9269 24.4494C49.0989 24.4494 48.3429 24.3144 47.6589 24.0444C46.9749 23.7564 46.4349 23.2704 46.0389 22.5864C45.6429 21.9024 45.4449 20.9484 45.4449 19.7244V12.1104H43.4739V10.6254L45.6339 9.43737L46.7139 6.33237H48.8469V9.54537H53.0049V12.1104H48.8469V19.6974C48.8469 20.3814 49.0269 20.8944 49.3869 21.2364C49.7469 21.5604 50.2149 21.7224 50.7909 21.7224Z" fill="white"/>
<path d="M62.5156 9.27537C64.4776 9.27537 66.0256 9.86037 67.1596 11.0304C68.3116 12.2004 68.8876 13.8294 68.8876 15.9174V17.6454H59.2216C59.2576 18.9774 59.6266 20.0124 60.3286 20.7504C61.0306 21.4704 62.0026 21.8304 63.2446 21.8304C64.1806 21.8304 65.0266 21.7404 65.7826 21.5604C66.5386 21.3624 67.3126 21.0834 68.1046 20.7234V23.4504C67.3846 23.7924 66.6376 24.0444 65.8636 24.2064C65.0896 24.3684 64.1626 24.4494 63.0826 24.4494C61.6606 24.4494 60.3916 24.1794 59.2756 23.6394C58.1776 23.0814 57.3136 22.2444 56.6836 21.1284C56.0716 20.0124 55.7656 18.6264 55.7656 16.9704C55.7656 14.4684 56.3866 12.5604 57.6286 11.2464C58.8706 9.93237 60.4996 9.27537 62.5156 9.27537ZM62.5156 11.7864C61.5976 11.7864 60.8506 12.0834 60.2746 12.6774C59.7166 13.2534 59.3926 14.1174 59.3026 15.2694H65.5936C65.5756 14.2614 65.3146 13.4334 64.8106 12.7854C64.3246 12.1194 63.5596 11.7864 62.5156 11.7864Z" fill="white"/>
<path d="M78.0948 13.0418C79.6702 13.0418 80.8602 13.2684 81.6648 13.7218C82.4808 14.1751 82.8888 14.9628 82.8888 16.0848C82.8888 16.7874 82.7132 17.3768 82.3618 17.8528C82.0105 18.3288 81.5062 18.6234 80.8488 18.7368V18.8218C81.2908 18.9011 81.6932 19.0484 82.0558 19.2638C82.4185 19.4678 82.7018 19.7681 82.9058 20.1648C83.1212 20.5501 83.2288 21.0601 83.2288 21.6948C83.2288 22.7941 82.8378 23.6498 82.0558 24.2618C81.2852 24.8738 80.2255 25.1798 78.8768 25.1798H74.4398V13.0418H78.0948ZM78.3838 17.9888C79.2452 17.9888 79.8345 17.8528 80.1518 17.5808C80.4805 17.3088 80.6448 16.9064 80.6448 16.3738C80.6448 15.8298 80.4465 15.4388 80.0498 15.2008C79.6645 14.9628 79.0525 14.8438 78.2138 14.8438H76.6158V17.9888H78.3838ZM76.6158 19.7398V23.3608H78.5878C79.4718 23.3608 80.0838 23.1908 80.4238 22.8508C80.7752 22.5108 80.9508 22.0574 80.9508 21.4908C80.9508 20.9694 80.7695 20.5501 80.4068 20.2328C80.0555 19.9041 79.4152 19.7398 78.4858 19.7398H76.6158Z" fill="#222222"/>
<path d="M93.7529 20.5558C93.7529 22.0858 93.3562 23.2701 92.5629 24.1088C91.7695 24.9361 90.6929 25.3498 89.3329 25.3498C88.4942 25.3498 87.7462 25.1628 87.0889 24.7888C86.4315 24.4148 85.9159 23.8708 85.5419 23.1568C85.1679 22.4428 84.9809 21.5758 84.9809 20.5558C84.9809 19.0258 85.3719 17.8528 86.1539 17.0368C86.9472 16.2094 88.0239 15.7958 89.3839 15.7958C90.2339 15.7958 90.9875 15.9828 91.6449 16.3568C92.3022 16.7194 92.8179 17.2578 93.1919 17.9718C93.5659 18.6744 93.7529 19.5358 93.7529 20.5558ZM87.1739 20.5558C87.1739 21.5304 87.3439 22.2841 87.6839 22.8168C88.0352 23.3494 88.5962 23.6158 89.3669 23.6158C90.1375 23.6158 90.6929 23.3494 91.0329 22.8168C91.3842 22.2841 91.5599 21.5304 91.5599 20.5558C91.5599 19.5811 91.3842 18.8331 91.0329 18.3118C90.6929 17.7904 90.1319 17.5298 89.3499 17.5298C88.5905 17.5298 88.0352 17.7904 87.6839 18.3118C87.3439 18.8331 87.1739 19.5811 87.1739 20.5558Z" fill="#222222"/>
<path d="M104.195 20.5558C104.195 22.0858 103.799 23.2701 103.005 24.1088C102.212 24.9361 101.135 25.3498 99.7753 25.3498C98.9366 25.3498 98.1886 25.1628 97.5313 24.7888C96.8739 24.4148 96.3583 23.8708 95.9843 23.1568C95.6103 22.4428 95.4233 21.5758 95.4233 20.5558C95.4233 19.0258 95.8143 17.8528 96.5963 17.0368C97.3896 16.2094 98.4663 15.7958 99.8263 15.7958C100.676 15.7958 101.43 15.9828 102.087 16.3568C102.745 16.7194 103.26 17.2578 103.634 17.9718C104.008 18.6744 104.195 19.5358 104.195 20.5558ZM97.6163 20.5558C97.6163 21.5304 97.7863 22.2841 98.1263 22.8168C98.4776 23.3494 99.0386 23.6158 99.8093 23.6158C100.58 23.6158 101.135 23.3494 101.475 22.8168C101.827 22.2841 102.002 21.5304 102.002 20.5558C102.002 19.5811 101.827 18.8331 101.475 18.3118C101.135 17.7904 100.574 17.5298 99.7923 17.5298C99.0329 17.5298 98.4776 17.7904 98.1263 18.3118C97.7863 18.8331 97.6163 19.5811 97.6163 20.5558Z" fill="#222222"/>
<path d="M108.535 18.3968C108.535 18.6914 108.523 19.0031 108.501 19.3318C108.478 19.6604 108.455 19.9721 108.433 20.2668H108.484C108.62 20.0628 108.79 19.8304 108.994 19.5698C109.198 19.3091 109.39 19.0768 109.572 18.8728L112.292 15.9658H114.723L111.034 19.9438L114.961 25.1798H112.462L109.606 21.2358L108.535 22.1198V25.1798H106.41V12.2598H108.535V18.3968Z" fill="#222222"/>
<path d="M119.859 23.1797C119.859 24.2843 118.963 25.1797 117.859 25.1797C116.754 25.1797 115.859 24.2843 115.859 23.1797C115.859 22.0751 116.754 21.1797 117.859 21.1797C118.963 21.1797 119.859 22.0751 119.859 23.1797Z" fill="#00AAA1"/>
</svg>
