<svg width="194" height="30" viewBox="0 0 194 30" fill="none" xmlns="http://www.w3.org/2000/svg">
<path d="M91.7619 1.29333L91.6973 1.61667C90.2099 1.94 89.4339 2.45733 89.4339 4.268V26.2547C89.5633 27.6773 90.3393 28.13 91.6973 28.4533H91.7619V28.7767H81.2213V28.4533H81.2859C82.6439 28.13 83.4199 27.6773 83.5493 26.2547V4.85L73.3966 28.712H72.8146L62.9206 5.49667V25.7373C62.9206 27.548 63.6966 28.0653 65.1839 28.3887H65.2486V28.712H59.1699V28.3887H59.2346C60.7219 28.0653 61.4979 27.548 61.4979 25.7373V4.268C61.4979 2.45733 60.7219 1.94 59.2346 1.61667H59.1699V1.29333H68.0939L75.7893 19.3353L83.4846 1.29333H91.7619Z" fill="black"/>
<path fill-rule="evenodd" clip-rule="evenodd" d="M108.769 16.878H96.4179C96.1593 21.146 98.8106 24.638 102.303 24.7673C104.825 24.9613 107.023 23.4093 108.252 20.8873L108.575 21.0167C107.864 25.7373 105.083 29.294 100.233 29.294C94.7366 29.294 91.6326 24.7027 91.5033 18.9473V17.46C91.7619 14.938 92.5379 12.6747 93.8959 10.9933C94.7366 9.95866 95.7066 9.18267 96.8706 8.66533C97.8406 8.148 99.2633 7.88933 100.427 7.88933H100.492C102.691 7.88933 104.825 8.66533 106.247 10.0233C107.864 11.5753 108.705 13.8387 108.769 16.8133V16.878ZM100.427 9.118C98.0993 9.118 96.7413 11.8987 96.5473 15.7787V15.8433H103.596C103.725 12.804 103.208 10.7993 102.238 9.82933C101.721 9.37667 101.139 9.118 100.427 9.118Z" fill="black"/>
<path fill-rule="evenodd" clip-rule="evenodd" d="M128.622 25.608C128.622 27.548 129.398 28.0653 130.885 28.4533L130.95 28.7767H122.737V25.608C121.767 27.936 119.763 29.3587 117.176 29.3587C112.779 29.3587 109.869 25.3493 109.869 19.4C109.869 16.0373 110.839 13.192 112.649 11.058C114.395 8.98867 116.788 7.88933 119.439 7.88933C120.733 7.88933 121.832 8.148 122.737 8.73V5.238C122.737 4.462 122.543 3.94467 122.155 3.55667C121.638 3.104 120.797 2.91 119.504 3.03933H119.439V2.716L128.622 0V25.608ZM120.345 26.19C121.509 26.19 122.349 25.6727 122.737 24.7027V10.476C122.285 9.57067 121.444 9.05333 120.409 9.05333C117.823 9.05333 116.206 12.4807 116.206 17.7833C116.206 20.3053 116.659 22.504 117.435 23.9913C118.146 25.414 119.181 26.19 120.345 26.19Z" fill="black"/>
<path d="M135.477 0.193999C137.352 0.193999 138.775 1.61667 138.775 3.492C138.775 5.36733 137.352 6.79 135.477 6.79C133.601 6.79 132.179 5.36733 132.179 3.492C132.179 1.61667 133.601 0.193999 135.477 0.193999Z" fill="black"/>
<path d="M138.645 25.608C138.645 27.548 139.421 28.0653 140.909 28.4533L140.973 28.7767H132.761V13.5153C132.761 11.446 132.308 10.7993 130.497 10.67H130.433V10.3467L138.645 7.954V25.608Z" fill="black"/>
<path d="M159.791 25.608C159.791 27.548 160.567 28.0653 162.055 28.4533V28.7767H153.842V25.5433C152.872 27.8713 150.738 29.3587 148.345 29.3587C145.5 29.3587 143.689 28.0653 142.978 25.5433L142.849 24.8967C142.719 24.25 142.655 23.6033 142.655 22.9567V13.5153C142.655 11.446 142.202 10.7993 140.391 10.67H140.327V10.3467L148.539 7.954V22.8273C148.539 25.026 149.509 26.2547 151.32 26.2547C152.419 26.2547 153.325 25.6727 153.842 24.7027V13.5153C153.842 11.3813 153.454 10.7347 151.967 10.6053H151.902V10.282L159.791 7.954V25.608Z" fill="black"/>
<path d="M194 28.4533V28.7767H185.723V14.0973C185.723 11.7693 184.882 10.6053 183.136 10.6053C181.713 10.6053 181.002 11.64 180.614 12.5453C180.679 12.9979 180.743 13.4508 180.743 13.9033V26.1253C180.743 27.6127 181.196 28.13 182.489 28.4533H182.554V28.7767H174.859V14.0973C174.859 11.7693 173.953 10.6053 172.272 10.6053C170.914 10.6053 170.203 11.5753 169.879 12.3513V26.19C169.879 27.6773 170.332 28.1947 171.625 28.518H171.69V28.8413H163.995V13.4507C163.995 11.3813 163.477 10.7347 161.731 10.6053H161.667V10.282L169.879 8.01867V11.446C170.72 9.24733 172.66 7.954 175.117 7.954C177.898 7.954 179.838 9.312 180.485 11.7693C181.325 9.44133 183.459 7.954 186.046 7.954C189.538 7.954 191.672 10.1527 191.672 13.9033V25.9313C191.672 27.354 192.319 28.0653 193.935 28.4533H194Z" fill="black"/>
<path d="M14.55 29.5526C22.5687 29.5526 29.1 23.0212 29.1 14.9379C29.1 6.85458 22.5687 0.323242 14.55 0.323242C6.53133 0.323242 0 6.78991 0 14.9379C0 23.0859 6.53133 29.5526 14.55 29.5526Z" fill="black"/>
<path d="M37.8301 28.7121C41.8394 28.7121 45.0727 22.5687 45.0727 14.9381C45.0727 7.37206 41.7747 1.16406 37.8301 1.16406C33.8207 1.16406 30.5874 7.3074 30.5874 14.9381C30.5874 22.5687 33.8207 28.7121 37.8301 28.7121Z" fill="black"/>
<path d="M51.5395 14.9382C51.5395 21.7282 50.3755 27.2896 48.9529 27.2896C47.5302 27.2896 46.3662 21.7282 46.3662 14.9382C46.3662 8.14825 47.5302 2.58691 48.9529 2.58691C50.4402 2.58691 51.5395 8.14825 51.5395 14.9382Z" fill="black"/>
</svg>
