<svg xmlns="http://www.w3.org/2000/svg" xmlns:xlink="http://www.w3.org/1999/xlink">
  <symbol id="logo" viewBox="0 0 120 28">
    <path d="M0.858765 0.179688H70.8588V27.1797H0.858765V0.179688Z" fill="#00AAA1"/>
    <path d="M22.7588 24.1794H18.4658L9.33975 9.05937H9.23175C9.28575 9.86937 9.33075 10.7424 9.36675 11.6784C9.42075 12.5964 9.45675 13.5234 9.47475 14.4594V24.1794H6.36975V4.90137H10.6358L19.7348 19.9134H19.8158C19.7798 19.1934 19.7438 18.3654 19.7078 17.4294C19.6718 16.4934 19.6448 15.5844 19.6268 14.7024V4.90137H22.7588V24.1794Z" fill="var(--color-white)"/>
    <path d="M41.0639 16.8354C41.0639 19.2654 40.4339 21.1464 39.1739 22.4784C37.9139 23.7924 36.2039 24.4494 34.0439 24.4494C32.7119 24.4494 31.5239 24.1524 30.4799 23.5584C29.4359 22.9644 28.6169 22.1004 28.0229 20.9664C27.4289 19.8324 27.1319 18.4554 27.1319 16.8354C27.1319 14.4054 27.7529 12.5424 28.9949 11.2464C30.2549 9.93237 31.9649 9.27537 34.1249 9.27537C35.4749 9.27537 36.6719 9.57237 37.7159 10.1664C38.7599 10.7424 39.5789 11.5974 40.1729 12.7314C40.7669 13.8474 41.0639 15.2154 41.0639 16.8354ZM30.6149 16.8354C30.6149 18.3834 30.8849 19.5804 31.4249 20.4264C31.9829 21.2724 32.8739 21.6954 34.0979 21.6954C35.3219 21.6954 36.2039 21.2724 36.7439 20.4264C37.3019 19.5804 37.5809 18.3834 37.5809 16.8354C37.5809 15.2874 37.3019 14.0994 36.7439 13.2714C36.2039 12.4434 35.3129 12.0294 34.0709 12.0294C32.8649 12.0294 31.9829 12.4434 31.4249 13.2714C30.8849 14.0994 30.6149 15.2874 30.6149 16.8354Z" fill="var(--color-white)"/>
    <path d="M50.7909 21.7224C51.2049 21.7224 51.6099 21.6864 52.0059 21.6144C52.4199 21.5244 52.7979 21.4254 53.1399 21.3174V23.8554C52.7799 24.0174 52.3119 24.1524 51.7359 24.2604C51.1599 24.3864 50.5569 24.4494 49.9269 24.4494C49.0989 24.4494 48.3429 24.3144 47.6589 24.0444C46.9749 23.7564 46.4349 23.2704 46.0389 22.5864C45.6429 21.9024 45.4449 20.9484 45.4449 19.7244V12.1104H43.4739V10.6254L45.6339 9.43737L46.7139 6.33237H48.8469V9.54537H53.0049V12.1104H48.8469V19.6974C48.8469 20.3814 49.0269 20.8944 49.3869 21.2364C49.7469 21.5604 50.2149 21.7224 50.7909 21.7224Z" fill="var(--color-white)"/>
    <path d="M62.5156 9.27537C64.4776 9.27537 66.0256 9.86037 67.1596 11.0304C68.3116 12.2004 68.8876 13.8294 68.8876 15.9174V17.6454H59.2216C59.2576 18.9774 59.6266 20.0124 60.3286 20.7504C61.0306 21.4704 62.0026 21.8304 63.2446 21.8304C64.1806 21.8304 65.0266 21.7404 65.7826 21.5604C66.5386 21.3624 67.3126 21.0834 68.1046 20.7234V23.4504C67.3846 23.7924 66.6376 24.0444 65.8636 24.2064C65.0896 24.3684 64.1626 24.4494 63.0826 24.4494C61.6606 24.4494 60.3916 24.1794 59.2756 23.6394C58.1776 23.0814 57.3136 22.2444 56.6836 21.1284C56.0716 20.0124 55.7656 18.6264 55.7656 16.9704C55.7656 14.4684 56.3866 12.5604 57.6286 11.2464C58.8706 9.93237 60.4996 9.27537 62.5156 9.27537ZM62.5156 11.7864C61.5976 11.7864 60.8506 12.0834 60.2746 12.6774C59.7166 13.2534 59.3926 14.1174 59.3026 15.2694H65.5936C65.5756 14.2614 65.3146 13.4334 64.8106 12.7854C64.3246 12.1194 63.5596 11.7864 62.5156 11.7864Z" fill="var(--color-white)"/>
    <path d="M78.0948 13.0418C79.6702 13.0418 80.8602 13.2684 81.6648 13.7218C82.4808 14.1751 82.8888 14.9628 82.8888 16.0848C82.8888 16.7874 82.7132 17.3768 82.3618 17.8528C82.0105 18.3288 81.5062 18.6234 80.8488 18.7368V18.8218C81.2908 18.9011 81.6932 19.0484 82.0558 19.2638C82.4185 19.4678 82.7018 19.7681 82.9058 20.1648C83.1212 20.5501 83.2288 21.0601 83.2288 21.6948C83.2288 22.7941 82.8378 23.6498 82.0558 24.2618C81.2852 24.8738 80.2255 25.1798 78.8768 25.1798H74.4398V13.0418H78.0948ZM78.3838 17.9888C79.2452 17.9888 79.8345 17.8528 80.1518 17.5808C80.4805 17.3088 80.6448 16.9064 80.6448 16.3738C80.6448 15.8298 80.4465 15.4388 80.0498 15.2008C79.6645 14.9628 79.0525 14.8438 78.2138 14.8438H76.6158V17.9888H78.3838ZM76.6158 19.7398V23.3608H78.5878C79.4718 23.3608 80.0838 23.1908 80.4238 22.8508C80.7752 22.5108 80.9508 22.0574 80.9508 21.4908C80.9508 20.9694 80.7695 20.5501 80.4068 20.2328C80.0555 19.9041 79.4152 19.7398 78.4858 19.7398H76.6158Z" fill="var(--color-min-shaft)"/>
    <path d="M93.7529 20.5558C93.7529 22.0858 93.3562 23.2701 92.5629 24.1088C91.7695 24.9361 90.6929 25.3498 89.3329 25.3498C88.4942 25.3498 87.7462 25.1628 87.0889 24.7888C86.4315 24.4148 85.9159 23.8708 85.5419 23.1568C85.1679 22.4428 84.9809 21.5758 84.9809 20.5558C84.9809 19.0258 85.3719 17.8528 86.1539 17.0368C86.9472 16.2094 88.0239 15.7958 89.3839 15.7958C90.2339 15.7958 90.9875 15.9828 91.6449 16.3568C92.3022 16.7194 92.8179 17.2578 93.1919 17.9718C93.5659 18.6744 93.7529 19.5358 93.7529 20.5558ZM87.1739 20.5558C87.1739 21.5304 87.3439 22.2841 87.6839 22.8168C88.0352 23.3494 88.5962 23.6158 89.3669 23.6158C90.1375 23.6158 90.6929 23.3494 91.0329 22.8168C91.3842 22.2841 91.5599 21.5304 91.5599 20.5558C91.5599 19.5811 91.3842 18.8331 91.0329 18.3118C90.6929 17.7904 90.1319 17.5298 89.3499 17.5298C88.5905 17.5298 88.0352 17.7904 87.6839 18.3118C87.3439 18.8331 87.1739 19.5811 87.1739 20.5558Z" fill="var(--color-min-shaft)"/>
    <path d="M104.195 20.5558C104.195 22.0858 103.799 23.2701 103.005 24.1088C102.212 24.9361 101.135 25.3498 99.7753 25.3498C98.9366 25.3498 98.1886 25.1628 97.5313 24.7888C96.8739 24.4148 96.3583 23.8708 95.9843 23.1568C95.6103 22.4428 95.4233 21.5758 95.4233 20.5558C95.4233 19.0258 95.8143 17.8528 96.5963 17.0368C97.3896 16.2094 98.4663 15.7958 99.8263 15.7958C100.676 15.7958 101.43 15.9828 102.087 16.3568C102.745 16.7194 103.26 17.2578 103.634 17.9718C104.008 18.6744 104.195 19.5358 104.195 20.5558ZM97.6163 20.5558C97.6163 21.5304 97.7863 22.2841 98.1263 22.8168C98.4776 23.3494 99.0386 23.6158 99.8093 23.6158C100.58 23.6158 101.135 23.3494 101.475 22.8168C101.827 22.2841 102.002 21.5304 102.002 20.5558C102.002 19.5811 101.827 18.8331 101.475 18.3118C101.135 17.7904 100.574 17.5298 99.7923 17.5298C99.0329 17.5298 98.4776 17.7904 98.1263 18.3118C97.7863 18.8331 97.6163 19.5811 97.6163 20.5558Z" fill="var(--color-min-shaft)"/>
    <path d="M108.535 18.3968C108.535 18.6914 108.523 19.0031 108.501 19.3318C108.478 19.6604 108.455 19.9721 108.433 20.2668H108.484C108.62 20.0628 108.79 19.8304 108.994 19.5698C109.198 19.3091 109.39 19.0768 109.572 18.8728L112.292 15.9658H114.723L111.034 19.9438L114.961 25.1798H112.462L109.606 21.2358L108.535 22.1198V25.1798H106.41V12.2598H108.535V18.3968Z" fill="var(--color-min-shaft)"/>
    <path d="M119.859 23.1797C119.859 24.2843 118.963 25.1797 117.859 25.1797C116.754 25.1797 115.859 24.2843 115.859 23.1797C115.859 22.0751 116.754 21.1797 117.859 21.1797C118.963 21.1797 119.859 22.0751 119.859 23.1797Z" fill="#00AAA1"/>
  </symbol>

  <symbol id="search-ic" viewBox="0 0 18 18">
    <path fill-rule="evenodd" clip-rule="evenodd" d="M3.56702 8.24192C3.56702 5.57651 5.7273 3.41602 8.39185 3.41602C11.0564 3.41602 13.2167 5.57651 13.2167 8.24192C13.2167 10.9073 11.0564 13.0678 8.39185 13.0678C5.7273 13.0678 3.56702 10.9073 3.56702 8.24192ZM8.39185 1.91602C4.8986 1.91602 2.06702 4.74836 2.06702 8.24192C2.06702 11.7355 4.8986 14.5678 8.39185 14.5678C9.81997 14.5678 11.1375 14.0944 12.1962 13.296L14.641 15.8521C14.9273 16.1514 15.4021 16.162 15.7014 15.8756C16.0008 15.5893 16.0113 15.1146 15.725 14.8152L13.2789 12.2579C14.1773 11.1655 14.7167 9.7667 14.7167 8.24192C14.7167 4.74836 11.8851 1.91602 8.39185 1.91602Z" />
  </symbol>

  <symbol id="write-ic" viewBox="0 0 17 17">
    <path d="M16.1091 0.419713L16.5753 0.880928C17.2178 1.51725 17.1206 2.64527 16.3564 3.40041L6.74155 12.9116L3.62642 14.0388C3.23525 14.1811 2.85435 13.9966 2.77691 13.6284C2.75074 13.4949 2.76306 13.3567 2.81247 13.2298L3.97412 10.1216L13.5621 0.63625C14.3263 -0.118892 15.4666 -0.215825 16.1091 0.420495V0.419713ZM6.32193 1.36559C6.42571 1.36559 6.52847 1.38581 6.62434 1.4251C6.72022 1.46438 6.80734 1.52197 6.88072 1.59456C6.9541 1.66714 7.01231 1.75332 7.05202 1.84816C7.09173 1.94301 7.11217 2.04466 7.11217 2.14732C7.11217 2.24997 7.09173 2.35162 7.05202 2.44647C7.01231 2.54131 6.9541 2.62749 6.88072 2.70007C6.80734 2.77266 6.72022 2.83025 6.62434 2.86953C6.52847 2.90882 6.42571 2.92904 6.32193 2.92904H3.16097C2.7418 2.92904 2.33979 3.09375 2.0434 3.38696C1.747 3.68016 1.58048 4.07783 1.58048 4.49248V13.8731C1.58048 14.2878 1.747 14.6854 2.0434 14.9786C2.33979 15.2718 2.7418 15.4366 3.16097 15.4366H12.6439C13.063 15.4366 13.465 15.2718 13.7614 14.9786C14.0578 14.6854 14.2243 14.2878 14.2243 13.8731V10.7462C14.2243 10.5389 14.3076 10.3401 14.4558 10.1935C14.604 10.0469 14.805 9.96452 15.0146 9.96452C15.2242 9.96452 15.4252 10.0469 15.5734 10.1935C15.7216 10.3401 15.8048 10.5389 15.8048 10.7462V13.8731C15.8048 14.7024 15.4718 15.4978 14.879 16.0842C14.2862 16.6706 13.4822 17 12.6439 17H3.16097C2.32263 17 1.51862 16.6706 0.925826 16.0842C0.333029 15.4978 0 14.7024 0 13.8731V4.49248C0 3.66318 0.333029 2.86784 0.925826 2.28144C1.51862 1.69503 2.32263 1.36559 3.16097 1.36559H6.32193V1.36559Z" />
  </symbol>

  <symbol id="day-ic" viewBox="0 0 14 14">
    <path d="M7.5,12C7.5,11.724 7.276,11.5 7,11.5C6.724,11.5 6.5,11.724 6.5,12L6.5,13C6.5,13.276 6.724,13.5 7,13.5C7.276,13.5 7.5,13.276 7.5,13L7.5,12ZM3.854,10.146C4.049,10.342 4.049,10.658 3.854,10.854L3.354,11.354C3.158,11.549 2.842,11.549 2.646,11.354C2.451,11.158 2.451,10.842 2.646,10.646L3.146,10.146C3.342,9.951 3.658,9.951 3.854,10.146ZM10.146,10.146C10.342,9.951 10.658,9.951 10.854,10.146L11.353,10.646C11.549,10.842 11.549,11.158 11.353,11.354C11.158,11.549 10.842,11.549 10.646,11.354L10.146,10.854C9.951,10.658 9.951,10.342 10.146,10.146ZM2.971,7C2.971,4.775 4.775,2.972 7,2.972C9.225,2.972 11.028,4.775 11.028,7C11.028,9.225 9.225,11.029 7,11.029C4.775,11.029 2.971,9.225 2.971,7ZM7,4.172C5.438,4.172 4.171,5.438 4.171,7C4.171,8.562 5.438,9.829 7,9.829C8.562,9.829 9.829,8.562 9.829,7C9.829,5.438 8.562,4.172 7,4.172ZM1,6.5C0.724,6.5 0.5,6.724 0.5,7C0.5,7.276 0.724,7.5 1,7.5L2,7.5C2.276,7.5 2.5,7.276 2.5,7C2.5,6.724 2.276,6.5 2,6.5L1,6.5ZM12,6.5C11.724,6.5 11.5,6.724 11.5,7C11.5,7.276 11.724,7.5 12,7.5L13,7.5C13.276,7.5 13.5,7.276 13.5,7C13.5,6.724 13.276,6.5 13,6.5L12,6.5ZM2.646,2.646C2.842,2.451 3.158,2.451 3.354,2.646L3.854,3.146C4.049,3.342 4.049,3.658 3.854,3.854C3.658,4.049 3.342,4.049 3.146,3.854L2.646,3.354C2.451,3.158 2.451,2.842 2.646,2.646ZM10.646,2.646C10.842,2.451 11.158,2.451 11.353,2.646C11.549,2.842 11.549,3.158 11.353,3.354L10.854,3.854C10.658,4.049 10.342,4.049 10.146,3.854C9.951,3.658 9.951,3.342 10.146,3.146L10.646,2.646ZM7,0.5C7.276,0.5 7.5,0.724 7.5,1L7.5,2C7.5,2.276 7.276,2.5 7,2.5C6.724,2.5 6.5,2.276 6.5,2L6.5,1C6.5,0.724 6.724,0.5 7,0.5Z" />
  </symbol>

  <symbol id="night-ic" viewBox="0 0 14 14">
    <path d="M9.58384 3.70523C11.3762 5.21741 11.6043 7.90753 10.0922 9.69992C8.58 11.4923 5.88988 11.7204 4.09748 10.2083C3.9593 10.0917 3.82796 9.96696 3.71098 9.83348C5.22794 9.6105 6.64199 8.84153 7.65354 7.64254C8.66509 6.44354 9.18497 4.9202 9.14933 3.38736C9.3006 3.48019 9.44565 3.58865 9.58384 3.70523ZM10.2696 2.89236C9.52992 2.26828 8.66346 1.88515 7.77453 1.72656C8.39657 3.45496 8.10938 5.45292 6.84066 6.95674C5.57194 8.46057 3.65087 9.08008 1.84241 8.75795C2.14841 9.60749 2.67197 10.3971 3.41169 11.0211C5.65523 12.9139 9.01226 12.6293 10.9051 10.3857C12.7978 8.14217 12.5132 4.78515 10.2696 2.89236Z" />
  </symbol>

  <symbol id="facebook-ic" viewBox="0 0 6 10">
    <path d="M1.77617 10H3.8917V5.4375H5.66065L5.9278 3.6625H3.8917V2.525C3.8917 2.0125 4.05776 1.6625 4.90975 1.6625H6V0.0687499C5.81227 0.0499999 5.16967 0 4.41877 0C2.84477 0 1.77617 0.83125 1.77617 2.35V3.6625H0V5.4375H1.77617V10Z" />
  </symbol>

  <symbol id="pinterest-ic" viewBox="0 0 14 14">
    <path d="M6.97609 0.302734C5.34767 0.313786 3.7737 0.888369 2.52344 1.92819C1.27318 2.96801 0.424311 4.40846 0.122059 6.00311C-0.180194 7.59776 0.0829485 9.24753 0.86647 10.6702C1.64999 12.0928 2.9052 13.2 4.41738 13.8022C4.31575 13.1394 4.31575 12.4651 4.41738 11.8023L5.2452 8.30243C5.11419 7.98546 5.04932 7.64523 5.05455 7.30247C5.05455 6.3325 5.62148 5.60253 6.32387 5.60253C6.45111 5.60063 6.57727 5.62615 6.69369 5.67736C6.81011 5.72856 6.91405 5.80424 6.99839 5.89921C7.08273 5.99418 7.14547 6.1062 7.18232 6.22758C7.21917 6.34897 7.22926 6.47686 7.21189 6.60249C7.21189 7.20247 6.8306 8.10244 6.62991 8.93241C6.58672 9.08719 6.58158 9.25006 6.61494 9.40724C6.6483 9.56442 6.71916 9.71127 6.82154 9.83537C6.92392 9.95947 7.0548 10.0572 7.20309 10.1202C7.35138 10.1832 7.51273 10.2097 7.67346 10.1974C8.9177 10.1974 9.88098 8.88241 9.88098 6.99248C9.89349 6.60844 9.82554 6.22601 9.68146 5.8696C9.53738 5.51319 9.32034 5.19062 9.04418 4.92247C8.76802 4.65431 8.43881 4.44647 8.07755 4.31219C7.71629 4.17791 7.3309 4.12015 6.94599 4.14259C6.53504 4.125 6.12478 4.19069 5.74004 4.33569C5.35531 4.48069 5.0041 4.70198 4.70767 4.98617C4.41124 5.27036 4.17576 5.61154 4.01548 5.98905C3.8552 6.36656 3.77346 6.77256 3.77519 7.18247C3.76961 7.75352 3.94521 8.31173 4.2769 8.77741C4.30102 8.80413 4.3182 8.83633 4.32695 8.87119C4.33569 8.90605 4.33574 8.94252 4.32707 8.9774C4.27188 9.1974 4.15147 9.67738 4.13141 9.77237C4.11134 9.86737 4.02605 9.92737 3.8956 9.86737C3.01761 9.45739 2.47075 8.18243 2.47075 7.15247C2.47075 4.94756 4.08124 2.91763 7.11155 2.91763C9.54484 2.91763 11.4413 4.64757 11.4413 6.96248C11.4413 9.37239 9.93617 11.3123 7.79387 11.3123C7.47981 11.3232 7.168 11.2557 6.88675 11.116C6.6055 10.9763 6.36373 10.7688 6.18339 10.5123L5.74691 12.1773C5.53767 12.8243 5.24417 13.4412 4.87393 14.0122C5.55615 14.2131 6.26476 14.3109 6.97609 14.3022C8.83895 14.3022 10.6255 13.5647 11.9427 12.252C13.26 10.9393 14 9.15891 14 7.30247C14 5.44602 13.26 3.66561 11.9427 2.35291C10.6255 1.0402 8.83895 0.302734 6.97609 0.302734Z" />
  </symbol>

  <symbol id="instagram-ic" viewBox="0 0 10 10">
    <path d="M9.96779 2.95155C9.96219 2.53167 9.88346 2.11596 9.73512 1.72303C9.60648 1.39159 9.41001 1.09059 9.15825 0.839245C8.90649 0.587905 8.60498 0.391757 8.27299 0.263333C7.88446 0.117728 7.474 0.0389962 7.05908 0.0304912C6.52488 0.00665266 6.35551 0 4.99944 0C3.64338 0 3.46957 3.72529e-08 2.93925 0.0304912C2.52452 0.0390587 2.11425 0.117789 1.7259 0.263333C1.39386 0.391667 1.0923 0.587784 0.840534 0.839136C0.588763 1.09049 0.39232 1.39154 0.263772 1.72303C0.117632 2.11062 0.03894 2.5203 0.0310973 2.93436C0.00721901 3.46823 0 3.63732 0 4.99113C0 6.34494 -3.72529e-09 6.51791 0.0310973 7.0479C0.0394269 7.46258 0.117725 7.87172 0.263772 8.26034C0.392535 8.59173 0.589125 8.89266 0.84098 9.14391C1.09283 9.39515 1.39442 9.59119 1.72645 9.71948C2.11375 9.87094 2.52409 9.95531 2.93981 9.96896C3.47457 9.99279 3.64394 10 5 10C6.35606 10 6.52988 10 7.0602 9.96896C7.4751 9.9608 7.88558 9.88225 8.2741 9.73667C8.606 9.6081 8.90743 9.4119 9.15917 9.16057C9.41092 8.90925 9.60744 8.60832 9.73623 8.27697C9.88228 7.8889 9.96057 7.47977 9.9689 7.06453C9.99278 6.53121 10 6.36213 10 5.00776C9.99889 3.65395 9.99889 3.48209 9.96779 2.95155ZM4.99611 7.55128C3.57785 7.55128 2.42892 6.40426 2.42892 4.98836C2.42892 3.57246 3.57785 2.42544 4.99611 2.42544C5.67698 2.42544 6.32995 2.69546 6.81139 3.1761C7.29283 3.65674 7.56331 4.30863 7.56331 4.98836C7.56331 5.66809 7.29283 6.31998 6.81139 6.80062C6.32995 7.28126 5.67698 7.55128 4.99611 7.55128ZM7.66548 2.92826C7.58685 2.92834 7.50897 2.91293 7.43631 2.88292C7.36365 2.85291 7.29763 2.80889 7.24203 2.75338C7.18643 2.69788 7.14234 2.63196 7.11228 2.55942C7.08222 2.48688 7.06679 2.40914 7.06686 2.33064C7.06686 2.25219 7.08234 2.17451 7.11241 2.10204C7.14247 2.02957 7.18655 1.96371 7.24211 1.90825C7.29767 1.85278 7.36363 1.80878 7.43623 1.77876C7.50882 1.74874 7.58663 1.73329 7.66521 1.73329C7.74378 1.73329 7.82159 1.74874 7.89418 1.77876C7.96678 1.80878 8.03274 1.85278 8.0883 1.90825C8.14386 1.96371 8.18793 2.02957 8.218 2.10204C8.24807 2.17451 8.26355 2.25219 8.26355 2.33064C8.26355 2.66105 7.99589 2.92826 7.66548 2.92826Z" />
  </symbol>

  <symbol id="twitter-ic" viewBox="0 0 11 9">
    <path d="M11 1.0654C10.5952 1.24609 10.1603 1.36822 9.7038 1.42316C10.1698 1.14197 10.5276 0.696697 10.6961 0.16616C10.2531 0.430817 9.76843 0.617284 9.26303 0.717505C8.85135 0.275953 8.26487 0 7.61574 0C6.36939 0 5.35889 1.01729 5.35889 2.272C5.35889 2.4501 5.37887 2.62348 5.41733 2.78982C3.54174 2.69503 1.87885 1.79052 0.765746 0.415898C0.571527 0.751464 0.460238 1.1418 0.460238 1.55813C0.460238 2.3464 0.858688 3.0418 1.4642 3.44927C1.10582 3.43797 0.755326 3.34052 0.441977 3.16505C0.441848 3.17457 0.441848 3.18408 0.441848 3.19364C0.441848 4.29447 1.21975 5.21279 2.25212 5.42152C1.9198 5.51251 1.57121 5.52583 1.23299 5.46045C1.52015 6.36311 2.35361 7.01996 3.34112 7.03835C2.56876 7.6477 1.59564 8.01095 0.538355 8.01095C0.356168 8.01095 0.176559 8.00018 0 7.9792C0.998723 8.62386 2.18496 9 3.45941 9C7.6105 9 9.88041 5.53789 9.88041 2.53549C9.88041 2.43695 9.87826 2.33896 9.87388 2.24154C10.3157 1.91999 10.697 1.52171 11 1.0654" />
  </symbol>

  <symbol id="pagination-arrow-left" viewBox="0 0 11 8">
    <path fill-rule="evenodd" clip-rule="evenodd" d="M4.07843 7.85258L0.896447 4.6706C0.701185 4.47533 0.701185 4.15875 0.896447 3.96349L4.07843 0.781508C4.27369 0.586246 4.59027 0.586246 4.78553 0.781508C4.9808 0.976771 4.9808 1.29335 4.78553 1.48862L2.45711 3.81704L11.25 3.81704L11.25 4.81704L2.45711 4.81704L4.78553 7.14547C4.9808 7.34073 4.9808 7.65731 4.78553 7.85258C4.59027 8.04784 4.27369 8.04784 4.07843 7.85258Z"/>
  </symbol>

  <symbol id="pagination-arrow-right" viewBox="0 0 11 8">
    <path fill-rule="evenodd" clip-rule="evenodd" d="M7.42157 7.85258L10.6036 4.6706C10.7988 4.47533 10.7988 4.15875 10.6036 3.96349L7.42157 0.781508C7.22631 0.586246 6.90973 0.586246 6.71447 0.781508C6.5192 0.976771 6.5192 1.29335 6.71447 1.48862L9.04289 3.81704L0.25 3.81704L0.25 4.81704L9.04289 4.81704L6.71447 7.14547C6.5192 7.34073 6.5192 7.65731 6.71447 7.85258C6.90973 8.04784 7.22631 8.04784 7.42157 7.85258Z" />
  </symbol>

  <symbol id="grammarly-logo" viewBox="0 0 144 34">
    <path fill-rule="evenodd" clip-rule="evenodd" d="M16.9325 34C26.2841 34 33.865 26.3888 33.865 17C33.865 7.61116 26.2841 0 16.9325 0C7.58095 0 0 7.61116 0 17C0 26.3888 7.58095 34 16.9325 34ZM20.2824 19.291C19.583 19.291 19.0308 19.9192 19.1413 20.6584C19.2517 21.2127 19.767 21.5823 20.3192 21.5823H22.086L23.1167 21.4344C21.4603 23.8736 18.6259 24.9823 15.4971 24.4649C12.9572 24.0584 10.7854 22.3214 9.86518 19.9192C7.76702 14.4497 11.7425 9.20183 16.9327 9.20183C19.6198 9.20183 22.0124 10.791 23.3744 12.7127V12.7497C23.7425 13.2671 24.4419 13.4149 24.9572 13.0453C25.4357 12.7127 25.583 12.0475 25.2885 11.5301C23.4112 8.57357 20.0247 6.68879 16.2333 6.94749C11.3008 7.35401 7.28849 11.4192 6.99401 16.4084C6.66272 22.2105 11.2271 26.904 16.9327 26.904C19.9143 26.904 22.6014 25.6105 24.4051 23.4671L24.1842 24.6866V25.7953C24.1842 26.3497 24.5523 26.8671 25.1044 26.9779C25.8406 27.1257 26.4664 26.5344 26.4664 25.8323V19.291H20.2824Z" />
    <path fill-rule="evenodd" clip-rule="evenodd" d="M42.9572 23.8374C42.9572 24.4287 43.3253 24.8352 43.8407 25.057C45.129 25.5744 46.3805 25.8331 47.8161 25.7961C49.9511 25.7961 51.4971 25.3526 52.5278 24.3178C53.448 23.3939 53.9266 21.9526 53.9266 19.9939V12.9352C53.9266 12.0852 53.2272 11.3831 52.3805 11.3831C51.5339 11.3831 50.8345 12.0852 50.8345 12.9352V13.0091C49.9879 12.0852 48.994 11.3831 47.3008 11.3831C44.7977 11.3831 42.4419 13.1939 42.4419 16.4831V16.52C42.4419 19.7722 44.7609 21.62 47.3008 21.62C48.9572 21.62 49.9511 20.9548 50.8713 19.8461V20.3635C50.8713 22.3222 49.8775 23.357 47.7425 23.357C46.5646 23.357 45.6075 23.0983 44.7241 22.6918C44.5769 22.6178 44.4296 22.5809 44.2088 22.5809C43.5462 22.5809 42.9572 23.1352 42.9572 23.8374ZM50.8713 16.4461V16.4831C50.8713 17.9613 49.6934 19.0331 48.1842 19.0331C46.675 19.0331 45.5339 17.9983 45.5339 16.4831V16.4461C45.5339 14.9309 46.675 13.8961 48.1842 13.8961C49.6934 13.8961 50.8713 14.9678 50.8713 16.4461Z" />
    <path d="M57.2026 11.42C56.356 11.42 55.6566 12.1222 55.6566 12.9722V21.0657C55.6566 21.9157 56.356 22.6178 57.2026 22.6178C58.0493 22.6178 58.7486 21.9157 58.7486 21.0657V18.1461C58.7486 15.9657 59.5953 14.7461 61.1781 14.3765C61.8407 14.2287 62.356 13.7483 62.356 12.9352C62.356 12.0483 61.8039 11.42 60.8468 11.42C59.9266 11.42 59.1904 12.3809 58.7486 13.4526V12.9722C58.7486 12.1222 58.0493 11.42 57.2026 11.42Z" />
    <path fill-rule="evenodd" clip-rule="evenodd" d="M62.0247 19.2918V19.3287C62.0247 21.5091 63.718 22.6918 65.8161 22.6178C67.3253 22.6178 68.3928 22.0635 69.129 21.2135V21.2505C69.129 21.9157 69.718 22.5439 70.6014 22.5439C71.448 22.5439 72.1106 21.9157 72.1106 21.0657V16.0765C72.1106 14.5983 71.7425 13.3787 70.9327 12.5657C70.1597 11.7896 68.945 11.3461 67.2517 11.3461C65.7793 11.3461 64.7486 11.5678 63.7548 11.9374C63.2394 12.1222 62.9081 12.6026 62.9081 13.157C62.9081 13.8591 63.4971 14.4135 64.1965 14.4135C64.3437 14.4135 64.4542 14.4135 64.6382 14.3396C65.2272 14.1548 65.9266 14.0439 66.7732 14.0439C68.3192 14.0439 69.129 14.7461 69.129 16.0396V16.2244C68.356 15.9657 67.5462 15.7809 66.4419 15.7809C63.8284 15.7809 62.0247 16.8896 62.0247 19.2918ZM69.129 18.0722V18.6265C69.129 19.7722 68.1351 20.5483 66.6996 20.5483C65.7057 20.5483 65.0063 20.0678 65.0063 19.2178V19.1809C65.0063 18.1831 65.8161 17.6657 67.1413 17.6657C67.9143 17.6657 68.6137 17.8135 69.129 18.0722Z" />
    <path d="M75.2762 11.42C74.4296 11.42 73.7302 12.1222 73.7302 12.9722H73.767V21.0657C73.767 21.9157 74.4664 22.6178 75.3131 22.6178C76.1597 22.6178 76.8591 21.9157 76.8591 21.0657V16.3722C76.8591 14.9309 77.5585 14.1548 78.7364 14.1548C79.8775 14.1548 80.5401 14.8939 80.5401 16.3722V21.0657C80.5401 21.9157 81.2394 22.6178 82.0861 22.6178C82.9327 22.6178 83.6321 21.9157 83.6321 21.0657V16.3722C83.6321 14.9309 84.3315 14.1548 85.5094 14.1548C86.6505 14.1548 87.3131 14.8939 87.3131 16.3722V21.0657C87.3131 21.9157 88.0124 22.6178 88.8591 22.6178C89.7057 22.6178 90.4051 21.9157 90.4051 21.0657V15.3374C90.4051 12.7135 89.0431 11.3091 86.7241 11.3091C85.2517 11.3091 84.1106 11.9374 83.1535 13.0461C82.5646 11.9374 81.4971 11.3091 80.0615 11.3091C78.4787 11.3091 77.5216 12.1591 76.8223 13.0831V12.9722C76.8223 12.1222 76.1229 11.42 75.2762 11.42Z" />
    <path d="M93.6075 11.42C92.7609 11.42 92.0615 12.1222 92.0615 12.9722H92.0983V21.0657C92.0983 21.9157 92.7977 22.6178 93.6443 22.6178C94.491 22.6178 95.1904 21.9157 95.1904 21.0657V16.3722C95.1904 14.9309 95.8897 14.1548 97.0677 14.1548C98.2088 14.1548 98.8713 14.8939 98.8713 16.3722V21.0657C98.8713 21.9157 99.5707 22.6178 100.417 22.6178C101.264 22.6178 101.963 21.9157 101.963 21.0657V16.3722C101.963 14.9309 102.663 14.1548 103.841 14.1548C104.982 14.1548 105.644 14.8939 105.644 16.3722V21.0657C105.644 21.9157 106.344 22.6178 107.19 22.6178C108.037 22.6178 108.736 21.9157 108.736 21.0657V15.3374C108.736 12.7135 107.374 11.3091 105.055 11.3091C103.583 11.3091 102.442 11.9374 101.485 13.0461C100.896 11.9374 99.8284 11.3091 98.3928 11.3091C96.81 11.3091 95.8529 12.1591 95.1535 13.0831V12.9722C95.1535 12.1222 94.4542 11.42 93.6075 11.42Z" />
    <path fill-rule="evenodd" clip-rule="evenodd" d="M109.767 19.2918V19.3287C109.767 21.5091 111.46 22.6918 113.558 22.6178C115.068 22.6178 116.098 22.0635 116.871 21.2135V21.2505C116.871 21.9157 117.46 22.5439 118.344 22.5439C119.19 22.5439 119.853 21.9157 119.853 21.0657V16.0765C119.853 14.5983 119.485 13.3787 118.675 12.5657C117.902 11.7896 116.687 11.3461 114.994 11.3461C113.522 11.3461 112.491 11.5678 111.497 11.9374C110.982 12.1222 110.65 12.6026 110.65 13.157C110.65 13.8591 111.239 14.4135 111.939 14.4135C112.086 14.4135 112.196 14.4135 112.381 14.3396C112.969 14.1548 113.669 14.0439 114.516 14.0439C116.062 14.0439 116.871 14.7461 116.871 16.0396V16.2244C116.098 15.9657 115.289 15.7809 114.184 15.7809C111.571 15.7809 109.767 16.8896 109.767 19.2918ZM116.871 18.0722V18.6265C116.871 19.7722 115.914 20.5483 114.442 20.5483C113.448 20.5483 112.749 20.0678 112.749 19.2178V19.1809C112.749 18.1831 113.558 17.6657 114.884 17.6657C115.657 17.6657 116.356 17.8135 116.871 18.0722Z" />
    <path d="M123.019 11.42C122.172 11.42 121.473 12.1222 121.473 12.9722V21.0657C121.473 21.9157 122.172 22.6178 123.019 22.6178C123.865 22.6178 124.565 21.9157 124.565 21.0657V18.1461C124.565 15.9657 125.411 14.7461 126.994 14.3765C127.657 14.2287 128.172 13.7483 128.172 12.9352C128.172 12.0483 127.62 11.42 126.663 11.42C125.743 11.42 125.006 12.3809 124.565 13.4526V12.9722C124.565 12.1222 123.865 11.42 123.019 11.42Z" />
    <path d="M130.675 7.42871C129.828 7.42871 129.129 8.13088 129.129 8.98088V21.0657C129.129 21.9157 129.828 22.6178 130.675 22.6178C131.522 22.6178 132.221 21.9157 132.221 21.0657V8.98088C132.221 8.13088 131.522 7.42871 130.675 7.42871Z" />
    <path d="M133.693 24.2439C133.693 25.02 134.246 25.3896 134.687 25.5374C135.203 25.7222 135.681 25.8331 136.381 25.87C138.221 25.87 139.141 25.02 140.062 22.8026L143.89 13.6004C143.963 13.4526 144.037 13.12 144.037 12.8613C144.037 12.0483 143.374 11.42 142.565 11.42C141.792 11.42 141.35 11.9374 141.092 12.6026L138.81 18.9591L136.454 12.5657C136.196 11.8265 135.755 11.3831 134.982 11.3831C134.098 11.3831 133.436 11.9744 133.436 12.8613C133.436 13.0461 133.509 13.3418 133.583 13.5635L137.301 22.2483L137.19 22.507C136.896 23.0613 136.638 23.1722 136.086 23.1722C135.865 23.1722 135.681 23.1352 135.423 23.0613C135.313 23.0244 135.166 22.9874 134.908 22.9874C134.282 22.9874 133.693 23.4678 133.693 24.2439Z" />
  </symbol>

  <symbol id="unsplash-logo" viewBox="0 0 150 34">
    <path d="M28.6745 12.6276V28.5182H0V12.6276H9.02231V20.5566H19.6194V12.6276H28.6745ZM50.164 20.7524C50.164 23.4607 48.3924 25.0269 45.9318 25.0269C43.5367 25.0269 41.7323 23.428 41.7323 20.7524V7.96161H37.7297V20.7198C37.7297 25.7447 41.3386 28.9424 45.9646 28.9424C50.6234 28.9424 54.1995 25.7447 54.1995 20.7198V7.96161H50.1968V20.7524H50.164ZM64.5013 13.8676C62.9593 13.8676 61.2533 14.5202 60.3675 16.0211V14.2591H56.6273V28.5182H60.4987V20.2956C60.4987 18.6315 61.4829 17.3263 63.189 17.3263C65.0591 17.3263 65.8465 18.5662 65.8465 20.1651V28.4856H69.7178V19.5125C69.685 16.38 68.0446 13.8676 64.5013 13.8676ZM78.7073 19.8714C78.7073 19.8714 77.395 19.6104 76.5748 19.4472C75.7546 19.2841 75.2625 18.8599 75.2625 18.1747C75.2625 17.3589 75.9843 16.7716 77.0013 16.7716C78.4449 16.7716 79.0026 17.4894 79.1339 18.3704H82.4803C82.4475 16.4127 80.9055 13.8676 77.0669 13.8676C73.9829 13.8676 71.7192 15.9885 71.7192 18.5336C71.7192 20.524 72.9659 22.1881 75.7218 22.7754L77.6903 23.1996C78.8058 23.428 79.2323 23.9501 79.2323 24.6027C79.2323 25.3532 78.5433 26.0058 77.2638 26.0058C75.7218 26.0058 74.8688 25.1248 74.6719 24.1132H71.227C71.4239 26.2342 72.9659 28.9424 77.2966 28.9424C81.0368 28.9424 82.9396 26.5605 82.9396 24.2438C82.9724 22.1555 81.5289 20.4587 78.7073 19.8714ZM99.4423 21.3397C99.4423 25.6468 96.7192 28.8445 92.6837 28.8445C90.7152 28.8445 89.2388 28.0614 88.5499 27.1152V34H84.6785V14.2591H88.4186V16.0211C89.0748 14.9117 90.6496 13.9328 92.815 13.9328C97.0144 13.9328 99.4423 17.1305 99.4423 21.3397ZM95.6365 21.3724C95.6365 18.8599 94.0617 17.3916 92.0932 17.3916C90.1247 17.3916 88.5171 18.8599 88.5171 21.3724C88.5171 23.8848 90.1247 25.3858 92.0932 25.3858C94.0617 25.3858 95.6365 23.9175 95.6365 21.3724ZM121.686 14.2591V28.5182H117.815V26.7562C117.159 27.8983 115.65 28.8445 113.681 28.8445C109.646 28.8445 106.923 25.6468 106.923 21.3397C106.923 17.0979 109.35 13.9328 113.517 13.9328C115.682 13.9328 117.224 14.9117 117.913 16.0211V14.2591H121.686ZM117.881 21.3724C117.881 18.8599 116.273 17.3916 114.304 17.3916C112.336 17.3916 110.761 18.8599 110.761 21.3724C110.761 23.9175 112.336 25.3858 114.304 25.3858C116.273 25.3858 117.881 23.8848 117.881 21.3724ZM101.247 28.4856H105.118V7.96161H101.247V28.4856ZM144.685 13.8676C143.307 13.8676 141.732 14.3244 140.814 15.4338V7.96161H136.942V28.4856H140.814V20.1324C140.912 18.5662 141.864 17.3589 143.504 17.3589C145.374 17.3589 146.161 18.5988 146.161 20.1977V28.5182H150.033V19.5451C150 16.38 148.327 13.8676 144.685 13.8676ZM130.906 19.8714C130.906 19.8714 129.593 19.6104 128.773 19.4472C127.953 19.2841 127.461 18.8599 127.461 18.1747C127.461 17.3589 128.182 16.7716 129.199 16.7716C130.643 16.7716 131.201 17.4894 131.332 18.3704H134.678C134.646 16.4127 133.104 13.8676 129.265 13.8676C126.181 13.8676 123.917 15.9885 123.917 18.5336C123.917 20.524 125.164 22.1881 127.92 22.7754L129.888 23.1996C131.004 23.428 131.43 23.9501 131.43 24.6027C131.43 25.3532 130.741 26.0058 129.462 26.0058C127.92 26.0058 127.067 25.1248 126.87 24.1132H123.425C123.622 26.2342 125.164 28.9424 129.495 28.9424C133.235 28.9424 135.138 26.5605 135.138 24.2438C135.171 22.1555 133.727 20.4587 130.906 19.8714ZM19.6522 0H9.02231V7.96161H19.6194V0H19.6522Z" />
  </symbol>

  <symbol id="wordpress-logo" viewBox="0 0 170 40">
    <path d="M29.3904 14.5832C30.0042 15.6813 30.7496 17.087 30.7496 19.1076C30.7496 20.5133 30.2235 22.1385 29.4781 24.4227L27.8557 29.9136L21.9364 12.2111C22.9448 12.1233 23.8218 12.0354 23.8218 12.0354C24.7426 11.9037 24.611 10.6298 23.7341 10.6737C23.7341 10.6737 21.0594 10.8933 19.3494 10.8933C17.727 10.8933 15.0085 10.6737 15.0085 10.6737C14.1316 10.6298 14.0439 11.9915 14.9208 12.0354C14.9208 12.0354 15.7539 12.1672 16.6308 12.2111L19.174 19.2394L15.5347 30.0453L9.57145 12.2111C10.5799 12.1233 11.4569 12.0354 11.4569 12.0354C12.3777 11.9037 12.2461 10.6298 11.3692 10.6737C11.3692 10.6737 8.6945 10.8933 6.98446 10.8933H5.93213C8.86989 6.45675 13.9123 3.51367 19.6563 3.51367C23.9533 3.51367 27.8119 5.13896 30.7496 7.81848H30.5304C28.9081 7.81848 27.768 9.22413 27.768 10.7176C27.768 11.9563 28.4211 13.0133 29.1662 14.2192L29.1668 14.2202C29.2406 14.3396 29.3153 14.4605 29.3904 14.5832Z" />
    <path d="M12.5091 34.7457C7.02818 32.0662 3.25732 26.4436 3.25732 19.9424C3.25732 17.5704 3.73964 15.2862 4.66043 13.2217L12.5091 34.7457Z" />
    <path d="M19.963 21.3916L15.0083 35.7117C16.4991 36.1509 18.0338 36.3706 19.6561 36.3706C21.5854 36.3706 23.3831 36.0192 25.0932 35.4481C25.0712 35.4042 25.0493 35.3712 25.0274 35.3383C25.0055 35.3054 24.9835 35.2724 24.9616 35.2285L19.963 21.3916Z" />
    <path d="M34.2134 13.7483C34.2134 13.1333 34.1696 12.5623 34.0819 12.0352C35.3534 14.4072 36.0988 17.0867 36.055 19.9419C36.055 26.0038 32.7665 31.3189 27.8994 34.1742L32.9857 19.6345C33.9065 17.3063 34.2134 15.4175 34.2134 13.7483Z" />
    <path fill-rule="evenodd" clip-rule="evenodd" d="M19.6563 0.746094C9.08917 0.746094 0.495117 9.35571 0.495117 19.942C0.495117 30.5283 9.08917 39.1379 19.6563 39.1379C30.2235 39.1379 38.8176 30.5283 38.8176 19.942C38.8176 9.35571 30.2235 0.746094 19.6563 0.746094ZM19.6563 38.2594C9.57149 38.2594 1.37206 30.0451 1.37206 19.942C1.37206 9.8389 9.57149 1.62463 19.6563 1.62463C29.7412 1.62463 37.9406 9.8389 37.9406 19.942C37.9406 30.0451 29.7412 38.2594 19.6563 38.2594Z" />
    <path d="M57.1894 23.2804L59.7325 15.6811C60.4779 13.4848 60.1271 12.8698 57.7594 12.8698V12.123H64.7311V12.8698C62.4072 12.8698 61.8372 13.4408 60.9164 16.1204L56.7071 28.8152H56.2247L52.4539 17.1746L48.5953 28.8152H48.113L43.9914 16.1643C43.1144 13.4408 42.5006 12.9137 40.3521 12.9137V12.167H48.5953V12.9137C46.403 12.9137 45.833 13.4408 46.5784 15.725L49.0776 23.3243L52.8047 12.167H53.5062L57.1894 23.2804Z" />
    <path fill-rule="evenodd" clip-rule="evenodd" d="M98.4061 15.8564H91.7414V16.5593C93.8022 16.5593 94.153 16.9985 94.153 19.6341V24.3782C94.153 27.0138 93.8022 27.497 91.7414 27.497C90.1629 27.2773 89.0667 26.3988 87.5759 24.7735L85.8658 22.9286C88.1459 22.5333 89.3736 21.0837 89.3736 19.4145C89.3736 17.3499 87.6197 15.8125 84.375 15.8125H77.8418V16.5153C79.9026 16.5153 80.2534 16.9546 80.2534 19.5902V24.3343C80.2534 26.9699 79.9026 27.453 77.8418 27.453V28.1559H85.2081V27.453C83.1473 27.453 82.7965 26.9699 82.7965 24.3343V23.0165H83.4104L87.532 28.1998H98.3184C103.624 28.1998 105.948 25.3885 105.948 22.0061C105.992 18.6677 103.712 15.8564 98.4061 15.8564ZM82.8404 16.9985H84.375C86.0412 16.9985 86.7866 18.1406 86.7866 19.5023C86.7866 20.8201 86.0412 21.9622 84.375 21.9622H82.8404V16.9985ZM98.4938 27.1016H98.2308C96.9153 27.1016 96.6961 26.7502 96.6961 25.0371V16.9985H98.4938C102.352 16.9985 103.054 19.8098 103.054 22.0061C103.054 24.2464 102.352 27.1016 98.4938 27.1016Z" />
    <path fill-rule="evenodd" clip-rule="evenodd" d="M69.8174 28.7277C65.7396 28.7277 62.4072 25.6968 62.4072 22.0509C62.4072 18.405 65.7396 15.374 69.8174 15.374C73.8952 15.374 77.2276 18.405 77.2276 22.0509C77.2276 25.6968 73.8952 28.7277 69.8174 28.7277ZM69.8174 16.5161C66.3973 16.5161 65.2135 19.591 65.2135 22.0069C65.2135 24.4668 66.3973 27.4978 69.8174 27.4978C73.2813 27.4978 74.4652 24.4668 74.4652 22.0069C74.4652 19.6349 73.2813 16.5161 69.8174 16.5161Z" />
    <path fill-rule="evenodd" clip-rule="evenodd" d="M115.156 27.4974V28.2441H106.649V27.4974C109.149 27.4974 109.587 26.8824 109.587 23.1486V17.2185C109.587 13.4848 109.149 12.9137 106.649 12.9137V12.167H114.323C118.137 12.167 120.242 14.1437 120.242 16.7793C120.242 19.327 118.137 21.3477 114.323 21.3477H112.218V23.1486C112.218 26.8824 112.7 27.4974 115.156 27.4974ZM114.367 13.4848H112.262V19.942H114.367C116.427 19.942 117.392 18.4924 117.392 16.7354C117.392 14.9783 116.427 13.4848 114.367 13.4848Z" />
    <path fill-rule="evenodd" clip-rule="evenodd" d="M145.761 24.7296L145.585 25.3885C145.235 26.6184 144.84 27.0577 142.209 27.0577H141.683C139.754 27.0577 139.403 26.6184 139.403 23.9828V22.3136C142.297 22.3136 142.516 22.5772 142.516 24.51H143.218V18.9313H142.516C142.516 20.8641 142.297 21.1276 139.403 21.1276V16.9546H141.464C144.095 16.9546 144.489 17.3939 144.84 18.6238L145.015 19.3266H145.629L145.366 15.8125H134.448V16.5153C136.509 16.5153 136.86 16.9546 136.86 19.5902V24.3343C136.86 26.7502 136.597 27.3652 134.931 27.453C133.352 27.2334 132.3 26.3549 130.853 24.7735L129.143 22.9286C131.423 22.5333 132.65 21.0837 132.65 19.4145C132.65 17.3499 130.897 15.8125 127.652 15.8125H121.119V16.5153C123.179 16.5153 123.53 16.9546 123.53 19.5902V24.3343C123.53 26.9699 123.179 27.453 121.119 27.453V28.1559H128.485V27.453C126.424 27.453 126.073 26.9699 126.073 24.3343V23.0165H126.687L130.809 28.1998H146.112L146.331 24.6857H145.761V24.7296ZM126.117 21.9622V16.9985H127.652C129.318 16.9985 130.063 18.1406 130.063 19.5023C130.063 20.8201 129.318 21.9622 127.652 21.9622H126.117Z" />
    <path d="M153.303 28.7277C151.812 28.7277 150.54 27.937 149.97 27.4538C149.795 27.6295 149.444 28.2006 149.356 28.7277H148.655V23.5883H149.4C149.707 26.0482 151.417 27.4978 153.61 27.4978C154.793 27.4978 155.758 26.8389 155.758 25.6968C155.758 24.7304 154.925 23.9836 153.39 23.2808L151.286 22.2705C149.795 21.5677 148.699 20.3377 148.699 18.7124C148.699 16.9115 150.365 15.4179 152.689 15.4179C153.916 15.4179 154.969 15.8572 155.583 16.3843C155.758 16.2526 155.933 15.8133 156.065 15.374H156.767V19.7667H155.977C155.714 18.0096 154.75 16.56 152.776 16.56C151.724 16.56 150.759 17.175 150.759 18.0975C150.759 19.0639 151.549 19.591 153.303 20.3817L155.363 21.392C157.161 22.2266 157.863 23.6322 157.863 24.7304C157.863 27.1024 155.802 28.7277 153.303 28.7277Z" />
    <path d="M164.747 28.7277C163.256 28.7277 161.985 27.937 161.415 27.4538C161.239 27.6295 160.888 28.2006 160.801 28.7277H160.099V23.5883H160.845C161.151 26.0482 162.861 27.4978 165.054 27.4978C166.238 27.4978 167.202 26.8389 167.202 25.6968C167.202 24.7304 166.369 23.9836 164.835 23.2808L162.73 22.2705C161.239 21.5677 160.143 20.3377 160.143 18.7124C160.143 16.9115 161.809 15.4179 164.133 15.4179C165.361 15.4179 166.413 15.8572 167.027 16.3843C167.202 16.2526 167.378 15.8133 167.509 15.374H168.211V19.7667H167.422C167.159 18.0096 166.194 16.56 164.221 16.56C163.168 16.56 162.204 17.175 162.204 18.0975C162.204 19.0639 162.993 19.591 164.747 20.3817L166.808 21.392C168.605 22.2266 169.307 23.6322 169.307 24.7304C169.263 27.1024 167.246 28.7277 164.747 28.7277Z" />
  </symbol>

  <symbol id="medium-logo" viewBox="0 0 194 30">
    <path d="M91.7619 1.29333L91.6973 1.61667C90.2099 1.94 89.4339 2.45733 89.4339 4.268V26.2547C89.5633 27.6773 90.3393 28.13 91.6973 28.4533H91.7619V28.7767H81.2213V28.4533H81.2859C82.6439 28.13 83.4199 27.6773 83.5493 26.2547V4.85L73.3966 28.712H72.8146L62.9206 5.49667V25.7373C62.9206 27.548 63.6966 28.0653 65.1839 28.3887H65.2486V28.712H59.1699V28.3887H59.2346C60.7219 28.0653 61.4979 27.548 61.4979 25.7373V4.268C61.4979 2.45733 60.7219 1.94 59.2346 1.61667H59.1699V1.29333H68.0939L75.7893 19.3353L83.4846 1.29333H91.7619Z" />
    <path fill-rule="evenodd" clip-rule="evenodd" d="M108.769 16.878H96.4179C96.1593 21.146 98.8106 24.638 102.303 24.7673C104.825 24.9613 107.023 23.4093 108.252 20.8873L108.575 21.0167C107.864 25.7373 105.083 29.294 100.233 29.294C94.7366 29.294 91.6326 24.7027 91.5033 18.9473V17.46C91.7619 14.938 92.5379 12.6747 93.8959 10.9933C94.7366 9.95866 95.7066 9.18267 96.8706 8.66533C97.8406 8.148 99.2633 7.88933 100.427 7.88933H100.492C102.691 7.88933 104.825 8.66533 106.247 10.0233C107.864 11.5753 108.705 13.8387 108.769 16.8133V16.878ZM100.427 9.118C98.0993 9.118 96.7413 11.8987 96.5473 15.7787V15.8433H103.596C103.725 12.804 103.208 10.7993 102.238 9.82933C101.721 9.37667 101.139 9.118 100.427 9.118Z" />
    <path fill-rule="evenodd" clip-rule="evenodd" d="M128.622 25.608C128.622 27.548 129.398 28.0653 130.885 28.4533L130.95 28.7767H122.737V25.608C121.767 27.936 119.763 29.3587 117.176 29.3587C112.779 29.3587 109.869 25.3493 109.869 19.4C109.869 16.0373 110.839 13.192 112.649 11.058C114.395 8.98867 116.788 7.88933 119.439 7.88933C120.733 7.88933 121.832 8.148 122.737 8.73V5.238C122.737 4.462 122.543 3.94467 122.155 3.55667C121.638 3.104 120.797 2.91 119.504 3.03933H119.439V2.716L128.622 0V25.608ZM120.345 26.19C121.509 26.19 122.349 25.6727 122.737 24.7027V10.476C122.285 9.57067 121.444 9.05333 120.409 9.05333C117.823 9.05333 116.206 12.4807 116.206 17.7833C116.206 20.3053 116.659 22.504 117.435 23.9913C118.146 25.414 119.181 26.19 120.345 26.19Z" />
    <path d="M135.477 0.193999C137.352 0.193999 138.775 1.61667 138.775 3.492C138.775 5.36733 137.352 6.79 135.477 6.79C133.601 6.79 132.179 5.36733 132.179 3.492C132.179 1.61667 133.601 0.193999 135.477 0.193999Z" />
    <path d="M138.645 25.608C138.645 27.548 139.421 28.0653 140.909 28.4533L140.973 28.7767H132.761V13.5153C132.761 11.446 132.308 10.7993 130.497 10.67H130.433V10.3467L138.645 7.954V25.608Z" />
    <path d="M159.791 25.608C159.791 27.548 160.567 28.0653 162.055 28.4533V28.7767H153.842V25.5433C152.872 27.8713 150.738 29.3587 148.345 29.3587C145.5 29.3587 143.689 28.0653 142.978 25.5433L142.849 24.8967C142.719 24.25 142.655 23.6033 142.655 22.9567V13.5153C142.655 11.446 142.202 10.7993 140.391 10.67H140.327V10.3467L148.539 7.954V22.8273C148.539 25.026 149.509 26.2547 151.32 26.2547C152.419 26.2547 153.325 25.6727 153.842 24.7027V13.5153C153.842 11.3813 153.454 10.7347 151.967 10.6053H151.902V10.282L159.791 7.954V25.608Z" />
    <path d="M194 28.4533V28.7767H185.723V14.0973C185.723 11.7693 184.882 10.6053 183.136 10.6053C181.713 10.6053 181.002 11.64 180.614 12.5453C180.679 12.9979 180.743 13.4508 180.743 13.9033V26.1253C180.743 27.6127 181.196 28.13 182.489 28.4533H182.554V28.7767H174.859V14.0973C174.859 11.7693 173.953 10.6053 172.272 10.6053C170.914 10.6053 170.203 11.5753 169.879 12.3513V26.19C169.879 27.6773 170.332 28.1947 171.625 28.518H171.69V28.8413H163.995V13.4507C163.995 11.3813 163.477 10.7347 161.731 10.6053H161.667V10.282L169.879 8.01867V11.446C170.72 9.24733 172.66 7.954 175.117 7.954C177.898 7.954 179.838 9.312 180.485 11.7693C181.325 9.44133 183.459 7.954 186.046 7.954C189.538 7.954 191.672 10.1527 191.672 13.9033V25.9313C191.672 27.354 192.319 28.0653 193.935 28.4533H194Z" />
    <path d="M14.55 29.5526C22.5687 29.5526 29.1 23.0212 29.1 14.9379C29.1 6.85458 22.5687 0.323242 14.55 0.323242C6.53133 0.323242 0 6.78991 0 14.9379C0 23.0859 6.53133 29.5526 14.55 29.5526Z" />
    <path d="M37.8301 28.7121C41.8394 28.7121 45.0727 22.5687 45.0727 14.9381C45.0727 7.37206 41.7747 1.16406 37.8301 1.16406C33.8207 1.16406 30.5874 7.3074 30.5874 14.9381C30.5874 22.5687 33.8207 28.7121 37.8301 28.7121Z" />
    <path d="M51.5395 14.9382C51.5395 21.7282 50.3755 27.2896 48.9529 27.2896C47.5302 27.2896 46.3662 21.7282 46.3662 14.9382C46.3662 8.14825 47.5302 2.58691 48.9529 2.58691C50.4402 2.58691 51.5395 8.14825 51.5395 14.9382Z" />
  </symbol>

  <symbol id="blogger-logo" viewBox="0 0 118 34">
    <path d="M13.2315 11.9254H17.0947C17.8177 11.9254 18.407 12.51 18.407 13.2332C18.407 13.9538 17.8177 14.5411 17.0947 14.5411H13.2315C12.5085 14.5411 11.9192 13.9538 11.9192 13.2332C11.9192 12.51 12.5085 11.9254 13.2315 11.9254Z" />
    <path d="M13.2233 19.5795H20.9743C21.6591 19.5795 22.2184 20.1287 22.2184 20.8112C22.2184 21.4937 21.6591 22.0538 20.9743 22.0538H13.2233C12.5386 22.0538 11.9875 21.4937 11.9875 20.8112C11.9875 20.1287 12.5386 19.5795 13.2233 19.5795Z" />
    <path fill-rule="evenodd" clip-rule="evenodd" d="M34.103 28.9034C34.103 31.7313 31.8113 33.9881 29.0012 33.9881H5.11545C2.28899 33.9881 0 31.7313 0 28.9034V5.09821C0 2.284 2.29036 0 5.11545 0H29.0012C31.8113 0 34.103 2.28291 34.103 5.09821V28.9034ZM13.4007 6.41113C9.63571 6.41113 6.58281 9.45374 6.58008 13.2087V20.6671C6.58008 24.4221 9.63571 27.462 13.4007 27.462H20.7424C24.5101 27.462 27.5548 24.4221 27.5548 20.6671V15.8489C27.5548 15.0985 26.9519 14.4894 26.1989 14.4894H25.023C24.3027 14.4894 23.7162 13.9293 23.6671 13.2251L23.6589 13.2087C23.6589 9.45374 20.606 6.41113 16.8383 6.41113H13.4007Z" />
    <path fill-rule="evenodd" clip-rule="evenodd" d="M42.325 8.62604C41.6972 8.6266 41.1526 8.62709 40.7598 8.62709V25.4145C41.0668 25.4145 41.4532 25.414 41.9153 25.4135C42.603 25.4127 43.4585 25.4118 44.4702 25.4118C48.2079 25.4118 49.3537 25.1534 50.445 24.2018C51.3999 23.3942 51.9183 22.0483 51.9183 20.5311C51.9183 18.4021 50.6087 16.7516 48.8899 16.5449V16.496C50.7997 15.8108 51.1271 14.212 51.1271 12.7682C51.1271 11.251 50.5814 10.1062 49.5447 9.35035C48.5359 8.6208 47.4045 8.62204 45.4994 8.62414C45.3951 8.62425 45.2885 8.62437 45.1795 8.62437C44.1887 8.62437 43.1796 8.62527 42.325 8.62604ZM45.425 22.361C44.8521 22.361 44.4702 22.361 44.1428 22.2903V17.812H45.2614C46.8983 17.812 48.2079 18.4483 48.2079 20.0525C48.2079 21.7247 46.8983 22.361 45.425 22.361ZM45.1522 15.2806H44.1428V11.4631C44.3883 11.3896 44.7703 11.3407 45.4523 11.3407C46.8165 11.3407 47.6077 12.0014 47.6077 13.2495C47.6077 14.473 46.7619 15.2806 45.1522 15.2806Z" />
    <path fill-rule="evenodd" clip-rule="evenodd" d="M59.7756 19.3347C59.7756 23.1522 60.976 25.4226 64.7137 25.4226C68.4514 25.4226 69.761 23.4404 69.761 19.1416C69.761 15.5661 68.6151 13.0809 64.8774 13.0809C61.167 13.0809 59.7756 15.5199 59.7756 19.3347ZM64.741 15.8706C66.2143 15.8706 66.4598 17.2356 66.4598 19.2721C66.4598 21.616 65.9414 22.6954 64.7137 22.6954C63.486 22.6954 62.9404 21.4555 62.9404 19.2939C62.9404 17.203 63.2405 15.8706 64.741 15.8706Z" />
    <path fill-rule="evenodd" clip-rule="evenodd" d="M81.0561 23.9836C81.056 23.884 81.0559 23.7836 81.0559 23.6824V16.999C81.0559 15.8795 81.0988 14.7955 81.1224 14.1964C81.1315 13.9675 81.1377 13.8094 81.1377 13.747C81.1105 13.5241 80.9195 13.4153 80.4557 13.4153H78.9279C78.4913 13.4153 78.4368 13.6981 78.4368 13.6981L78.1912 14.8156C77.7002 13.8341 76.9635 13.1434 75.5994 13.1434C72.1618 13.1434 71.0978 15.6014 71.0978 19.4815C71.0978 22.9211 72.1345 25.4226 75.272 25.4226C76.4179 25.4226 76.9908 25.1045 77.6183 24.2888H77.6729V25.0501C77.6729 27.2988 76.909 27.4347 75.4357 27.4347C74.4536 27.4347 73.5532 27.2988 72.8985 27.0078C72.7893 26.948 72.4074 26.9643 72.2982 27.2988C72.2495 27.412 72.1236 27.8331 72.0066 28.2244C71.9269 28.4909 71.8514 28.7436 71.8072 28.8758C71.698 29.2293 71.698 29.5556 71.9708 29.7187C72.8439 30.2081 74.399 30.4529 75.5994 30.4529C77.0727 30.4529 78.8733 30.2625 79.9646 29.1477C81.0603 27.9777 81.0584 26.1589 81.0561 23.9836ZM76.2269 15.9685C77.4819 15.9685 77.7002 17.2981 77.7002 18.3014V20.0715C77.7002 20.716 77.5637 22.5785 76.2269 22.5785C74.8628 22.5785 74.5081 21.1755 74.5081 19.3836C74.5081 17.1975 74.9992 15.9685 76.2269 15.9685Z" />
    <path fill-rule="evenodd" clip-rule="evenodd" d="M92.733 23.9836C92.7329 23.884 92.7328 23.7836 92.7328 23.6824V16.999C92.7328 15.8795 92.7756 14.7955 92.7993 14.1964C92.8084 13.9675 92.8146 13.8094 92.8146 13.747C92.7873 13.5241 92.5964 13.4153 92.1598 13.4153H90.6047C90.1682 13.4153 90.1137 13.6981 90.1137 13.6981L89.8954 14.8156C89.377 13.8341 88.6404 13.1434 87.2763 13.1434C83.8387 13.1434 82.7747 15.6014 82.7747 19.4815C82.7747 22.9211 83.8114 25.4226 86.9762 25.4226C88.0948 25.4226 88.695 25.1045 89.2952 24.2888H89.3498V25.0501C89.3498 27.2988 88.5858 27.4347 87.1126 27.4347C86.1577 27.4347 85.2301 27.2988 84.6026 27.0078C84.4662 26.948 84.0842 26.9643 83.9751 27.2988C83.959 27.355 83.9191 27.4871 83.8688 27.6537C83.7486 28.0514 83.569 28.6459 83.5113 28.8758C83.4022 29.2293 83.4022 29.5556 83.6477 29.7187C84.5208 30.2081 86.0759 30.4529 87.3036 30.4529C88.7495 30.4529 90.5775 30.2625 91.6415 29.1477C92.7371 27.9777 92.7352 26.1589 92.733 23.9836ZM87.9038 15.9685C89.1588 15.9685 89.377 17.2981 89.377 18.3014V20.0715C89.377 20.716 89.2679 22.5785 87.9038 22.5785C86.5397 22.5785 86.185 21.1755 86.185 19.3836C86.185 17.1975 86.6761 15.9685 87.9038 15.9685Z" />
    <path fill-rule="evenodd" clip-rule="evenodd" d="M100.208 22.6954C98.7349 22.6954 98.0528 21.7465 97.9437 20.2075L103.346 20.232C103.919 20.232 104 19.6202 104 18.9948C104 16.0881 103.318 13.1325 99.4715 13.1325C95.461 13.1325 94.3152 16.4253 94.3152 19.4054C94.3152 23.106 96.2795 25.4118 99.7444 25.4118C101.136 25.4118 102.391 25.1725 103.427 24.6667C103.427 24.6667 104.028 24.4302 103.864 23.9734C103.81 23.841 103.702 23.5229 103.59 23.1939C103.477 22.8604 103.36 22.5158 103.291 22.3419C103.182 22.0456 102.773 22.1 102.554 22.1761C102.437 22.2172 102.329 22.2552 102.23 22.2901C101.201 22.6525 101.079 22.6954 100.208 22.6954ZM99.3897 15.6749C100.727 15.6749 100.781 17.1159 100.781 17.9398H97.8346C97.8892 17.0235 98.1074 15.6749 99.3897 15.6749Z" />
    <path d="M59.23 24.4275C58.9299 22.2794 58.8753 22.2794 57.5657 22.2794C56.9655 22.2794 56.911 22.1761 56.911 21.7057V8.95609C56.911 8.76848 56.7473 8.61621 56.5563 8.61621H54.0463C53.8553 8.61621 53.7189 8.76848 53.7189 8.95609V23.5546C53.7462 24.4492 54.5919 25.4199 55.4923 25.4199H58.1659C58.8207 25.4199 59.3118 25.0012 59.23 24.4275Z" />
    <path d="M111.868 13.0802C111.914 13.0818 111.957 13.0832 111.994 13.0836C112.485 13.089 113.604 13.4072 113.522 14.0108C113.413 14.6144 113.14 16.1969 113.14 16.1969C113.14 16.1969 112.949 16.5857 112.594 16.4797C112.267 16.3736 111.53 16.1643 111.121 16.1643C109.866 16.1643 109.484 16.7081 109.375 18.1764C109.348 18.4211 109.32 18.8507 109.32 19.1634L109.348 25.08C109.348 25.2676 109.184 25.4199 108.993 25.4199H106.21C106.019 25.4199 105.883 25.2676 105.883 25.08V13.4371L108.775 13.4072L108.911 14.4703H108.993C110.127 13.0216 111.307 13.0613 111.868 13.0802Z" />
    <path d="M114.968 12.6214V13.9428H115.295V12.6214H115.705V12.306H114.586V12.6214H114.968Z" />
    <path d="M117.587 13.9428H117.996V12.306H117.532L117.178 13.1135L116.823 12.306H116.387V13.9428H116.741V12.8579L117.041 13.5567H117.314L117.587 12.8579V13.9428Z" />
  </symbol>
</svg>
