<svg xmlns="http://www.w3.org/2000/svg" xmlns:xlink="http://www.w3.org/1999/xlink">
  <symbol id="search-ic" viewBox="0 0 18 18">
    <path fill-rule="evenodd" clip-rule="evenodd" d="M3.56702 8.24192C3.56702 5.57651 5.7273 3.41602 8.39185 3.41602C11.0564 3.41602 13.2167 5.57651 13.2167 8.24192C13.2167 10.9073 11.0564 13.0678 8.39185 13.0678C5.7273 13.0678 3.56702 10.9073 3.56702 8.24192ZM8.39185 1.91602C4.8986 1.91602 2.06702 4.74836 2.06702 8.24192C2.06702 11.7355 4.8986 14.5678 8.39185 14.5678C9.81997 14.5678 11.1375 14.0944 12.1962 13.296L14.641 15.8521C14.9273 16.1514 15.4021 16.162 15.7014 15.8756C16.0008 15.5893 16.0113 15.1146 15.725 14.8152L13.2789 12.2579C14.1773 11.1655 14.7167 9.7667 14.7167 8.24192C14.7167 4.74836 11.8851 1.91602 8.39185 1.91602Z" />
  </symbol>

  <symbol id="write-ic" viewBox="0 0 18 18">
    <path d="M14.7559 2.82131L15.1086 3.174C15.5946 3.6606 15.5211 4.5232 14.943 5.10066L7.66978 12.3739L5.31331 13.2359C5.0174 13.3447 4.72927 13.2037 4.67069 12.9221C4.65089 12.82 4.66021 12.7143 4.69759 12.6172L5.57633 10.2404L12.8293 2.98689C13.4073 2.40943 14.2699 2.33471 14.7559 2.82131ZM7.35236 3.54463C7.43086 3.54463 7.50859 3.56009 7.58112 3.59013C7.65365 3.62017 7.71955 3.66421 7.77506 3.71971C7.83056 3.77522 7.8746 3.84112 7.90464 3.91365C7.93468 3.98618 7.95014 4.06391 7.95014 4.14241C7.95014 4.22092 7.93468 4.29865 7.90464 4.37118C7.8746 4.4437 7.83056 4.5096 7.77506 4.56511C7.71955 4.62062 7.65365 4.66465 7.58112 4.6947C7.50859 4.72474 7.43086 4.7402 7.35236 4.7402H4.96121C4.64413 4.7402 4.34003 4.86616 4.11582 5.09037C3.8916 5.31459 3.76564 5.61869 3.76564 5.93577V13.1092C3.76564 13.4263 3.8916 13.7304 4.11582 13.9546C4.34003 14.1788 4.64413 14.3048 4.96121 14.3048H12.1346C12.4517 14.3048 12.7558 14.1788 12.98 13.9546C13.2043 13.7304 13.3302 13.4263 13.3302 13.1092V10.7181C13.3302 10.5595 13.3932 10.4075 13.5053 10.2954C13.6174 10.1833 13.7695 10.1203 13.928 10.1203C14.0865 10.1203 14.2386 10.1833 14.3507 10.2954C14.4628 10.4075 14.5258 10.5595 14.5258 10.7181V13.1092C14.5258 13.7434 14.2739 14.3516 13.8254 14.8C13.377 15.2484 12.7688 15.5003 12.1346 15.5003H4.96121C4.32704 15.5003 3.71884 15.2484 3.27042 14.8C2.82199 14.3516 2.57007 13.7434 2.57007 13.1092V5.93577C2.57007 5.3016 2.82199 4.6934 3.27042 4.24498C3.71884 3.79655 4.32704 3.54463 4.96121 3.54463H7.35236Z" />
  </symbol>

  <symbol id="day-ic" viewBox="0 0 14 14">
    <path d="M7.5,12C7.5,11.724 7.276,11.5 7,11.5C6.724,11.5 6.5,11.724 6.5,12L6.5,13C6.5,13.276 6.724,13.5 7,13.5C7.276,13.5 7.5,13.276 7.5,13L7.5,12ZM3.854,10.146C4.049,10.342 4.049,10.658 3.854,10.854L3.354,11.354C3.158,11.549 2.842,11.549 2.646,11.354C2.451,11.158 2.451,10.842 2.646,10.646L3.146,10.146C3.342,9.951 3.658,9.951 3.854,10.146ZM10.146,10.146C10.342,9.951 10.658,9.951 10.854,10.146L11.353,10.646C11.549,10.842 11.549,11.158 11.353,11.354C11.158,11.549 10.842,11.549 10.646,11.354L10.146,10.854C9.951,10.658 9.951,10.342 10.146,10.146ZM2.971,7C2.971,4.775 4.775,2.972 7,2.972C9.225,2.972 11.028,4.775 11.028,7C11.028,9.225 9.225,11.029 7,11.029C4.775,11.029 2.971,9.225 2.971,7ZM7,4.172C5.438,4.172 4.171,5.438 4.171,7C4.171,8.562 5.438,9.829 7,9.829C8.562,9.829 9.829,8.562 9.829,7C9.829,5.438 8.562,4.172 7,4.172ZM1,6.5C0.724,6.5 0.5,6.724 0.5,7C0.5,7.276 0.724,7.5 1,7.5L2,7.5C2.276,7.5 2.5,7.276 2.5,7C2.5,6.724 2.276,6.5 2,6.5L1,6.5ZM12,6.5C11.724,6.5 11.5,6.724 11.5,7C11.5,7.276 11.724,7.5 12,7.5L13,7.5C13.276,7.5 13.5,7.276 13.5,7C13.5,6.724 13.276,6.5 13,6.5L12,6.5ZM2.646,2.646C2.842,2.451 3.158,2.451 3.354,2.646L3.854,3.146C4.049,3.342 4.049,3.658 3.854,3.854C3.658,4.049 3.342,4.049 3.146,3.854L2.646,3.354C2.451,3.158 2.451,2.842 2.646,2.646ZM10.646,2.646C10.842,2.451 11.158,2.451 11.353,2.646C11.549,2.842 11.549,3.158 11.353,3.354L10.854,3.854C10.658,4.049 10.342,4.049 10.146,3.854C9.951,3.658 9.951,3.342 10.146,3.146L10.646,2.646ZM7,0.5C7.276,0.5 7.5,0.724 7.5,1L7.5,2C7.5,2.276 7.276,2.5 7,2.5C6.724,2.5 6.5,2.276 6.5,2L6.5,1C6.5,0.724 6.724,0.5 7,0.5Z" />
  </symbol>

  <symbol id="night-ic" viewBox="0 0 14 14">
    <path d="M9.58384 3.70523C11.3762 5.21741 11.6043 7.90753 10.0922 9.69992C8.58 11.4923 5.88988 11.7204 4.09748 10.2083C3.9593 10.0917 3.82796 9.96696 3.71098 9.83348C5.22794 9.6105 6.64199 8.84153 7.65354 7.64254C8.66509 6.44354 9.18497 4.9202 9.14933 3.38736C9.3006 3.48019 9.44565 3.58865 9.58384 3.70523ZM10.2696 2.89236C9.52992 2.26828 8.66346 1.88515 7.77453 1.72656C8.39657 3.45496 8.10938 5.45292 6.84066 6.95674C5.57194 8.46057 3.65087 9.08008 1.84241 8.75795C2.14841 9.60749 2.67197 10.3971 3.41169 11.0211C5.65523 12.9139 9.01226 12.6293 10.9051 10.3857C12.7978 8.14217 12.5132 4.78515 10.2696 2.89236Z" />
  </symbol>

  <symbol id="facebook-ic" viewBox="0 0 6 10">
    <path d="M1.77617 10H3.8917V5.4375H5.66065L5.9278 3.6625H3.8917V2.525C3.8917 2.0125 4.05776 1.6625 4.90975 1.6625H6V0.0687499C5.81227 0.0499999 5.16967 0 4.41877 0C2.84477 0 1.77617 0.83125 1.77617 2.35V3.6625H0V5.4375H1.77617V10Z" />
  </symbol>

  <symbol id="pinterest-ic" viewBox="0 0 14 14">
    <path d="M6.97609 0.302734C5.34767 0.313786 3.7737 0.888369 2.52344 1.92819C1.27318 2.96801 0.424311 4.40846 0.122059 6.00311C-0.180194 7.59776 0.0829485 9.24753 0.86647 10.6702C1.64999 12.0928 2.9052 13.2 4.41738 13.8022C4.31575 13.1394 4.31575 12.4651 4.41738 11.8023L5.2452 8.30243C5.11419 7.98546 5.04932 7.64523 5.05455 7.30247C5.05455 6.3325 5.62148 5.60253 6.32387 5.60253C6.45111 5.60063 6.57727 5.62615 6.69369 5.67736C6.81011 5.72856 6.91405 5.80424 6.99839 5.89921C7.08273 5.99418 7.14547 6.1062 7.18232 6.22758C7.21917 6.34897 7.22926 6.47686 7.21189 6.60249C7.21189 7.20247 6.8306 8.10244 6.62991 8.93241C6.58672 9.08719 6.58158 9.25006 6.61494 9.40724C6.6483 9.56442 6.71916 9.71127 6.82154 9.83537C6.92392 9.95947 7.0548 10.0572 7.20309 10.1202C7.35138 10.1832 7.51273 10.2097 7.67346 10.1974C8.9177 10.1974 9.88098 8.88241 9.88098 6.99248C9.89349 6.60844 9.82554 6.22601 9.68146 5.8696C9.53738 5.51319 9.32034 5.19062 9.04418 4.92247C8.76802 4.65431 8.43881 4.44647 8.07755 4.31219C7.71629 4.17791 7.3309 4.12015 6.94599 4.14259C6.53504 4.125 6.12478 4.19069 5.74004 4.33569C5.35531 4.48069 5.0041 4.70198 4.70767 4.98617C4.41124 5.27036 4.17576 5.61154 4.01548 5.98905C3.8552 6.36656 3.77346 6.77256 3.77519 7.18247C3.76961 7.75352 3.94521 8.31173 4.2769 8.77741C4.30102 8.80413 4.3182 8.83633 4.32695 8.87119C4.33569 8.90605 4.33574 8.94252 4.32707 8.9774C4.27188 9.1974 4.15147 9.67738 4.13141 9.77237C4.11134 9.86737 4.02605 9.92737 3.8956 9.86737C3.01761 9.45739 2.47075 8.18243 2.47075 7.15247C2.47075 4.94756 4.08124 2.91763 7.11155 2.91763C9.54484 2.91763 11.4413 4.64757 11.4413 6.96248C11.4413 9.37239 9.93617 11.3123 7.79387 11.3123C7.47981 11.3232 7.168 11.2557 6.88675 11.116C6.6055 10.9763 6.36373 10.7688 6.18339 10.5123L5.74691 12.1773C5.53767 12.8243 5.24417 13.4412 4.87393 14.0122C5.55615 14.2131 6.26476 14.3109 6.97609 14.3022C8.83895 14.3022 10.6255 13.5647 11.9427 12.252C13.26 10.9393 14 9.15891 14 7.30247C14 5.44602 13.26 3.66561 11.9427 2.35291C10.6255 1.0402 8.83895 0.302734 6.97609 0.302734Z" />
  </symbol>

  <symbol id="instagram-ic" viewBox="0 0 10 10">
    <path d="M9.96779 2.95155C9.96219 2.53167 9.88346 2.11596 9.73512 1.72303C9.60648 1.39159 9.41001 1.09059 9.15825 0.839245C8.90649 0.587905 8.60498 0.391757 8.27299 0.263333C7.88446 0.117728 7.474 0.0389962 7.05908 0.0304912C6.52488 0.00665266 6.35551 0 4.99944 0C3.64338 0 3.46957 3.72529e-08 2.93925 0.0304912C2.52452 0.0390587 2.11425 0.117789 1.7259 0.263333C1.39386 0.391667 1.0923 0.587784 0.840534 0.839136C0.588763 1.09049 0.39232 1.39154 0.263772 1.72303C0.117632 2.11062 0.03894 2.5203 0.0310973 2.93436C0.00721901 3.46823 0 3.63732 0 4.99113C0 6.34494 -3.72529e-09 6.51791 0.0310973 7.0479C0.0394269 7.46258 0.117725 7.87172 0.263772 8.26034C0.392535 8.59173 0.589125 8.89266 0.84098 9.14391C1.09283 9.39515 1.39442 9.59119 1.72645 9.71948C2.11375 9.87094 2.52409 9.95531 2.93981 9.96896C3.47457 9.99279 3.64394 10 5 10C6.35606 10 6.52988 10 7.0602 9.96896C7.4751 9.9608 7.88558 9.88225 8.2741 9.73667C8.606 9.6081 8.90743 9.4119 9.15917 9.16057C9.41092 8.90925 9.60744 8.60832 9.73623 8.27697C9.88228 7.8889 9.96057 7.47977 9.9689 7.06453C9.99278 6.53121 10 6.36213 10 5.00776C9.99889 3.65395 9.99889 3.48209 9.96779 2.95155ZM4.99611 7.55128C3.57785 7.55128 2.42892 6.40426 2.42892 4.98836C2.42892 3.57246 3.57785 2.42544 4.99611 2.42544C5.67698 2.42544 6.32995 2.69546 6.81139 3.1761C7.29283 3.65674 7.56331 4.30863 7.56331 4.98836C7.56331 5.66809 7.29283 6.31998 6.81139 6.80062C6.32995 7.28126 5.67698 7.55128 4.99611 7.55128ZM7.66548 2.92826C7.58685 2.92834 7.50897 2.91293 7.43631 2.88292C7.36365 2.85291 7.29763 2.80889 7.24203 2.75338C7.18643 2.69788 7.14234 2.63196 7.11228 2.55942C7.08222 2.48688 7.06679 2.40914 7.06686 2.33064C7.06686 2.25219 7.08234 2.17451 7.11241 2.10204C7.14247 2.02957 7.18655 1.96371 7.24211 1.90825C7.29767 1.85278 7.36363 1.80878 7.43623 1.77876C7.50882 1.74874 7.58663 1.73329 7.66521 1.73329C7.74378 1.73329 7.82159 1.74874 7.89418 1.77876C7.96678 1.80878 8.03274 1.85278 8.0883 1.90825C8.14386 1.96371 8.18793 2.02957 8.218 2.10204C8.24807 2.17451 8.26355 2.25219 8.26355 2.33064C8.26355 2.66105 7.99589 2.92826 7.66548 2.92826Z" />
  </symbol>

  <symbol id="twitter-ic" viewBox="0 0 11 9">
    <path d="M11 1.0654C10.5952 1.24609 10.1603 1.36822 9.7038 1.42316C10.1698 1.14197 10.5276 0.696697 10.6961 0.16616C10.2531 0.430817 9.76843 0.617284 9.26303 0.717505C8.85135 0.275953 8.26487 0 7.61574 0C6.36939 0 5.35889 1.01729 5.35889 2.272C5.35889 2.4501 5.37887 2.62348 5.41733 2.78982C3.54174 2.69503 1.87885 1.79052 0.765746 0.415898C0.571527 0.751464 0.460238 1.1418 0.460238 1.55813C0.460238 2.3464 0.858688 3.0418 1.4642 3.44927C1.10582 3.43797 0.755326 3.34052 0.441977 3.16505C0.441848 3.17457 0.441848 3.18408 0.441848 3.19364C0.441848 4.29447 1.21975 5.21279 2.25212 5.42152C1.9198 5.51251 1.57121 5.52583 1.23299 5.46045C1.52015 6.36311 2.35361 7.01996 3.34112 7.03835C2.56876 7.6477 1.59564 8.01095 0.538355 8.01095C0.356168 8.01095 0.176559 8.00018 0 7.9792C0.998723 8.62386 2.18496 9 3.45941 9C7.6105 9 9.88041 5.53789 9.88041 2.53549C9.88041 2.43695 9.87826 2.33896 9.87388 2.24154C10.3157 1.91999 10.697 1.52171 11 1.0654" />
  </symbol>

  <symbol id="pagination-arrow-left" viewBox="0 0 11 8">
    <path fill-rule="evenodd" clip-rule="evenodd" d="M4.07843 7.85258L0.896447 4.6706C0.701185 4.47533 0.701185 4.15875 0.896447 3.96349L4.07843 0.781508C4.27369 0.586246 4.59027 0.586246 4.78553 0.781508C4.9808 0.976771 4.9808 1.29335 4.78553 1.48862L2.45711 3.81704L11.25 3.81704L11.25 4.81704L2.45711 4.81704L4.78553 7.14547C4.9808 7.34073 4.9808 7.65731 4.78553 7.85258C4.59027 8.04784 4.27369 8.04784 4.07843 7.85258Z"/>
  </symbol>

  <symbol id="pagination-arrow-right" viewBox="0 0 11 8">
    <path fill-rule="evenodd" clip-rule="evenodd" d="M7.42157 7.85258L10.6036 4.6706C10.7988 4.47533 10.7988 4.15875 10.6036 3.96349L7.42157 0.781508C7.22631 0.586246 6.90973 0.586246 6.71447 0.781508C6.5192 0.976771 6.5192 1.29335 6.71447 1.48862L9.04289 3.81704L0.25 3.81704L0.25 4.81704L9.04289 4.81704L6.71447 7.14547C6.5192 7.34073 6.5192 7.65731 6.71447 7.85258C6.90973 8.04784 7.22631 8.04784 7.42157 7.85258Z" />
  </symbol>
</svg>
