<svg xmlns="http://www.w3.org/2000/svg" xmlns:xlink="http://www.w3.org/1999/xlink">
  <symbol id="search-ic" viewBox="0 0 18 18">
    <path fill-rule="evenodd" clip-rule="evenodd" d="M3.56702 8.24192C3.56702 5.57651 5.7273 3.41602 8.39185 3.41602C11.0564 3.41602 13.2167 5.57651 13.2167 8.24192C13.2167 10.9073 11.0564 13.0678 8.39185 13.0678C5.7273 13.0678 3.56702 10.9073 3.56702 8.24192ZM8.39185 1.91602C4.8986 1.91602 2.06702 4.74836 2.06702 8.24192C2.06702 11.7355 4.8986 14.5678 8.39185 14.5678C9.81997 14.5678 11.1375 14.0944 12.1962 13.296L14.641 15.8521C14.9273 16.1514 15.4021 16.162 15.7014 15.8756C16.0008 15.5893 16.0113 15.1146 15.725 14.8152L13.2789 12.2579C14.1773 11.1655 14.7167 9.7667 14.7167 8.24192C14.7167 4.74836 11.8851 1.91602 8.39185 1.91602Z" />
  </symbol>

  <symbol id="write-ic" viewBox="0 0 18 18">
    <path d="M14.7559 2.82131L15.1086 3.174C15.5946 3.6606 15.5211 4.5232 14.943 5.10066L7.66978 12.3739L5.31331 13.2359C5.0174 13.3447 4.72927 13.2037 4.67069 12.9221C4.65089 12.82 4.66021 12.7143 4.69759 12.6172L5.57633 10.2404L12.8293 2.98689C13.4073 2.40943 14.2699 2.33471 14.7559 2.82131ZM7.35236 3.54463C7.43086 3.54463 7.50859 3.56009 7.58112 3.59013C7.65365 3.62017 7.71955 3.66421 7.77506 3.71971C7.83056 3.77522 7.8746 3.84112 7.90464 3.91365C7.93468 3.98618 7.95014 4.06391 7.95014 4.14241C7.95014 4.22092 7.93468 4.29865 7.90464 4.37118C7.8746 4.4437 7.83056 4.5096 7.77506 4.56511C7.71955 4.62062 7.65365 4.66465 7.58112 4.6947C7.50859 4.72474 7.43086 4.7402 7.35236 4.7402H4.96121C4.64413 4.7402 4.34003 4.86616 4.11582 5.09037C3.8916 5.31459 3.76564 5.61869 3.76564 5.93577V13.1092C3.76564 13.4263 3.8916 13.7304 4.11582 13.9546C4.34003 14.1788 4.64413 14.3048 4.96121 14.3048H12.1346C12.4517 14.3048 12.7558 14.1788 12.98 13.9546C13.2043 13.7304 13.3302 13.4263 13.3302 13.1092V10.7181C13.3302 10.5595 13.3932 10.4075 13.5053 10.2954C13.6174 10.1833 13.7695 10.1203 13.928 10.1203C14.0865 10.1203 14.2386 10.1833 14.3507 10.2954C14.4628 10.4075 14.5258 10.5595 14.5258 10.7181V13.1092C14.5258 13.7434 14.2739 14.3516 13.8254 14.8C13.377 15.2484 12.7688 15.5003 12.1346 15.5003H4.96121C4.32704 15.5003 3.71884 15.2484 3.27042 14.8C2.82199 14.3516 2.57007 13.7434 2.57007 13.1092V5.93577C2.57007 5.3016 2.82199 4.6934 3.27042 4.24498C3.71884 3.79655 4.32704 3.54463 4.96121 3.54463H7.35236Z" />
  </symbol>
</svg>
