<svg width="150" height="34" viewBox="0 0 150 34" fill="none" xmlns="http://www.w3.org/2000/svg">
<g clip-path="url(#clip0_839_17)">
<path d="M28.6745 12.6276V28.5182H0V12.6276H9.02231V20.5566H19.6194V12.6276H28.6745ZM50.164 20.7524C50.164 23.4607 48.3924 25.0269 45.9318 25.0269C43.5367 25.0269 41.7323 23.428 41.7323 20.7524V7.96161H37.7297V20.7198C37.7297 25.7447 41.3386 28.9424 45.9646 28.9424C50.6234 28.9424 54.1995 25.7447 54.1995 20.7198V7.96161H50.1968V20.7524H50.164ZM64.5013 13.8676C62.9593 13.8676 61.2533 14.5202 60.3675 16.0211V14.2591H56.6273V28.5182H60.4987V20.2956C60.4987 18.6315 61.4829 17.3263 63.189 17.3263C65.0591 17.3263 65.8465 18.5662 65.8465 20.1651V28.4856H69.7178V19.5125C69.685 16.38 68.0446 13.8676 64.5013 13.8676ZM78.7073 19.8714C78.7073 19.8714 77.395 19.6104 76.5748 19.4472C75.7546 19.2841 75.2625 18.8599 75.2625 18.1747C75.2625 17.3589 75.9843 16.7716 77.0013 16.7716C78.4449 16.7716 79.0026 17.4894 79.1339 18.3704H82.4803C82.4475 16.4127 80.9055 13.8676 77.0669 13.8676C73.9829 13.8676 71.7192 15.9885 71.7192 18.5336C71.7192 20.524 72.9659 22.1881 75.7218 22.7754L77.6903 23.1996C78.8058 23.428 79.2323 23.9501 79.2323 24.6027C79.2323 25.3532 78.5433 26.0058 77.2638 26.0058C75.7218 26.0058 74.8688 25.1248 74.6719 24.1132H71.227C71.4239 26.2342 72.9659 28.9424 77.2966 28.9424C81.0368 28.9424 82.9396 26.5605 82.9396 24.2438C82.9724 22.1555 81.5289 20.4587 78.7073 19.8714ZM99.4423 21.3397C99.4423 25.6468 96.7192 28.8445 92.6837 28.8445C90.7152 28.8445 89.2388 28.0614 88.5499 27.1152V34H84.6785V14.2591H88.4186V16.0211C89.0748 14.9117 90.6496 13.9328 92.815 13.9328C97.0144 13.9328 99.4423 17.1305 99.4423 21.3397ZM95.6365 21.3724C95.6365 18.8599 94.0617 17.3916 92.0932 17.3916C90.1247 17.3916 88.5171 18.8599 88.5171 21.3724C88.5171 23.8848 90.1247 25.3858 92.0932 25.3858C94.0617 25.3858 95.6365 23.9175 95.6365 21.3724ZM121.686 14.2591V28.5182H117.815V26.7562C117.159 27.8983 115.65 28.8445 113.681 28.8445C109.646 28.8445 106.923 25.6468 106.923 21.3397C106.923 17.0979 109.35 13.9328 113.517 13.9328C115.682 13.9328 117.224 14.9117 117.913 16.0211V14.2591H121.686ZM117.881 21.3724C117.881 18.8599 116.273 17.3916 114.304 17.3916C112.336 17.3916 110.761 18.8599 110.761 21.3724C110.761 23.9175 112.336 25.3858 114.304 25.3858C116.273 25.3858 117.881 23.8848 117.881 21.3724ZM101.247 28.4856H105.118V7.96161H101.247V28.4856ZM144.685 13.8676C143.307 13.8676 141.732 14.3244 140.814 15.4338V7.96161H136.942V28.4856H140.814V20.1324C140.912 18.5662 141.864 17.3589 143.504 17.3589C145.374 17.3589 146.161 18.5988 146.161 20.1977V28.5182H150.033V19.5451C150 16.38 148.327 13.8676 144.685 13.8676ZM130.906 19.8714C130.906 19.8714 129.593 19.6104 128.773 19.4472C127.953 19.2841 127.461 18.8599 127.461 18.1747C127.461 17.3589 128.182 16.7716 129.199 16.7716C130.643 16.7716 131.201 17.4894 131.332 18.3704H134.678C134.646 16.4127 133.104 13.8676 129.265 13.8676C126.181 13.8676 123.917 15.9885 123.917 18.5336C123.917 20.524 125.164 22.1881 127.92 22.7754L129.888 23.1996C131.004 23.428 131.43 23.9501 131.43 24.6027C131.43 25.3532 130.741 26.0058 129.462 26.0058C127.92 26.0058 127.067 25.1248 126.87 24.1132H123.425C123.622 26.2342 125.164 28.9424 129.495 28.9424C133.235 28.9424 135.138 26.5605 135.138 24.2438C135.171 22.1555 133.727 20.4587 130.906 19.8714ZM19.6522 0H9.02231V7.96161H19.6194V0H19.6522Z" fill="black"/>
</g>
<defs>
<clipPath id="clip0_839_17">
<rect width="150" height="34" fill="white"/>
</clipPath>
</defs>
</svg>
