<svg width="170" height="40" viewBox="0 0 170 40" fill="none" xmlns="http://www.w3.org/2000/svg">
<g clip-path="url(#clip0_839_29)">
<path d="M29.3904 14.5832C30.0042 15.6813 30.7496 17.087 30.7496 19.1076C30.7496 20.5133 30.2235 22.1385 29.4781 24.4227L27.8557 29.9136L21.9364 12.2111C22.9448 12.1233 23.8218 12.0354 23.8218 12.0354C24.7426 11.9037 24.611 10.6298 23.7341 10.6737C23.7341 10.6737 21.0594 10.8933 19.3494 10.8933C17.727 10.8933 15.0085 10.6737 15.0085 10.6737C14.1316 10.6298 14.0439 11.9915 14.9208 12.0354C14.9208 12.0354 15.7539 12.1672 16.6308 12.2111L19.174 19.2394L15.5347 30.0453L9.57145 12.2111C10.5799 12.1233 11.4569 12.0354 11.4569 12.0354C12.3777 11.9037 12.2461 10.6298 11.3692 10.6737C11.3692 10.6737 8.6945 10.8933 6.98446 10.8933H5.93213C8.86989 6.45675 13.9123 3.51367 19.6563 3.51367C23.9533 3.51367 27.8119 5.13896 30.7496 7.81848H30.5304C28.9081 7.81848 27.768 9.22413 27.768 10.7176C27.768 11.9563 28.4211 13.0133 29.1662 14.2192L29.1668 14.2202C29.2406 14.3396 29.3153 14.4605 29.3904 14.5832Z" fill="black"/>
<path d="M12.5091 34.7457C7.02818 32.0662 3.25732 26.4436 3.25732 19.9424C3.25732 17.5704 3.73964 15.2862 4.66043 13.2217L12.5091 34.7457Z" fill="black"/>
<path d="M19.963 21.3916L15.0083 35.7117C16.4991 36.1509 18.0338 36.3706 19.6561 36.3706C21.5854 36.3706 23.3831 36.0192 25.0932 35.4481C25.0712 35.4042 25.0493 35.3712 25.0274 35.3383C25.0055 35.3054 24.9835 35.2724 24.9616 35.2285L19.963 21.3916Z" fill="black"/>
<path d="M34.2134 13.7483C34.2134 13.1333 34.1696 12.5623 34.0819 12.0352C35.3534 14.4072 36.0988 17.0867 36.055 19.9419C36.055 26.0038 32.7665 31.3189 27.8994 34.1742L32.9857 19.6345C33.9065 17.3063 34.2134 15.4175 34.2134 13.7483Z" fill="black"/>
<path fill-rule="evenodd" clip-rule="evenodd" d="M19.6563 0.746094C9.08917 0.746094 0.495117 9.35571 0.495117 19.942C0.495117 30.5283 9.08917 39.1379 19.6563 39.1379C30.2235 39.1379 38.8176 30.5283 38.8176 19.942C38.8176 9.35571 30.2235 0.746094 19.6563 0.746094ZM19.6563 38.2594C9.57149 38.2594 1.37206 30.0451 1.37206 19.942C1.37206 9.8389 9.57149 1.62463 19.6563 1.62463C29.7412 1.62463 37.9406 9.8389 37.9406 19.942C37.9406 30.0451 29.7412 38.2594 19.6563 38.2594Z" fill="black"/>
<path d="M57.1894 23.2804L59.7325 15.6811C60.4779 13.4848 60.1271 12.8698 57.7594 12.8698V12.123H64.7311V12.8698C62.4072 12.8698 61.8372 13.4408 60.9164 16.1204L56.7071 28.8152H56.2247L52.4539 17.1746L48.5953 28.8152H48.113L43.9914 16.1643C43.1144 13.4408 42.5006 12.9137 40.3521 12.9137V12.167H48.5953V12.9137C46.403 12.9137 45.833 13.4408 46.5784 15.725L49.0776 23.3243L52.8047 12.167H53.5062L57.1894 23.2804Z" fill="black"/>
<path fill-rule="evenodd" clip-rule="evenodd" d="M98.4061 15.8564H91.7414V16.5593C93.8022 16.5593 94.153 16.9985 94.153 19.6341V24.3782C94.153 27.0138 93.8022 27.497 91.7414 27.497C90.1629 27.2773 89.0667 26.3988 87.5759 24.7735L85.8658 22.9286C88.1459 22.5333 89.3736 21.0837 89.3736 19.4145C89.3736 17.3499 87.6197 15.8125 84.375 15.8125H77.8418V16.5153C79.9026 16.5153 80.2534 16.9546 80.2534 19.5902V24.3343C80.2534 26.9699 79.9026 27.453 77.8418 27.453V28.1559H85.2081V27.453C83.1473 27.453 82.7965 26.9699 82.7965 24.3343V23.0165H83.4104L87.532 28.1998H98.3184C103.624 28.1998 105.948 25.3885 105.948 22.0061C105.992 18.6677 103.712 15.8564 98.4061 15.8564ZM82.8404 16.9985H84.375C86.0412 16.9985 86.7866 18.1406 86.7866 19.5023C86.7866 20.8201 86.0412 21.9622 84.375 21.9622H82.8404V16.9985ZM98.4938 27.1016H98.2308C96.9153 27.1016 96.6961 26.7502 96.6961 25.0371V16.9985H98.4938C102.352 16.9985 103.054 19.8098 103.054 22.0061C103.054 24.2464 102.352 27.1016 98.4938 27.1016Z" fill="black"/>
<path fill-rule="evenodd" clip-rule="evenodd" d="M69.8174 28.7277C65.7396 28.7277 62.4072 25.6968 62.4072 22.0509C62.4072 18.405 65.7396 15.374 69.8174 15.374C73.8952 15.374 77.2276 18.405 77.2276 22.0509C77.2276 25.6968 73.8952 28.7277 69.8174 28.7277ZM69.8174 16.5161C66.3973 16.5161 65.2135 19.591 65.2135 22.0069C65.2135 24.4668 66.3973 27.4978 69.8174 27.4978C73.2813 27.4978 74.4652 24.4668 74.4652 22.0069C74.4652 19.6349 73.2813 16.5161 69.8174 16.5161Z" fill="black"/>
<path fill-rule="evenodd" clip-rule="evenodd" d="M115.156 27.4974V28.2441H106.649V27.4974C109.149 27.4974 109.587 26.8824 109.587 23.1486V17.2185C109.587 13.4848 109.149 12.9137 106.649 12.9137V12.167H114.323C118.137 12.167 120.242 14.1437 120.242 16.7793C120.242 19.327 118.137 21.3477 114.323 21.3477H112.218V23.1486C112.218 26.8824 112.7 27.4974 115.156 27.4974ZM114.367 13.4848H112.262V19.942H114.367C116.427 19.942 117.392 18.4924 117.392 16.7354C117.392 14.9783 116.427 13.4848 114.367 13.4848Z" fill="black"/>
<path fill-rule="evenodd" clip-rule="evenodd" d="M145.761 24.7296L145.585 25.3885C145.235 26.6184 144.84 27.0577 142.209 27.0577H141.683C139.754 27.0577 139.403 26.6184 139.403 23.9828V22.3136C142.297 22.3136 142.516 22.5772 142.516 24.51H143.218V18.9313H142.516C142.516 20.8641 142.297 21.1276 139.403 21.1276V16.9546H141.464C144.095 16.9546 144.489 17.3939 144.84 18.6238L145.015 19.3266H145.629L145.366 15.8125H134.448V16.5153C136.509 16.5153 136.86 16.9546 136.86 19.5902V24.3343C136.86 26.7502 136.597 27.3652 134.931 27.453C133.352 27.2334 132.3 26.3549 130.853 24.7735L129.143 22.9286C131.423 22.5333 132.65 21.0837 132.65 19.4145C132.65 17.3499 130.897 15.8125 127.652 15.8125H121.119V16.5153C123.179 16.5153 123.53 16.9546 123.53 19.5902V24.3343C123.53 26.9699 123.179 27.453 121.119 27.453V28.1559H128.485V27.453C126.424 27.453 126.073 26.9699 126.073 24.3343V23.0165H126.687L130.809 28.1998H146.112L146.331 24.6857H145.761V24.7296ZM126.117 21.9622V16.9985H127.652C129.318 16.9985 130.063 18.1406 130.063 19.5023C130.063 20.8201 129.318 21.9622 127.652 21.9622H126.117Z" fill="black"/>
<path d="M153.303 28.7277C151.812 28.7277 150.54 27.937 149.97 27.4538C149.795 27.6295 149.444 28.2006 149.356 28.7277H148.655V23.5883H149.4C149.707 26.0482 151.417 27.4978 153.61 27.4978C154.793 27.4978 155.758 26.8389 155.758 25.6968C155.758 24.7304 154.925 23.9836 153.39 23.2808L151.286 22.2705C149.795 21.5677 148.699 20.3377 148.699 18.7124C148.699 16.9115 150.365 15.4179 152.689 15.4179C153.916 15.4179 154.969 15.8572 155.583 16.3843C155.758 16.2526 155.933 15.8133 156.065 15.374H156.767V19.7667H155.977C155.714 18.0096 154.75 16.56 152.776 16.56C151.724 16.56 150.759 17.175 150.759 18.0975C150.759 19.0639 151.549 19.591 153.303 20.3817L155.363 21.392C157.161 22.2266 157.863 23.6322 157.863 24.7304C157.863 27.1024 155.802 28.7277 153.303 28.7277Z" fill="black"/>
<path d="M164.747 28.7277C163.256 28.7277 161.985 27.937 161.415 27.4538C161.239 27.6295 160.888 28.2006 160.801 28.7277H160.099V23.5883H160.845C161.151 26.0482 162.861 27.4978 165.054 27.4978C166.238 27.4978 167.202 26.8389 167.202 25.6968C167.202 24.7304 166.369 23.9836 164.835 23.2808L162.73 22.2705C161.239 21.5677 160.143 20.3377 160.143 18.7124C160.143 16.9115 161.809 15.4179 164.133 15.4179C165.361 15.4179 166.413 15.8572 167.027 16.3843C167.202 16.2526 167.378 15.8133 167.509 15.374H168.211V19.7667H167.422C167.159 18.0096 166.194 16.56 164.221 16.56C163.168 16.56 162.204 17.175 162.204 18.0975C162.204 19.0639 162.993 19.591 164.747 20.3817L166.808 21.392C168.605 22.2266 169.307 23.6322 169.307 24.7304C169.263 27.1024 167.246 28.7277 164.747 28.7277Z" fill="black"/>
</g>
<defs>
<clipPath id="clip0_839_29">
<rect width="170" height="40" fill="white"/>
</clipPath>
</defs>
</svg>
